<svg width="24" height="24" viewBox="0 0 24 24" fill="none" xmlns="http://www.w3.org/2000/svg">
<path d="M4.68684 18.0199L18.0197 4.68711C18.3765 4.33027 18.9555 4.33027 19.3124 4.68711C19.6692 5.04395 19.6692 5.62295 19.3124 5.97979L5.97952 19.3126C5.62269 19.6695 5.04368 19.6695 4.68684 19.3126C4.33001 18.9558 4.33001 18.3768 4.68684 18.0199Z" fill="white"/>
<path d="M5.99153 4.68758L19.3244 18.0204C19.6812 18.3772 19.6812 18.9562 19.3244 19.3131C18.9675 19.6699 18.3885 19.6699 18.0317 19.3131L4.69885 5.98026C4.34202 5.62342 4.34202 5.04442 4.69885 4.68758C5.05569 4.33074 5.6347 4.33074 5.99153 4.68758Z" fill="white"/>
</svg>
