<svg width="43" height="42" viewBox="0 0 43 42" fill="none" xmlns="http://www.w3.org/2000/svg">
<rect x="1" y="0.5" width="41" height="41" rx="20.5" fill="black" fill-opacity="0.1"/>
<rect x="1" y="0.5" width="41" height="41" rx="20.5" stroke="white"/>
<path d="M29.5107 19.2099L27.3698 22.39L25.0909 19.2099" fill="white"/>
<path d="M26.8223 20.9961C26.8223 18.0546 24.4376 15.6699 21.4961 15.6699C18.5546 15.6699 16.1699 18.0546 16.1699 20.9961C16.1699 23.8455 18.4077 26.1726 21.2217 26.3154L21.4961 26.3223L21.6074 26.333C21.8578 26.3844 22.0459 26.6064 22.0459 26.8721C22.0459 27.1758 21.7999 27.4219 21.4961 27.4219C17.9471 27.4219 15.0703 24.5451 15.0703 20.9961C15.0703 17.4471 17.9471 14.5703 21.4961 14.5703C25.0451 14.5703 27.9219 17.4471 27.9219 20.9961C27.9219 21.2999 27.6758 21.5459 27.3721 21.5459C27.0683 21.5459 26.8223 21.2998 26.8223 20.9961Z" fill="white"/>
</svg>
