<svg width="167" height="42" viewBox="0 0 167 42" fill="none" xmlns="http://www.w3.org/2000/svg">
<path d="M0.5 21C0.5 9.40202 9.90202 0 21.5 0L145.5 0C157.098 0 166.5 9.40202 166.5 21C166.5 32.598 157.098 42 145.5 42L21.5 42C9.90202 42 0.5 32.598 0.5 21Z" fill="#FF0000"/>
<path d="M33.274 22.5468L31.0178 21.6807C30.7301 21.5686 30.5575 21.502 30.4788 21.4475C30.4091 21.399 30.3516 21.3385 30.3031 21.2718C30.2486 21.1931 30.182 21.0205 30.0699 20.7328L29.2038 18.4766C29.0918 18.1859 28.8131 17.9951 28.5043 17.9951C28.1954 17.9951 27.9167 18.1859 27.8047 18.4766L26.9386 20.7328C26.8265 21.0205 26.7599 21.1961 26.7054 21.2718C26.6569 21.3415 26.5964 21.399 26.5267 21.4505C26.451 21.505 26.2784 21.5716 25.9877 21.6837L23.7315 22.5498C23.4408 22.6619 23.25 22.9405 23.25 23.2494C23.25 23.5613 23.4408 23.8369 23.7315 23.9489L25.9877 24.8181C26.2754 24.9271 26.448 24.9937 26.5237 25.0482C26.5933 25.0967 26.6509 25.1573 26.6993 25.2239C26.7538 25.2996 26.8205 25.4752 26.9325 25.7629L27.7986 28.0191C27.9107 28.3098 28.1893 28.5006 28.4982 28.5006C28.8101 28.5006 29.0857 28.3098 29.1978 28.0191L30.0669 25.7629C30.1759 25.4752 30.2425 25.3026 30.3001 25.2239C30.3485 25.1573 30.4091 25.0967 30.4757 25.0482C30.5545 24.9937 30.7271 24.9271 31.0148 24.815L33.2709 23.9489C33.5617 23.8369 33.7524 23.5583 33.7524 23.2494C33.7524 22.9374 33.5617 22.6619 33.2709 22.5498L33.274 22.5468Z" fill="white"/>
<path d="M36.7358 16.1044L35.4457 15.6078C35.2821 15.5442 35.1822 15.5048 35.1368 15.4745C35.0974 15.4473 35.0641 15.4139 35.0368 15.3746C35.0066 15.3291 34.9672 15.2322 34.9036 15.0657L34.4069 13.7756C34.3433 13.609 34.1828 13.5 34.0072 13.5C33.8285 13.5 33.671 13.609 33.6074 13.7756L33.1108 15.0657C33.0472 15.2292 33.0078 15.3291 32.9775 15.3746C32.9503 15.4139 32.9139 15.4473 32.8746 15.4775C32.8322 15.5078 32.7322 15.5472 32.5657 15.6108L31.2756 16.1074C31.109 16.171 31 16.3315 31 16.5072C31 16.6859 31.109 16.8433 31.2756 16.9069L32.5687 17.4036C32.7322 17.4672 32.8322 17.5035 32.8746 17.5368C32.9139 17.5641 32.9473 17.5974 32.9745 17.6368C33.0048 17.6822 33.0442 17.7791 33.1078 17.9457L33.6044 19.2358C33.668 19.4023 33.8285 19.5113 34.0042 19.5113C34.1828 19.5113 34.3403 19.4023 34.4039 19.2358L34.9006 17.9457C34.9642 17.7821 35.0005 17.6822 35.0338 17.6368C35.0611 17.5974 35.0944 17.5641 35.1337 17.5368C35.1792 17.5066 35.2791 17.4672 35.4426 17.4036L36.7327 16.9069C36.8993 16.8433 37.0083 16.6828 37.0083 16.5072C37.0083 16.3285 36.8993 16.171 36.7327 16.1074L36.7358 16.1044Z" fill="white"/>
<path d="M25.5798 16.3746L24.7746 16.0648C24.6726 16.0252 24.6102 16.0006 24.5818 15.9817C24.5573 15.9647 24.5365 15.9439 24.5195 15.9194C24.5006 15.891 24.476 15.8306 24.4363 15.7267L24.1263 14.9219C24.0866 14.818 23.9865 14.75 23.8768 14.75C23.7653 14.75 23.667 14.818 23.6274 14.9219L23.3174 15.7267C23.2777 15.8287 23.2531 15.891 23.2342 15.9194C23.2172 15.9439 23.1945 15.9647 23.17 15.9836C23.1435 16.0025 23.0811 16.027 22.9772 16.0667L22.172 16.3765C22.068 16.4162 22 16.5163 22 16.6259C22 16.7374 22.068 16.8356 22.172 16.8753L22.9791 17.1851C23.0811 17.2248 23.1435 17.2474 23.17 17.2682C23.1945 17.2852 23.2153 17.306 23.2323 17.3305C23.2512 17.3589 23.2758 17.4193 23.3155 17.5232L23.6255 18.328C23.6652 18.4319 23.7653 18.4999 23.875 18.4999C23.9865 18.4999 24.0848 18.4319 24.1244 18.328L24.4344 17.5232C24.4741 17.4212 24.4968 17.3589 24.5176 17.3305C24.5346 17.306 24.5554 17.2852 24.58 17.2682C24.6083 17.2493 24.6707 17.2248 24.7727 17.1851L25.5779 16.8753C25.6819 16.8356 25.7499 16.7355 25.7499 16.6259C25.7499 16.5144 25.6819 16.4162 25.5779 16.3765L25.5798 16.3746Z" fill="white"/>
<path d="M52.132 24.704C52.132 25.0347 52.1587 25.2747 52.212 25.424C52.2653 25.5733 52.3667 25.6747 52.516 25.728C52.676 25.7813 52.9267 25.808 53.268 25.808C53.3 25.808 53.316 25.84 53.316 25.904C53.316 25.968 53.3 26 53.268 26C52.916 26 52.6387 25.9947 52.436 25.984L51.22 25.968L50.036 25.984C49.8227 25.9947 49.5347 26 49.172 26C49.1507 26 49.14 25.968 49.14 25.904C49.14 25.84 49.1507 25.808 49.172 25.808C49.5133 25.808 49.764 25.7813 49.924 25.728C50.084 25.6747 50.1907 25.5733 50.244 25.424C50.308 25.264 50.34 25.024 50.34 24.704V17.296C50.34 16.976 50.308 16.7413 50.244 16.592C50.1907 16.4427 50.084 16.3413 49.924 16.288C49.764 16.224 49.5133 16.192 49.172 16.192C49.1507 16.192 49.14 16.16 49.14 16.096C49.14 16.032 49.1507 16 49.172 16L50.036 16.016C50.5267 16.0373 50.9213 16.048 51.22 16.048C51.5507 16.048 51.9613 16.0373 52.452 16.016L53.268 16C53.3 16 53.316 16.032 53.316 16.096C53.316 16.16 53.3 16.192 53.268 16.192C52.9373 16.192 52.692 16.224 52.532 16.288C52.372 16.352 52.2653 16.464 52.212 16.624C52.1587 16.7733 52.132 17.008 52.132 17.328V24.704ZM57.2807 16.368L57.7607 16.4V23.968C57.7607 24.5333 57.8781 24.9813 58.1127 25.312C58.3474 25.6427 58.6727 25.808 59.0887 25.808C59.1101 25.808 59.1207 25.84 59.1207 25.904C59.1207 25.968 59.1101 26 59.0887 26C58.7901 26 58.5607 25.9947 58.4007 25.984L57.5367 25.968L56.5447 25.984C56.3634 25.9947 56.1021 26 55.7607 26C55.7287 26 55.7127 25.968 55.7127 25.904C55.7127 25.84 55.7287 25.808 55.7607 25.808C56.2301 25.808 56.5981 25.6427 56.8647 25.312C57.1421 24.9813 57.2807 24.5333 57.2807 23.968V16.368ZM65.4408 26.24C65.4408 26.272 65.4141 26.2933 65.3608 26.304C65.3181 26.3147 65.2861 26.3093 65.2648 26.288L57.3767 17.312C57.0034 16.8853 56.6834 16.592 56.4167 16.432C56.1501 16.272 55.8781 16.192 55.6007 16.192C55.5794 16.192 55.5687 16.16 55.5687 16.096C55.5687 16.032 55.5794 16 55.6007 16L56.2727 16.016C56.4114 16.0267 56.6141 16.032 56.8807 16.032L58.0967 16.016C58.2461 16.0053 58.4274 16 58.6407 16C58.7261 16 58.7901 16.0213 58.8327 16.064C58.8754 16.1067 58.9501 16.1973 59.0567 16.336C59.2381 16.5813 59.3661 16.7467 59.4408 16.832L65.3127 23.6L65.4408 26.24ZM65.4408 26.24L64.9768 25.76V18.048C64.9768 17.472 64.8594 17.0187 64.6248 16.688C64.3901 16.3573 64.0648 16.192 63.6488 16.192C63.6274 16.192 63.6167 16.16 63.6167 16.096C63.6167 16.032 63.6274 16 63.6488 16L64.3368 16.016C64.6781 16.0373 64.9661 16.048 65.2008 16.048C65.4141 16.048 65.7128 16.0373 66.0968 16.016L66.8168 16C66.8381 16 66.8488 16.032 66.8488 16.096C66.8488 16.16 66.8381 16.192 66.8168 16.192C66.3901 16.192 66.0541 16.3627 65.8088 16.704C65.5634 17.0347 65.4408 17.4827 65.4408 18.048V26.24ZM71.0784 17.616C71.0784 18 71.1744 18.3413 71.3664 18.64C71.569 18.9387 71.8144 19.2 72.1024 19.424C72.3904 19.648 72.7797 19.92 73.2704 20.24C73.8037 20.5813 74.2304 20.88 74.5504 21.136C74.8704 21.392 75.1424 21.7067 75.3664 22.08C75.5904 22.4427 75.7024 22.864 75.7024 23.344C75.7024 23.8987 75.553 24.3947 75.2544 24.832C74.9557 25.2587 74.5397 25.5947 74.0064 25.84C73.4837 26.0747 72.897 26.192 72.2464 26.192C71.777 26.192 71.2757 26.128 70.7424 26C70.2197 25.8613 69.8677 25.712 69.6864 25.552C69.633 25.5093 69.5904 25.472 69.5584 25.44C69.537 25.3973 69.5264 25.3333 69.5264 25.248L69.4784 22.704V22.688C69.4784 22.6453 69.505 22.624 69.5584 22.624C69.6117 22.6133 69.6437 22.6293 69.6544 22.672C69.9744 23.3227 70.2517 23.8507 70.4864 24.256C70.7317 24.6613 71.0357 25.0187 71.3984 25.328C71.7717 25.6373 72.193 25.792 72.6624 25.792C73.089 25.792 73.441 25.68 73.7184 25.456C73.9957 25.2213 74.1344 24.8267 74.1344 24.272C74.1344 23.8027 74.0277 23.392 73.8144 23.04C73.6117 22.688 73.361 22.3893 73.0624 22.144C72.7637 21.8987 72.353 21.6053 71.8304 21.264C71.3184 20.9333 70.9184 20.6507 70.6304 20.416C70.353 20.1813 70.113 19.8987 69.9104 19.568C69.7077 19.2373 69.6064 18.848 69.6064 18.4C69.6064 17.8347 69.7664 17.36 70.0864 16.976C70.417 16.5813 70.8384 16.2933 71.3504 16.112C71.8624 15.92 72.401 15.824 72.9664 15.824C73.3397 15.824 73.7184 15.8613 74.1024 15.936C74.4864 16 74.7957 16.08 75.0304 16.176C75.1264 16.2187 75.1904 16.2667 75.2224 16.32C75.2544 16.3627 75.2704 16.4213 75.2704 16.496V18.848C75.2704 18.88 75.2437 18.9067 75.1904 18.928C75.137 18.9387 75.105 18.928 75.0944 18.896L74.9664 18.592C74.6997 17.92 74.385 17.3493 74.0224 16.88C73.6704 16.4107 73.1744 16.176 72.5344 16.176C72.1077 16.176 71.7557 16.2987 71.4784 16.544C71.2117 16.7893 71.0784 17.1467 71.0784 17.616ZM81.2648 24.64C81.2648 24.9813 81.3021 25.232 81.3768 25.392C81.4514 25.5413 81.5901 25.648 81.7928 25.712C82.0061 25.776 82.3421 25.808 82.8008 25.808C82.8328 25.808 82.8488 25.84 82.8488 25.904C82.8488 25.968 82.8328 26 82.8008 26C82.3634 26 82.0221 25.9947 81.7768 25.984L80.3848 25.968L79.2168 25.984C79.0034 25.9947 78.7154 26 78.3528 26C78.3208 26 78.3048 25.968 78.3048 25.904C78.3048 25.84 78.3208 25.808 78.3528 25.808C78.6941 25.808 78.9394 25.7813 79.0888 25.728C79.2488 25.6747 79.3554 25.5733 79.4088 25.424C79.4621 25.264 79.4888 25.024 79.4888 24.704V17.296C79.4888 16.976 79.4621 16.7413 79.4088 16.592C79.3554 16.4427 79.2488 16.3413 79.0888 16.288C78.9288 16.224 78.6834 16.192 78.3528 16.192C78.3208 16.192 78.3048 16.16 78.3048 16.096C78.3048 16.032 78.3208 16 78.3528 16L79.2008 16.016C79.6914 16.0373 80.0808 16.048 80.3688 16.048C80.6248 16.048 80.9288 16.032 81.2808 16C81.4194 15.9893 81.5954 15.9787 81.8088 15.968C82.0221 15.9573 82.2674 15.952 82.5448 15.952C83.6328 15.952 84.4914 16.1813 85.1208 16.64C85.7501 17.088 86.0648 17.7867 86.0648 18.736C86.0648 19.3973 85.8941 19.9573 85.5528 20.416C85.2114 20.8747 84.7688 21.2213 84.2248 21.456C83.6914 21.6907 83.1421 21.808 82.5768 21.808C82.2888 21.808 82.0381 21.7813 81.8248 21.728C81.8034 21.728 81.7928 21.7013 81.7928 21.648C81.7928 21.616 81.7981 21.584 81.8088 21.552C81.8301 21.52 81.8514 21.5093 81.8728 21.52C82.0328 21.5627 82.2141 21.584 82.4168 21.584C82.9074 21.584 83.3128 21.3547 83.6328 20.896C83.9634 20.4373 84.1288 19.7867 84.1288 18.944C84.1288 18.1013 83.9474 17.4507 83.5848 16.992C83.2328 16.5333 82.7154 16.304 82.0328 16.304C81.7341 16.304 81.5314 16.3733 81.4248 16.512C81.3181 16.6507 81.2648 16.9227 81.2648 17.328V24.64ZM91.5645 24.704C91.5645 25.0347 91.5912 25.2747 91.6445 25.424C91.6978 25.5733 91.7992 25.6747 91.9485 25.728C92.1085 25.7813 92.3592 25.808 92.7005 25.808C92.7325 25.808 92.7485 25.84 92.7485 25.904C92.7485 25.968 92.7325 26 92.7005 26C92.3485 26 92.0712 25.9947 91.8685 25.984L90.6525 25.968L89.4685 25.984C89.2552 25.9947 88.9672 26 88.6045 26C88.5832 26 88.5725 25.968 88.5725 25.904C88.5725 25.84 88.5832 25.808 88.6045 25.808C88.9458 25.808 89.1965 25.7813 89.3565 25.728C89.5165 25.6747 89.6232 25.5733 89.6765 25.424C89.7405 25.264 89.7725 25.024 89.7725 24.704V17.296C89.7725 16.976 89.7405 16.7413 89.6765 16.592C89.6232 16.4427 89.5165 16.3413 89.3565 16.288C89.1965 16.224 88.9458 16.192 88.6045 16.192C88.5832 16.192 88.5725 16.16 88.5725 16.096C88.5725 16.032 88.5832 16 88.6045 16L89.4685 16.016C89.9592 16.0373 90.3538 16.048 90.6525 16.048C90.9832 16.048 91.3938 16.0373 91.8845 16.016L92.7005 16C92.7325 16 92.7485 16.032 92.7485 16.096C92.7485 16.16 92.7325 16.192 92.7005 16.192C92.3698 16.192 92.1245 16.224 91.9645 16.288C91.8045 16.352 91.6978 16.464 91.6445 16.624C91.5912 16.7733 91.5645 17.008 91.5645 17.328V24.704ZM103.161 26C102.916 26 102.463 25.5573 101.801 24.672C101.14 23.776 100.34 22.5333 99.4013 20.944L100.873 20.496C101.759 21.84 102.495 22.8907 103.081 23.648C103.679 24.4053 104.207 24.9547 104.665 25.296C105.124 25.6373 105.572 25.808 106.009 25.808C106.031 25.808 106.041 25.84 106.041 25.904C106.041 25.968 106.031 26 106.009 26H103.161ZM99.7213 15.952C100.692 15.952 101.444 16.1333 101.977 16.496C102.511 16.848 102.777 17.344 102.777 17.984C102.777 18.592 102.601 19.1413 102.249 19.632C101.908 20.1227 101.46 20.5067 100.905 20.784C100.351 21.0507 99.7693 21.184 99.1613 21.184C98.7453 21.184 98.4519 21.1787 98.2813 21.168V24.704C98.2813 25.0347 98.3079 25.2747 98.3613 25.424C98.4146 25.5733 98.5159 25.6747 98.6653 25.728C98.8253 25.7813 99.0759 25.808 99.4173 25.808C99.4386 25.808 99.4493 25.84 99.4493 25.904C99.4493 25.968 99.4386 26 99.4173 26C99.0653 26 98.7879 25.9947 98.5853 25.984L97.3693 25.968L96.2013 25.984C95.9879 25.9947 95.6999 26 95.3373 26C95.3053 26 95.2893 25.968 95.2893 25.904C95.2893 25.84 95.3053 25.808 95.3373 25.808C95.6786 25.808 95.9239 25.7813 96.0733 25.728C96.2333 25.6747 96.3399 25.5733 96.3933 25.424C96.4573 25.264 96.4893 25.024 96.4893 24.704V17.296C96.4893 16.976 96.4626 16.7413 96.4093 16.592C96.3559 16.4427 96.2493 16.3413 96.0893 16.288C95.9293 16.224 95.6839 16.192 95.3533 16.192C95.3319 16.192 95.3213 16.16 95.3213 16.096C95.3213 16.032 95.3319 16 95.3533 16L96.2013 16.016C96.6919 16.0373 97.0813 16.048 97.3693 16.048C97.7319 16.048 98.1106 16.032 98.5053 16C98.6439 15.9893 98.8146 15.9787 99.0173 15.968C99.2306 15.9573 99.4653 15.952 99.7213 15.952ZM100.953 18.592C100.953 17.7173 100.825 17.1147 100.569 16.784C100.313 16.4533 99.9453 16.288 99.4653 16.288C99.0386 16.288 98.7346 16.368 98.5533 16.528C98.3719 16.688 98.2813 16.9547 98.2813 17.328V20.72C98.5373 20.7627 98.8466 20.784 99.2093 20.784C99.8279 20.784 100.271 20.6133 100.537 20.272C100.815 19.92 100.953 19.36 100.953 18.592ZM107.789 26C107.757 26 107.741 25.968 107.741 25.904C107.741 25.84 107.757 25.808 107.789 25.808C108.13 25.808 108.376 25.7813 108.525 25.728C108.685 25.6747 108.792 25.5733 108.845 25.424C108.898 25.264 108.925 25.024 108.925 24.704V17.296C108.925 16.976 108.898 16.7413 108.845 16.592C108.792 16.4427 108.685 16.3413 108.525 16.288C108.365 16.224 108.12 16.192 107.789 16.192C107.757 16.192 107.741 16.16 107.741 16.096C107.741 16.032 107.757 16 107.789 16H114.573C114.68 16 114.733 16.048 114.733 16.144L114.765 18.272C114.765 18.2933 114.733 18.3093 114.669 18.32C114.616 18.3307 114.584 18.32 114.573 18.288C114.402 17.6693 114.114 17.2107 113.709 16.912C113.304 16.6133 112.77 16.464 112.109 16.464H111.629C111.309 16.464 111.074 16.5333 110.925 16.672C110.776 16.8107 110.701 17.024 110.701 17.312V24.64C110.701 24.9493 110.76 25.1787 110.877 25.328C110.994 25.4773 111.181 25.552 111.437 25.552H111.965C112.797 25.552 113.464 25.3813 113.965 25.04C114.466 24.6987 114.834 24.1707 115.069 23.456C115.069 23.4347 115.09 23.424 115.133 23.424C115.165 23.424 115.192 23.4347 115.213 23.456C115.245 23.4667 115.261 23.4773 115.261 23.488C115.154 24.32 115.101 25.0773 115.101 25.76C115.101 25.8453 115.085 25.9093 115.053 25.952C115.021 25.984 114.957 26 114.861 26H107.789ZM113.965 22.432C113.965 21.9947 113.794 21.6533 113.453 21.408C113.122 21.152 112.642 21.024 112.013 21.024H109.853V20.576H112.029C112.648 20.576 113.122 20.4693 113.453 20.256C113.784 20.0427 113.949 19.744 113.949 19.36C113.949 19.328 113.976 19.312 114.029 19.312C114.093 19.312 114.125 19.328 114.125 19.36L114.109 20.8L114.125 21.568C114.146 21.9307 114.157 22.2187 114.157 22.432C114.157 22.4533 114.125 22.464 114.061 22.464C113.997 22.464 113.965 22.4533 113.965 22.432ZM124.303 16.368L124.767 16.4L124.591 23.968C124.581 24.544 124.693 24.9973 124.927 25.328C125.173 25.648 125.514 25.808 125.951 25.808C125.983 25.808 125.999 25.84 125.999 25.904C125.999 25.968 125.983 26 125.951 26C125.663 26 125.439 25.9947 125.279 25.984L124.399 25.968L123.391 25.984C123.221 25.9947 122.991 26 122.703 26C122.671 26 122.655 25.968 122.655 25.904C122.655 25.84 122.671 25.808 122.703 25.808C123.141 25.808 123.487 25.6427 123.743 25.312C123.999 24.9813 124.133 24.5333 124.143 23.968L124.303 16.368ZM135.599 25.808C135.621 25.808 135.631 25.84 135.631 25.904C135.631 25.968 135.621 26 135.599 26C135.237 26 134.949 25.9947 134.735 25.984L133.551 25.968L132.351 25.984C132.149 25.9947 131.871 26 131.519 26C131.487 26 131.471 25.968 131.471 25.904C131.471 25.84 131.487 25.808 131.519 25.808C131.861 25.808 132.111 25.7813 132.271 25.728C132.442 25.664 132.554 25.5573 132.607 25.408C132.661 25.2587 132.677 25.024 132.655 24.704L132.287 17.6L133.103 16.32L129.023 25.888C129.002 25.9307 128.959 25.952 128.895 25.952C128.831 25.952 128.789 25.9307 128.767 25.888L124.271 17.328C124.058 16.9333 123.834 16.6453 123.599 16.464C123.375 16.2827 123.114 16.192 122.815 16.192C122.783 16.192 122.767 16.16 122.767 16.096C122.767 16.032 122.783 16 122.815 16L123.567 16.016C123.717 16.0267 123.909 16.032 124.143 16.032L124.991 16.016C125.087 16.0053 125.21 16 125.359 16C125.498 16 125.605 16.048 125.679 16.144C125.754 16.24 125.893 16.4693 126.095 16.832L129.679 23.552L128.879 24.992L132.623 16.4C132.687 16.2507 132.751 16.1493 132.815 16.096C132.89 16.032 132.986 16 133.103 16C133.199 16 133.306 16.0053 133.423 16.016C133.551 16.0267 133.695 16.032 133.855 16.032L134.799 16.016C134.949 16.0053 135.162 16 135.439 16C135.471 16 135.487 16.032 135.487 16.096C135.487 16.16 135.471 16.192 135.439 16.192C134.938 16.192 134.575 16.2933 134.351 16.496C134.127 16.6987 134.026 17.0133 134.047 17.44L134.431 24.704C134.453 25.0347 134.49 25.2747 134.543 25.424C134.607 25.5733 134.714 25.6747 134.863 25.728C135.023 25.7813 135.269 25.808 135.599 25.808ZM137.926 26C137.894 26 137.878 25.968 137.878 25.904C137.878 25.84 137.894 25.808 137.926 25.808C138.267 25.808 138.513 25.7813 138.662 25.728C138.822 25.6747 138.929 25.5733 138.982 25.424C139.035 25.264 139.062 25.024 139.062 24.704V17.296C139.062 16.976 139.035 16.7413 138.982 16.592C138.929 16.4427 138.822 16.3413 138.662 16.288C138.502 16.224 138.257 16.192 137.926 16.192C137.894 16.192 137.878 16.16 137.878 16.096C137.878 16.032 137.894 16 137.926 16L144.71 16C144.817 16 144.87 16.048 144.87 16.144L144.902 18.272C144.902 18.2933 144.87 18.3093 144.806 18.32C144.753 18.3307 144.721 18.32 144.71 18.288C144.539 17.6693 144.251 17.2107 143.846 16.912C143.441 16.6133 142.907 16.464 142.246 16.464H141.766C141.446 16.464 141.211 16.5333 141.062 16.672C140.913 16.8107 140.838 17.024 140.838 17.312V24.64C140.838 24.9493 140.897 25.1787 141.014 25.328C141.131 25.4773 141.318 25.552 141.574 25.552H142.102C142.934 25.552 143.601 25.3813 144.102 25.04C144.603 24.6987 144.971 24.1707 145.206 23.456C145.206 23.4347 145.227 23.424 145.27 23.424C145.302 23.424 145.329 23.4347 145.35 23.456C145.382 23.4667 145.398 23.4773 145.398 23.488C145.291 24.32 145.238 25.0773 145.238 25.76C145.238 25.8453 145.222 25.9093 145.19 25.952C145.158 25.984 145.094 26 144.998 26H137.926ZM144.102 22.432C144.102 21.9947 143.931 21.6533 143.59 21.408C143.259 21.152 142.779 21.024 142.15 21.024H139.99V20.576H142.166C142.785 20.576 143.259 20.4693 143.59 20.256C143.921 20.0427 144.086 19.744 144.086 19.36C144.086 19.328 144.113 19.312 144.166 19.312C144.23 19.312 144.262 19.328 144.262 19.36L144.246 20.8L144.262 21.568C144.283 21.9307 144.294 22.2187 144.294 22.432C144.294 22.4533 144.262 22.464 144.198 22.464C144.134 22.464 144.102 22.4533 144.102 22.432Z" fill="white"/>
</svg>
