<svg width="43" height="42" viewBox="0 0 43 42" fill="none" xmlns="http://www.w3.org/2000/svg">
<rect x="0.5" width="42" height="42" rx="21" fill="#FF0000"/>
<path d="M25.274 22.5468L23.0178 21.6807C22.7301 21.5686 22.5575 21.502 22.4788 21.4475C22.4091 21.399 22.3516 21.3385 22.3031 21.2718C22.2486 21.1931 22.182 21.0205 22.0699 20.7328L21.2038 18.4766C21.0918 18.1859 20.8131 17.9951 20.5043 17.9951C20.1954 17.9951 19.9167 18.1859 19.8047 18.4766L18.9386 20.7328C18.8265 21.0205 18.7599 21.1961 18.7054 21.2718C18.6569 21.3415 18.5964 21.399 18.5267 21.4505C18.451 21.505 18.2784 21.5716 17.9877 21.6837L15.7315 22.5498C15.4408 22.6619 15.25 22.9405 15.25 23.2494C15.25 23.5613 15.4408 23.8369 15.7315 23.9489L17.9877 24.8181C18.2754 24.9271 18.448 24.9937 18.5237 25.0482C18.5933 25.0967 18.6509 25.1573 18.6993 25.2239C18.7538 25.2996 18.8205 25.4752 18.9325 25.7629L19.7986 28.0191C19.9107 28.3098 20.1893 28.5006 20.4982 28.5006C20.8101 28.5006 21.0857 28.3098 21.1978 28.0191L22.0669 25.7629C22.1759 25.4752 22.2425 25.3026 22.3001 25.2239C22.3485 25.1573 22.4091 25.0967 22.4757 25.0482C22.5545 24.9937 22.7271 24.9271 23.0148 24.815L25.2709 23.9489C25.5617 23.8369 25.7524 23.5583 25.7524 23.2494C25.7524 22.9374 25.5617 22.6619 25.2709 22.5498L25.274 22.5468Z" fill="white"/>
<path d="M28.7358 16.1044L27.4457 15.6078C27.2821 15.5442 27.1822 15.5048 27.1368 15.4745C27.0974 15.4473 27.0641 15.4139 27.0368 15.3746C27.0066 15.3291 26.9672 15.2322 26.9036 15.0657L26.4069 13.7756C26.3433 13.609 26.1828 13.5 26.0072 13.5C25.8285 13.5 25.671 13.609 25.6074 13.7756L25.1108 15.0657C25.0472 15.2292 25.0078 15.3291 24.9775 15.3746C24.9503 15.4139 24.9139 15.4473 24.8746 15.4775C24.8322 15.5078 24.7322 15.5472 24.5657 15.6108L23.2756 16.1074C23.109 16.171 23 16.3315 23 16.5072C23 16.6859 23.109 16.8433 23.2756 16.9069L24.5687 17.4036C24.7322 17.4672 24.8322 17.5035 24.8746 17.5368C24.9139 17.5641 24.9473 17.5974 24.9745 17.6368C25.0048 17.6822 25.0442 17.7791 25.1078 17.9457L25.6044 19.2358C25.668 19.4023 25.8285 19.5113 26.0042 19.5113C26.1828 19.5113 26.3403 19.4023 26.4039 19.2358L26.9006 17.9457C26.9642 17.7821 27.0005 17.6822 27.0338 17.6368C27.0611 17.5974 27.0944 17.5641 27.1337 17.5368C27.1792 17.5066 27.2791 17.4672 27.4426 17.4036L28.7327 16.9069C28.8993 16.8433 29.0083 16.6828 29.0083 16.5072C29.0083 16.3285 28.8993 16.171 28.7327 16.1074L28.7358 16.1044Z" fill="white"/>
<path d="M17.5798 16.3746L16.7746 16.0648C16.6726 16.0252 16.6102 16.0006 16.5818 15.9817C16.5573 15.9647 16.5365 15.9439 16.5195 15.9194C16.5006 15.891 16.476 15.8306 16.4363 15.7267L16.1263 14.9219C16.0866 14.818 15.9865 14.75 15.8768 14.75C15.7653 14.75 15.667 14.818 15.6274 14.9219L15.3174 15.7267C15.2777 15.8287 15.2531 15.891 15.2342 15.9194C15.2172 15.9439 15.1945 15.9647 15.17 15.9836C15.1435 16.0025 15.0811 16.027 14.9772 16.0667L14.172 16.3765C14.068 16.4162 14 16.5163 14 16.6259C14 16.7374 14.068 16.8356 14.172 16.8753L14.9791 17.1851C15.0811 17.2248 15.1435 17.2474 15.17 17.2682C15.1945 17.2852 15.2153 17.306 15.2323 17.3305C15.2512 17.3589 15.2758 17.4193 15.3155 17.5232L15.6255 18.328C15.6652 18.4319 15.7653 18.4999 15.875 18.4999C15.9865 18.4999 16.0848 18.4319 16.1244 18.328L16.4344 17.5232C16.4741 17.4212 16.4968 17.3589 16.5176 17.3305C16.5346 17.306 16.5554 17.2852 16.58 17.2682C16.6083 17.2493 16.6707 17.2248 16.7727 17.1851L17.5779 16.8753C17.6819 16.8356 17.7499 16.7355 17.7499 16.6259C17.7499 16.5144 17.6819 16.4162 17.5779 16.3765L17.5798 16.3746Z" fill="white"/>
</svg>
