<svg width="24" height="24" viewBox="0 0 24 24" fill="none" xmlns="http://www.w3.org/2000/svg">
<path d="M21.0666 11.9999C21.0666 6.99254 17.0075 2.93351 12.0002 2.93351C6.99278 2.93351 2.93376 6.99254 2.93376 11.9999C2.93376 17.0073 6.99278 21.0663 12.0002 21.0663V22.6666C6.10913 22.6666 1.3335 17.891 1.3335 11.9999C1.3335 6.10888 6.10913 1.33325 12.0002 1.33325C17.8912 1.33325 22.6668 6.10888 22.6668 11.9999C22.6668 17.891 17.8912 22.6666 12.0002 22.6666V21.0663C17.0075 21.0663 21.0666 17.0073 21.0666 11.9999Z" fill="white"/>
<path d="M13.2409 10.1172L10.1863 10.5L10.0769 11.0078L10.6784 11.1172C11.0691 11.2109 11.1472 11.3516 11.0612 11.7422L10.0769 16.3672C9.81906 17.5625 10.2175 18.125 11.155 18.125C11.8816 18.125 12.7253 17.7891 13.1081 17.3281L13.2253 16.7734C12.9597 17.0078 12.5691 17.1016 12.3113 17.1016C11.9441 17.1016 11.8113 16.8438 11.905 16.3906L13.2409 10.1172Z" fill="white"/>
<path d="M12 8.66667C12.7364 8.66667 13.3333 8.06971 13.3333 7.33333C13.3333 6.59695 12.7364 6 12 6C11.2636 6 10.6667 6.59695 10.6667 7.33333C10.6667 8.06971 11.2636 8.66667 12 8.66667Z" fill="white"/>
</svg>
