<svg width="284" height="140" viewBox="0 0 284 140" fill="none" xmlns="http://www.w3.org/2000/svg">
<path d="M229.915 74.3343L225.757 70.3042C221.621 73.4601 216.674 75.038 210.916 75.038C207.462 75.038 204.455 74.4836 201.896 73.3748C199.337 72.2233 197.354 70.624 195.947 68.577C194.582 66.4872 193.9 64.0564 193.9 61.2843C193.9 58.4696 194.646 55.9321 196.139 53.6718C197.674 51.3688 199.956 49.4923 202.984 48.0423C201.875 46.6776 201.086 45.3769 200.617 44.1401C200.148 42.8607 199.913 41.4747 199.913 39.982C199.913 37.8497 200.468 35.9092 201.576 34.1607C202.685 32.4121 204.284 31.0474 206.374 30.0665C208.507 29.043 211.023 28.5312 213.923 28.5312C216.865 28.5312 219.36 29.0643 221.407 30.1305C223.454 31.1967 224.99 32.6254 226.013 34.4166C227.037 36.2077 227.506 38.1695 227.421 40.3019H217.121C217.164 39.1504 216.865 38.2761 216.226 37.6791C215.629 37.0394 214.818 36.7195 213.795 36.7195C212.771 36.7195 211.918 37.018 211.236 37.6151C210.554 38.2122 210.212 38.9798 210.212 39.918C210.212 40.8136 210.49 41.7519 211.044 42.7328C211.641 43.7136 212.558 44.8438 213.795 46.1232L224.734 56.8063C224.819 56.5931 224.926 56.3372 225.054 56.0387C225.224 55.7402 225.395 55.399 225.565 55.0152L227.932 50.985H238.871L235.801 56.5505C234.649 59.0666 233.327 61.4549 231.835 63.7152L242.646 74.3343H229.915ZM211.428 66.21C214.285 66.21 216.823 65.3997 219.04 63.7792L209.061 54.1196C205.99 55.6975 204.455 57.8299 204.455 60.5166C204.455 62.1372 205.073 63.5019 206.31 64.6108C207.59 65.677 209.296 66.21 211.428 66.21Z" fill="black"/>
<path d="M185.849 74.062H175.146L157.246 46.9619V74.062H146.544V30.126H157.246L175.146 57.3513V30.126H185.849V74.062Z" fill="black"/>
<path d="M125.263 38.7004V47.5877H139.596V55.8492H125.263V65.4876H141.473V74.062H114.561V30.126H141.473V38.7004H125.263Z" fill="black"/>
<path d="M93.2805 38.7004V47.5877H107.613V55.8492H93.2805V65.4876H109.49V74.062H82.5781V30.126H109.49V38.7004H93.2805Z" fill="black"/>
<path d="M61.8471 74.5C58.6343 74.5 55.7553 73.9784 53.2101 72.9353C50.6649 71.8922 48.6204 70.3484 47.0765 68.3039C45.5745 66.2594 44.7817 63.7976 44.6982 60.9186H56.0891C56.256 62.5459 56.8192 63.7976 57.7789 64.6739C58.7386 65.5083 59.9903 65.9256 61.5341 65.9256C63.1197 65.9256 64.3714 65.5709 65.2893 64.8616C66.2073 64.1106 66.6663 63.0883 66.6663 61.7949C66.6663 60.71 66.2907 59.8129 65.5397 59.1036C64.8304 58.3943 63.9333 57.8102 62.8485 57.3512C61.8053 56.8922 60.3032 56.3707 58.3422 55.7865C55.5049 54.9103 53.1892 54.0341 51.395 53.1579C49.6009 52.2816 48.0571 50.9882 46.7636 49.2775C45.4701 47.5668 44.8234 45.3345 44.8234 42.5807C44.8234 38.4917 46.3046 35.2997 49.2671 33.0049C52.2295 30.6683 56.0891 29.5 60.8457 29.5C65.6857 29.5 69.587 30.6683 72.5494 33.0049C75.5119 35.2997 77.0974 38.5125 77.306 42.6433H65.7274C65.644 41.2246 65.1224 40.1189 64.1628 39.3261C63.2031 38.4917 61.9722 38.0744 60.4701 38.0744C59.1767 38.0744 58.1336 38.4291 57.3408 39.1384C56.548 39.806 56.1516 40.7865 56.1516 42.08C56.1516 43.4986 56.8192 44.6043 58.1544 45.3971C59.4896 46.1898 61.5758 47.0452 64.4131 47.9631C67.2504 48.9228 69.5453 49.8407 71.2977 50.717C73.0918 51.5932 74.6357 52.8658 75.9291 54.5348C77.2226 56.2038 77.8693 58.3526 77.8693 60.9812C77.8693 63.4847 77.2226 65.7587 75.9291 67.8032C74.6774 69.8477 72.8415 71.475 70.4215 72.685C68.0014 73.895 65.1433 74.5 61.8471 74.5Z" fill="black"/>
<path d="M56.3862 11.7506C57.3622 11.9586 58.1462 12.4466 58.7382 13.2146C59.3302 13.9666 59.6262 14.8306 59.6262 15.8066C59.6262 17.2146 59.1302 18.3346 58.1382 19.1666C57.1622 19.9826 55.7942 20.3906 54.0342 20.3906H46.1862V3.54262H53.7702C55.4822 3.54262 56.8182 3.93462 57.7782 4.71862C58.7542 5.50262 59.2422 6.56662 59.2422 7.91062C59.2422 8.90262 58.9782 9.72662 58.4502 10.3826C57.9382 11.0386 57.2502 11.4946 56.3862 11.7506ZM50.2902 10.3586H52.9782C53.6502 10.3586 54.1622 10.2146 54.5142 9.92662C54.8822 9.62262 55.0662 9.18262 55.0662 8.60662C55.0662 8.03062 54.8822 7.59062 54.5142 7.28662C54.1622 6.98263 53.6502 6.83063 52.9782 6.83063H50.2902V10.3586ZM53.3142 17.0786C54.0022 17.0786 54.5302 16.9266 54.8982 16.6226C55.2822 16.3026 55.4742 15.8466 55.4742 15.2546C55.4742 14.6626 55.2742 14.1986 54.8742 13.8626C54.4902 13.5266 53.9542 13.3586 53.2662 13.3586H50.2902V17.0786H53.3142ZM66.5906 6.83063V10.2386H72.0866V13.4066H66.5906V17.1026H72.8066V20.3906H62.4866V3.54262H72.8066V6.83063H66.5906ZM88.0709 3.54262V6.83063H83.6069V20.3906H79.5029V6.83063H75.0389V3.54262H88.0709ZM113.795 3.54262L109.403 20.3906H104.435L101.747 9.30262L98.9626 20.3906H93.9946L89.7226 3.54262H94.1146L96.5386 15.8066L99.5386 3.54262H104.051L106.931 15.8066L109.379 3.54262H113.795ZM120.437 6.83063V10.2386H125.933V13.4066H120.437V17.1026H126.653V20.3906H116.333V3.54262H126.653V6.83063H120.437ZM133.901 6.83063V10.2386H139.397V13.4066H133.901V17.1026H140.117V20.3906H129.797V3.54262H140.117V6.83063H133.901ZM158.334 20.3906H154.23L147.366 9.99862V20.3906H143.262V3.54262H147.366L154.23 13.9826V3.54262H158.334V20.3906ZM190.538 3.54262L186.146 20.3906H181.178L178.49 9.30262L175.706 20.3906H170.738L166.466 3.54262H170.858L173.282 15.8066L176.282 3.54262H180.794L183.674 15.8066L186.122 3.54262H190.538ZM207.669 3.54262V20.3906H203.565V13.4546H197.181V20.3906H193.077V3.54262H197.181V10.1426H203.565V3.54262H207.669ZM221.599 17.4146H215.311L214.303 20.3906H210.007L216.103 3.54262H220.855L226.951 20.3906H222.607L221.599 17.4146ZM220.543 14.2466L218.455 8.07862L216.391 14.2466H220.543ZM241.407 3.54262V6.83063H236.943V20.3906H232.839V6.83063H228.375V3.54262H241.407ZM244.882 3.54262H249.082L246.394 9.97462H243.634L244.882 3.54262ZM258.069 20.5586C256.837 20.5586 255.733 20.3586 254.757 19.9586C253.781 19.5586 252.997 18.9666 252.405 18.1826C251.829 17.3986 251.525 16.4546 251.493 15.3506H255.861C255.925 15.9746 256.141 16.4546 256.509 16.7906C256.877 17.1106 257.357 17.2706 257.949 17.2706C258.557 17.2706 259.037 17.1346 259.389 16.8626C259.741 16.5746 259.917 16.1826 259.917 15.6866C259.917 15.2706 259.773 14.9266 259.485 14.6546C259.213 14.3826 258.869 14.1586 258.453 13.9826C258.053 13.8066 257.477 13.6066 256.725 13.3826C255.637 13.0466 254.749 12.7106 254.061 12.3746C253.373 12.0386 252.781 11.5426 252.285 10.8866C251.789 10.2306 251.541 9.37462 251.541 8.31862C251.541 6.75062 252.109 5.52662 253.245 4.64662C254.381 3.75062 255.861 3.30262 257.685 3.30262C259.541 3.30262 261.037 3.75062 262.173 4.64662C263.309 5.52662 263.917 6.75862 263.997 8.34262H259.557C259.525 7.79862 259.325 7.37462 258.957 7.07062C258.589 6.75062 258.117 6.59062 257.541 6.59062C257.045 6.59062 256.645 6.72662 256.341 6.99862C256.037 7.25462 255.885 7.63062 255.885 8.12662C255.885 8.67062 256.141 9.09462 256.653 9.39862C257.165 9.70262 257.965 10.0306 259.053 10.3826C260.141 10.7506 261.021 11.1026 261.693 11.4386C262.381 11.7746 262.973 12.2626 263.469 12.9026C263.965 13.5426 264.213 14.3666 264.213 15.3746C264.213 16.3346 263.965 17.2066 263.469 17.9906C262.989 18.7746 262.285 19.3986 261.357 19.8626C260.429 20.3266 259.333 20.5586 258.069 20.5586Z" fill="black"/>
<path d="M282.989 90.6376C282.904 91.831 283.842 92.7686 280.347 94.1324C278.642 94.8143 277.023 95.3258 275.233 95.9225C274.636 96.3486 274.039 96.4339 273.528 96.4339C272.931 96.4339 272.675 96.6044 272.846 97.201C272.846 97.201 272.59 97.2863 272.335 97.4568L263.129 101.207C260.657 102.145 257.929 103.168 255.713 103.935C254.349 104.702 253.156 105.043 251.962 105.384C250.599 105.895 249.235 105.895 247.786 105.64C247.445 105.384 246.763 105.043 246.337 104.787C245.911 104.361 245.229 103.679 244.888 103.168C244.547 102.656 244.376 102.145 244.376 101.548C244.291 98.7353 244.376 95.9225 245.314 93.2801C245.74 92.4277 245.996 91.49 246.166 90.7229C246.337 90.2967 246.422 89.5295 246.422 88.8476C246.422 88.251 246.337 88.1657 245.911 88.5919C243.865 89.2738 241.904 90.041 240.114 90.7229C239.006 91.2343 238.324 91.831 237.301 92.3424C235.938 93.28 234.489 94.1324 233.125 95.1553C232.613 95.6667 231.505 95.6667 230.994 96.4339C228.181 98.1387 225.879 100.44 223.578 102.656C223.152 102.997 222.726 103.509 222.385 103.85C221.617 105.043 220.509 106.066 219.146 106.748C218.805 107.089 218.634 107.43 218.293 107.771C218.037 107.856 217.356 107.856 217.015 107.515C216.333 106.322 215.565 105.043 216.333 103.594C216.588 102.912 216.929 101.889 217.356 101.207C217.782 100.184 218.293 99.4172 218.719 98.3944C218.805 98.1387 218.975 97.6272 219.401 97.2863C221.276 94.4734 222.726 91.2343 223.663 87.91C224.089 86.9724 224.686 86.7167 225.453 86.9724C226.391 87.4838 227.158 87.9952 227.755 88.8476C228.096 89.1886 227.84 89.3591 227.755 89.5295C227.073 90.3819 226.476 91.2343 226.391 92.3424C226.135 92.6834 225.879 93.0243 225.794 93.4505C224.771 95.2405 223.663 97.0306 222.896 98.7353C222.726 99.0763 222.385 99.5025 222.385 99.9287C222.555 99.9287 222.726 99.9287 222.896 99.8434C224.601 98.6501 226.135 97.6272 227.755 96.3486C229.545 94.8996 230.994 93.4505 233.125 92.4277C234.148 91.49 235.511 91.0638 236.619 90.3819C237.728 89.3591 239.006 88.8476 240.37 87.9952C241.393 87.7395 242.075 87.1429 242.842 86.7167C243.524 86.2052 244.547 85.8643 245.314 85.5233C246.166 85.0119 246.933 85.0971 247.701 85.0971C247.786 85.0971 248.127 85.3528 248.297 85.5233C248.723 86.12 249.405 86.8019 249.831 87.4838C249.917 87.7395 249.917 88.1657 249.831 88.5919C249.405 90.6376 248.894 92.6834 248.382 94.8143C248.127 96.3486 247.701 98.0534 247.36 99.5025C247.019 99.9287 246.933 100.525 246.933 101.122C246.763 102.06 247.36 102.315 248.382 102.145C250.769 102.06 252.9 101.292 254.946 100.781C256.48 99.8434 258.355 99.5025 259.975 98.7353C261.424 98.1387 262.703 97.4568 264.237 96.9453C266.283 96.3486 268.328 95.3258 270.204 94.8143C272.079 93.962 273.698 93.4505 275.659 92.6834C277.193 91.831 278.898 91.49 280.517 90.6376C281.029 90.2967 281.967 90.4672 282.734 90.3819C282.904 90.3819 282.989 90.4672 282.989 90.6376ZM281.029 92.8539C281.199 92.8539 281.199 92.7686 281.199 92.7686C281.029 92.6834 280.944 92.4277 280.944 92.6834C279.921 92.7686 279.154 93.0243 278.131 93.4505C278.046 93.5358 277.705 93.8767 277.449 93.7062C276.341 93.4505 275.488 94.1324 274.38 94.4734C274.039 94.4734 274.38 95.2405 273.528 95.2405C273.272 95.2405 272.931 95.3258 272.676 95.4963C272.249 95.6667 271.738 95.8372 271.482 95.8372C270.118 96.3486 268.755 96.6896 267.561 97.201C267.305 97.2863 266.964 97.4568 266.964 97.7125C267.561 98.0534 268.073 97.7125 268.669 97.6272C270.885 97.0306 272.846 95.8372 274.977 95.4963C275.062 95.3258 275.233 95.3258 275.488 95.2405C275.915 94.5586 276.767 94.8143 277.193 94.4734C278.813 94.2177 279.836 93.4505 281.029 92.8539ZM263.555 98.9911C264.237 98.9911 265.089 98.9911 265.601 98.3091C264.834 98.1387 264.152 98.3944 263.555 98.8206V98.9911ZM262.106 99.5025C262.617 99.673 263.129 99.673 263.384 99.0763C263.214 99.0763 262.958 98.9911 262.703 98.9911C262.447 98.9911 262.362 99.0763 262.106 99.5025ZM265.601 98.3091C266.197 98.3091 266.709 98.3944 266.879 97.7125H266.283C265.942 97.7125 265.601 98.0534 265.601 98.3091ZM254.008 102.571C254.264 102.571 254.52 102.571 254.69 102.145H253.752L253.667 102.315C253.752 102.315 253.752 102.571 254.008 102.571ZM255.372 102.06C255.713 102.06 255.883 102.06 255.883 101.804C255.713 101.804 254.946 101.548 254.775 102.06H255.372Z" fill="black"/>
<path d="M224.743 93.1946C225.34 93.5356 225.681 94.4732 225.169 94.8994C225.169 95.0699 224.743 95.1551 224.658 95.1551C223.209 95.3256 222.016 96.0075 220.566 96.6042C218.436 97.5418 216.305 98.309 214.259 99.1613C214.003 99.3318 213.662 99.3318 213.577 99.5023C211.872 100.781 209.741 101.122 207.951 102.145C206.076 102.912 204.201 103.764 202.411 104.617C199.853 106.066 197.041 107.089 194.057 107.515C193.546 107.685 193.205 107.685 192.864 108.111C191.159 108.793 189.71 108.197 188.261 107.685C187.323 107.43 186.641 107.003 186.045 106.407C185.022 105.639 184.596 104.531 184.255 103.509C183.914 101.633 183.914 101.292 184.255 99.758L184.851 98.6499C186.215 95.5813 188.261 93.1094 190.818 91.0637C193.205 88.8475 195.677 86.887 198.575 85.3527C199.342 84.756 200.535 84.2446 201.643 84.0741C202.411 83.7331 203.433 83.6479 204.201 83.3069C205.309 82.5398 206.246 82.3693 207.269 83.0512C207.44 83.3069 207.695 83.0512 208.036 83.3069C208.377 83.3922 208.889 83.4774 208.974 83.6479C209.656 84.2446 210.082 85.0969 210.338 85.5231C211.02 86.7165 211.02 87.9098 210.167 88.8475C209.059 90.2113 208.377 91.7456 206.673 92.4275L205.479 93.1946C203.178 95.0699 200.365 95.9223 197.552 96.3485C196.785 96.6894 195.847 96.6042 195.08 96.6042C193.972 96.6042 192.608 96.3485 191.244 96.3485C190.989 96.3485 190.818 96.3485 190.477 96.6894C189.113 98.6499 187.409 100.44 186.641 102.656C186.386 103.509 186.727 104.02 187.323 104.276C188.261 104.531 189.369 105.043 190.221 104.531C192.097 104.531 193.972 103.935 195.677 103.509C197.126 103.253 198.66 102.315 200.024 101.889C201.643 101.122 202.922 100.44 204.371 99.6728C204.797 100.184 204.797 100.184 205.223 99.6728C205.82 99.0761 206.587 98.6499 207.44 98.309C207.61 97.968 208.036 97.968 208.548 97.7975C211.361 96.6042 214.259 95.1551 216.901 94.047C217.754 93.5356 218.521 93.4503 219.373 93.1094C220.055 92.8537 220.907 92.4275 221.504 92.0013C222.612 91.6603 223.294 91.7456 223.976 92.6832C224.232 92.9389 224.487 93.1094 224.743 93.1946ZM192.352 94.2175C192.267 94.3027 191.756 94.8142 191.841 95.0699C192.097 95.3256 192.608 95.0699 192.864 95.0699C193.205 94.8994 193.546 94.8994 193.972 94.8994V95.0699C194.739 94.8994 195.762 94.8142 196.444 94.6437C197.467 94.3027 198.234 94.047 199.342 93.5356C201.643 92.8537 203.519 91.8308 205.309 90.467C206.246 89.9556 207.014 88.9327 207.44 87.9098C207.695 87.6541 207.695 87.1427 207.695 86.7165C207.951 86.2903 207.61 86.1198 207.269 85.7789C207.014 85.5231 206.673 85.8641 206.587 86.1198C206.502 86.4608 206.076 86.546 205.564 86.546C203.689 86.7165 201.814 87.2279 200.194 88.2508C198.063 89.2736 196.359 90.7227 194.654 92.0013L192.352 94.2175Z" fill="black"/>
<path d="M193.944 93.1946C194.541 93.5356 194.881 94.4732 194.37 94.8994C194.37 95.0699 193.944 95.1551 193.859 95.1551C192.41 95.3256 191.216 96.0075 189.767 96.6042C187.636 97.5418 185.505 98.309 183.459 99.1613C183.204 99.3318 182.863 99.3318 182.778 99.5023C181.073 100.781 178.942 101.122 177.152 102.145C175.277 102.912 173.401 103.764 171.611 104.617C169.054 106.066 166.241 107.089 163.258 107.515C162.746 107.685 162.405 107.685 162.065 108.111C160.36 108.793 158.911 108.197 157.462 107.685C156.524 107.43 155.842 107.003 155.245 106.407C154.223 105.639 153.796 104.531 153.455 103.509C153.114 101.633 153.114 101.292 153.455 99.758L154.052 98.6499C155.416 95.5813 157.462 93.1094 160.019 91.0637C162.406 88.8475 164.877 86.887 167.776 85.3527C168.543 84.756 169.736 84.2446 170.844 84.0741C171.611 83.7331 172.634 83.6479 173.401 83.3069C174.509 82.5398 175.447 82.3693 176.47 83.0512C176.64 83.3069 176.896 83.0512 177.237 83.3069C177.578 83.3922 178.089 83.4774 178.175 83.6479C178.857 84.2446 179.283 85.0969 179.539 85.5231C180.22 86.7165 180.22 87.9098 179.368 88.8475C178.26 90.2113 177.578 91.7456 175.873 92.4275L174.68 93.1946C172.378 95.0699 169.566 95.9223 166.753 96.3485C165.986 96.6894 165.048 96.6042 164.281 96.6042C163.173 96.6042 161.809 96.3485 160.445 96.3485C160.189 96.3485 160.019 96.3485 159.678 96.6894C158.314 98.6499 156.609 100.44 155.842 102.656C155.586 103.509 155.927 104.02 156.524 104.276C157.462 104.531 158.57 105.043 159.422 104.531C161.297 104.531 163.173 103.935 164.877 103.509C166.326 103.253 167.861 102.315 169.225 101.889C170.844 101.122 172.123 100.44 173.572 99.6728C173.998 100.184 173.998 100.184 174.424 99.6728C175.021 99.0761 175.788 98.6499 176.64 98.309C176.811 97.968 177.237 97.968 177.748 97.7975C180.561 96.6042 183.459 95.1551 186.102 94.047C186.954 93.5356 187.721 93.4503 188.574 93.1094C189.256 92.8537 190.108 92.4275 190.705 92.0013C191.813 91.6603 192.495 91.7456 193.177 92.6832C193.432 92.9389 193.688 93.1094 193.944 93.1946ZM161.553 94.2175C161.468 94.3027 160.956 94.8142 161.042 95.0699C161.297 95.3256 161.809 95.0699 162.065 95.0699C162.405 94.8994 162.746 94.8994 163.173 94.8994V95.0699C163.94 94.8994 164.963 94.8142 165.645 94.6437C166.667 94.3027 167.435 94.047 168.543 93.5356C170.844 92.8537 172.719 91.8308 174.509 90.467C175.447 89.9556 176.214 88.9327 176.64 87.9098C176.896 87.6541 176.896 87.1427 176.896 86.7165C177.152 86.2903 176.811 86.1198 176.47 85.7789C176.214 85.5231 175.873 85.8641 175.788 86.1198C175.703 86.4608 175.277 86.546 174.765 86.546C172.89 86.7165 171.015 87.2279 169.395 88.2508C167.264 89.2736 165.559 90.7227 163.855 92.0013L161.553 94.2175Z" fill="black"/>
<path d="M158.55 95.2413C158.209 95.6675 158.039 95.6675 157.698 95.2413C157.357 95.2413 156.675 95.1561 156.334 95.497H156.59C156.59 95.5823 156.505 95.6675 156.419 95.6675H156.931V95.9232C156.334 96.3494 155.993 96.6051 155.226 96.9461C154.459 97.2018 153.692 97.628 152.839 98.3099C152.754 98.3099 152.413 98.3099 152.072 98.3951C150.879 99.077 149.6 99.6737 148.322 100.441C147.469 100.441 148.236 101.293 147.469 101.293C147.128 101.464 146.702 101.89 146.105 102.06C145.083 102.913 144.06 103.509 142.866 104.277C141.929 104.277 141.417 104.959 140.735 105.385C139.883 105.726 139.798 106.152 139.798 106.919C139.883 107.771 139.883 108.453 140.053 109.135C140.48 110.67 140.053 112.033 139.542 113.312C138.86 115.443 138.008 116.21 136.303 117.744C135.195 118.852 134.001 119.79 132.893 120.728C132.382 121.324 131.53 121.751 130.848 121.836C129.995 122.092 129.313 122.092 128.717 122.347C127.438 123.455 126.16 122.944 124.796 122.347C123.773 121.836 122.75 121.58 121.983 121.069C120.875 120.728 120.278 120.046 120.022 118.938C119.596 117.744 119.511 116.636 120.193 115.443C120.278 115.187 120.449 115.102 120.704 114.676C122.409 113.056 124.37 111.692 126.415 110.499C127.268 109.817 128.29 109.22 129.313 108.539C131.53 107.26 133.575 105.726 135.962 104.362C136.388 103.936 136.559 103.68 136.047 103.169C135.621 102.06 134.769 101.123 134.172 99.9294C133.064 98.1394 132.041 95.9232 130.848 94.1332C130.081 93.0251 130.081 91.8317 129.995 90.7236C129.91 89.8712 130.081 88.9336 130.848 88.1665C131.53 87.4846 132.638 86.7174 133.575 86.4617C135.024 86.3765 136.559 85.865 138.093 86.1207C140.224 86.206 141.588 87.3141 142.952 88.6779C143.463 89.1893 143.293 89.7008 142.866 90.0417C141.843 90.6384 140.48 90.4679 139.457 89.5303C139.201 89.2746 139.201 89.1893 139.031 89.5303C138.775 90.4679 138.434 90.6384 137.752 90.3827C136.9 89.8712 136.303 90.2974 135.621 90.4679C135.024 90.7236 134.513 91.2351 134.001 91.7465C133.405 92.1727 133.064 92.7694 133.405 93.5365C133.49 94.9003 134.172 96.0937 134.854 97.287C135.962 98.9918 137.07 100.526 137.752 102.146C138.093 102.998 138.349 102.998 139.201 102.572C141.417 101.123 143.889 99.8442 146.446 98.6508C146.702 98.3951 146.873 98.3099 147.214 98.3099C147.128 98.6508 146.873 98.8213 146.873 98.9918C147.725 99.077 148.236 98.6508 148.833 98.3099C148.918 98.3099 149.089 98.1394 149.174 98.0542C148.918 98.0542 148.577 97.7132 148.492 98.0542C147.981 98.1394 147.725 98.3099 147.214 98.3099C147.384 98.0542 147.469 97.7132 147.725 97.628C150.197 96.6051 152.754 95.497 155.141 94.2184H155.993V94.8151C155.567 94.9003 155.226 94.8151 155.141 95.2413C155.482 95.2413 155.823 95.2413 156.164 94.8151C156.334 94.5594 156.249 94.4741 156.164 94.2184C156.164 94.1332 156.249 93.9627 156.334 93.8775C157.698 93.2808 159.317 92.7694 160.681 92.4284C161.704 92.3432 161.534 92.3432 162.471 93.0251C162.812 93.2808 163.068 93.4513 162.897 93.8775L162.216 94.2184C161.704 94.4741 161.193 94.4741 160.852 94.5594C160.085 94.8151 159.744 94.8151 159.317 94.4741C159.062 94.2184 158.721 94.4741 158.636 94.8151H158.55C158.124 94.8151 157.954 94.8151 157.698 95.2413H158.55ZM135.024 115.187C137.07 113.056 138.263 110.67 137.496 107.43C136.047 108.283 134.769 108.965 133.575 109.902C131.785 111.522 129.995 112.715 127.95 113.823C126.245 114.676 124.881 115.784 123.773 117.148C123.688 117.318 123.432 117.574 123.432 117.744C123.347 117.915 123.432 118 123.688 118C124.199 118.256 125.051 118.341 125.733 118.597C126.671 118.852 127.523 118.852 128.546 118.597C128.887 118.597 129.313 118.341 129.74 118.341C131.444 118 132.808 117.574 133.831 116.21C134.172 115.784 134.598 115.613 135.024 115.187ZM145.509 100.782C146.446 101.123 146.873 100.782 147.214 99.9294H146.532C146.446 100.441 145.85 100.441 145.509 100.441C145.679 99.9294 146.02 99.9294 146.446 99.9294V99.6737C145.509 99.5032 144.997 99.5032 144.656 100.441H145.509V100.782ZM144.656 101.293C144.997 101.293 145.423 101.293 145.423 100.782H144.656V100.441C143.889 100.441 143.293 100.526 142.952 101.293H144.23L144.656 100.782V101.293ZM152.669 97.287C152.839 97.287 153.18 97.287 153.351 96.9461H152.669C152.669 96.6051 152.754 96.3494 152.839 96.0937C152.072 95.9232 151.646 96.3494 151.305 96.9461H152.669V97.287ZM140.821 102.572C141.588 102.572 142.355 102.146 142.866 101.293C141.843 101.549 141.247 101.805 140.821 102.572ZM155.141 95.497V95.2413H154.8C154.544 95.2413 154.544 95.3265 154.459 95.3265C154.544 95.497 154.544 95.497 154.8 95.497C154.885 95.6675 155.055 95.6675 155.141 95.6675V95.9232C155.567 95.9232 156.164 96.3494 156.334 95.6675V95.497H155.141ZM139.457 103.509C140.053 103.509 140.565 103.169 140.735 102.657C140.053 102.572 139.542 102.913 139.457 103.509ZM150.708 98.3099C151.305 98.3099 151.475 98.3099 151.646 97.7132C151.305 97.7132 150.879 97.7132 150.708 98.3099ZM135.621 105.64V105.726L135.706 105.896C135.962 105.726 136.303 105.64 136.559 105.385C136.559 105.385 136.559 105.299 136.388 105.299C136.047 105.299 135.877 105.299 135.621 105.64ZM147.214 99.9294C147.725 99.9294 147.981 100.1 148.236 99.6737C147.725 99.5032 147.384 99.5032 147.214 99.9294ZM148.236 99.5032C148.492 99.6737 148.918 99.5032 148.918 99.077C148.577 98.9918 148.322 98.9918 148.236 99.5032ZM149.856 98.6508C150.282 98.7361 150.623 98.7361 150.708 98.3099C150.282 98.3099 150.026 98.1394 149.856 98.6508Z" fill="black"/>
<path d="M131.241 90.6376C131.156 91.831 132.094 92.7686 128.599 94.1324C126.894 94.8143 125.275 95.3258 123.485 95.9225C122.888 96.3486 122.291 96.4339 121.78 96.4339C121.183 96.4339 120.927 96.6044 121.098 97.201C121.098 97.201 120.842 97.2863 120.586 97.4568L111.381 101.207C108.909 102.145 106.181 103.168 103.965 103.935C102.601 104.702 101.408 105.043 100.214 105.384C98.8506 105.895 97.4868 105.895 96.0377 105.64C95.6968 105.384 95.0148 105.043 94.5887 104.787C94.1625 104.361 93.4805 103.679 93.1396 103.168C92.7986 102.656 92.6282 102.145 92.6282 101.548C92.5429 98.7353 92.6282 95.9225 93.5658 93.2801C93.992 92.4277 94.2477 91.49 94.4182 90.7229C94.5887 90.2967 94.6739 89.5295 94.6739 88.8476C94.6739 88.251 94.5887 88.1657 94.1625 88.5919C92.1167 89.2738 90.1562 90.041 88.3662 90.7229C87.2581 91.2343 86.5762 91.831 85.5533 92.3424C84.1895 93.28 82.7405 94.1324 81.3766 95.1553C80.8652 95.6667 79.7571 95.6667 79.2457 96.4339C76.4328 98.1387 74.1313 100.44 71.8299 102.656C71.4037 102.997 70.9775 103.509 70.6366 103.85C69.8694 105.043 68.7613 106.066 67.3975 106.748C67.0565 107.089 66.886 107.43 66.5451 107.771C66.2894 107.856 65.6075 107.856 65.2665 107.515C64.5846 106.322 63.8174 105.043 64.5846 103.594C64.8403 102.912 65.1813 101.889 65.6075 101.207C66.0337 100.184 66.5451 99.4172 66.9713 98.3944C67.0565 98.1387 67.227 97.6272 67.6532 97.2863C69.5284 94.4734 70.9775 91.2343 71.9151 87.91C72.3413 86.9724 72.938 86.7167 73.7051 86.9724C74.6428 87.4838 75.4099 87.9952 76.0066 88.8476C76.3476 89.1886 76.0918 89.3591 76.0066 89.5295C75.3247 90.3819 74.728 91.2343 74.6428 92.3424C74.3871 92.6834 74.1313 93.0243 74.0461 93.4505C73.0232 95.2405 71.9151 97.0306 71.148 98.7353C70.9775 99.0763 70.6366 99.5025 70.6366 99.9287C70.807 99.9287 70.9775 99.9287 71.148 99.8434C72.8528 98.6501 74.3871 97.6272 76.0066 96.3486C77.7966 94.8996 79.2457 93.4505 81.3766 92.4277C82.3995 91.49 83.7633 91.0638 84.8714 90.3819C85.9795 89.3591 87.2581 88.8476 88.6219 87.9952C89.6448 87.7395 90.3267 87.1429 91.0939 86.7167C91.7758 86.2052 92.7986 85.8643 93.5658 85.5233C94.4182 85.0119 95.1853 85.0971 95.9525 85.0971C96.0377 85.0971 96.3787 85.3528 96.5491 85.5233C96.9753 86.12 97.6573 86.8019 98.0835 87.4838C98.1687 87.7395 98.1687 88.1657 98.0835 88.5919C97.6573 90.6376 97.1458 92.6834 96.6344 94.8143C96.3787 96.3486 95.9525 98.0534 95.6115 99.5025C95.2706 99.9287 95.1853 100.525 95.1853 101.122C95.0149 102.06 95.6115 102.315 96.6344 102.145C99.0211 102.06 101.152 101.292 103.198 100.781C104.732 99.8434 106.607 99.5025 108.227 98.7353C109.676 98.1387 110.955 97.4568 112.489 96.9453C114.535 96.3486 116.58 95.3258 118.456 94.8143C120.331 93.962 121.95 93.4505 123.911 92.6834C125.445 91.831 127.15 91.49 128.769 90.6376C129.281 90.2967 130.218 90.4672 130.986 90.3819C131.156 90.3819 131.241 90.4672 131.241 90.6376ZM129.281 92.8539C129.451 92.8539 129.451 92.7686 129.451 92.7686C129.281 92.6834 129.196 92.4277 129.196 92.6834C128.173 92.7686 127.406 93.0243 126.383 93.4505C126.297 93.5358 125.957 93.8767 125.701 93.7062C124.593 93.4505 123.74 94.1324 122.632 94.4734C122.291 94.4734 122.632 95.2405 121.78 95.2405C121.524 95.2405 121.183 95.3258 120.927 95.4963C120.501 95.6667 119.99 95.8372 119.734 95.8372C118.37 96.3486 117.006 96.6896 115.813 97.201C115.557 97.2863 115.216 97.4568 115.216 97.7125C115.813 98.0534 116.325 97.7125 116.921 97.6272C119.137 97.0306 121.098 95.8372 123.229 95.4963C123.314 95.3258 123.485 95.3258 123.74 95.2405C124.167 94.5586 125.019 94.8143 125.445 94.4734C127.065 94.2177 128.088 93.4505 129.281 92.8539ZM111.807 98.9911C112.489 98.9911 113.341 98.9911 113.853 98.3091C113.085 98.1387 112.404 98.3944 111.807 98.8206V98.9911ZM110.358 99.5025C110.869 99.673 111.381 99.673 111.636 99.0763C111.466 99.0763 111.21 98.9911 110.955 98.9911C110.699 98.9911 110.614 99.0763 110.358 99.5025ZM113.853 98.3091C114.449 98.3091 114.961 98.3944 115.131 97.7125H114.535C114.194 97.7125 113.853 98.0534 113.853 98.3091ZM102.26 102.571C102.516 102.571 102.772 102.571 102.942 102.145H102.004L101.919 102.315C102.004 102.315 102.004 102.571 102.26 102.571ZM103.624 102.06C103.965 102.06 104.135 102.06 104.135 101.804C103.965 101.804 103.198 101.548 103.027 102.06H103.624Z" fill="black"/>
<path d="M43.9832 94.8999C43.7275 94.8999 43.6423 94.8147 43.6423 94.559H42.9604L42.1932 95.5818C41.5965 96.0933 41.0851 96.5195 40.7442 97.2014C40.9146 97.2014 41.1703 97.1161 41.4261 96.9457C41.5113 96.9457 41.5113 96.9457 41.5965 97.1161V97.2866C41.2556 97.7981 40.9146 98.48 40.4032 98.8209C40.2327 99.3324 39.8918 98.9062 39.7213 98.8209C39.7213 98.5652 39.7213 98.3095 40.0622 98.2243C40.4884 97.9685 40.7442 97.6276 40.7442 97.2014C40.4032 97.2866 40.1475 97.6276 39.7213 97.5423V97.2866C39.5508 97.2866 39.4656 97.4571 39.3803 97.5423H39.7213C39.7213 97.7981 39.5508 97.8833 39.3803 97.8833C39.1246 98.48 38.6984 98.8209 38.187 99.1619C38.1017 99.2471 38.0165 99.1619 37.7608 99.2471C37.846 99.5881 37.6756 99.8438 37.4198 100.014L35.8003 101.719C36.056 101.89 36.397 101.634 36.4822 102.06C36.397 102.23 36.3117 102.23 36.3117 102.23C36.3117 102.316 36.397 102.316 36.4822 102.401C36.1413 103.083 35.6298 103.424 35.1184 103.765C34.6922 104.361 34.0955 104.702 33.7546 105.214C33.5841 105.555 33.3284 105.725 32.9874 105.725C32.6465 105.725 32.6465 105.811 32.7317 106.066C32.7317 106.151 32.7317 106.237 32.6465 106.407L28.896 109.987C28.8107 110.243 28.555 110.158 28.3845 110.243C28.3845 110.499 28.3845 110.669 28.214 110.84C27.7879 111.266 27.4469 111.692 27.0207 112.033C25.9978 112.885 25.3159 113.738 24.3783 114.42C23.9521 114.675 23.6112 115.102 23.2702 115.528C23.0145 115.783 22.7588 115.869 22.6735 116.124C22.2473 116.806 21.4802 117.147 20.9687 117.744C20.5426 118.426 19.8606 118.852 19.1787 119.193C18.923 119.278 18.8378 119.534 18.5821 119.79C17.9002 120.472 17.133 120.898 16.3659 121.153C15.4282 121.324 14.6611 121.58 13.8087 121.58C12.7006 121.58 12.0187 120.983 11.1663 120.557C10.8253 119.875 9.97294 119.449 9.8877 118.596C9.80246 118.426 9.80246 118.255 9.80246 118.17C8.7796 117.062 9.20579 115.783 9.29103 114.505C9.80246 112.715 10.2287 111.181 11.1663 109.646L11.5072 108.623C11.5925 108.282 11.6777 107.941 11.9334 107.771C12.3596 107.174 12.7006 106.407 12.9563 105.555C13.1268 105.043 13.6382 104.788 13.8087 104.361C14.0644 103.85 14.1496 103.168 14.4906 102.912C15.1725 102.23 15.4282 101.293 16.0249 100.526C16.7068 99.5028 17.2182 98.48 17.8149 97.4571C18.0706 97.1161 18.2411 96.6047 18.7525 96.2638C18.923 96.0933 18.5821 95.8376 18.8378 95.5818C18.923 95.4966 19.264 95.4966 19.0935 95.2409C19.0935 95.1557 19.1787 95.0704 19.1787 95.0704C19.5197 94.8999 19.7754 94.7295 19.8606 94.3885C20.1164 94.1328 20.4573 93.8771 20.5426 93.5361L20.9687 92.6837C21.2245 92.428 21.3097 92.0871 21.5654 91.7461C21.8211 91.3199 21.9064 90.7232 22.4178 90.5528C22.6735 90.5528 22.7588 90.2118 22.7588 90.0413C22.7588 89.7004 22.9292 89.5299 23.0997 89.2742C23.4407 88.9332 23.7816 88.6775 24.0373 88.9332C24.2931 89.2742 23.9521 89.5299 23.7816 89.7004C23.3554 90.5528 22.6735 91.0642 22.4178 91.9166C21.3097 93.1952 20.6278 94.8147 19.6049 96.1785C19.0935 96.8604 18.4968 97.5423 18.1559 98.3095C17.9002 99.1619 17.3887 99.8438 17.0478 100.611L16.1101 101.975C15.7692 102.316 15.5135 102.912 15.343 103.339L12.9563 107.601C12.7858 107.856 12.7858 108.112 12.7858 108.197C12.9563 108.112 13.1268 108.112 13.2973 107.856C13.9792 106.748 14.6611 105.725 15.343 104.447C15.5135 103.85 16.0249 103.424 16.1954 102.742C16.3659 102.23 16.792 101.719 17.133 101.208H17.2182C17.3887 101.037 17.2182 100.952 17.3887 100.867C17.9002 100.014 18.2411 98.9914 18.923 98.2243C19.6049 97.5423 20.1164 96.6047 20.5426 95.7523L21.9064 93.7918C21.9064 93.7066 22.1621 93.7066 22.2473 93.7066C22.1621 93.7918 22.1621 94.0476 22.1621 94.218C21.9916 94.3885 21.9064 94.4737 22.1621 94.559C22.5883 94.8999 22.6735 94.8147 23.0997 94.218C23.0145 94.218 23.0145 94.1328 22.9292 94.1328C23.0145 94.0476 23.0145 94.0476 23.0997 94.0476V94.218C23.2702 94.218 23.2702 94.1328 23.3554 94.0476H23.0997C23.3554 93.7066 23.3554 93.1952 23.7816 93.0247C23.7816 93.1099 23.7816 93.3656 24.0373 93.1099C23.9521 93.1099 23.9521 93.1099 23.7816 93.0247L24.1226 92.3428C24.2931 91.9166 24.1226 91.3199 24.975 91.6609L25.4012 90.979C25.4864 90.7232 25.8274 90.7232 26.0831 90.7232C26.0831 90.638 25.9978 90.5528 25.9978 90.5528C25.7421 90.297 25.7421 90.0413 26.0831 90.0413H26.424C26.3388 89.9561 26.1683 89.8708 26.1683 89.6151C25.9978 89.2742 26.1683 88.9332 26.6797 88.9332C26.765 88.9332 27.0207 89.0185 27.0207 88.848C27.0207 88.3366 27.3617 87.9956 27.5321 87.6546C27.7879 87.4842 27.7026 86.8875 28.214 86.8023C28.555 85.9499 29.0664 85.268 29.5779 84.586C29.7483 84.5008 29.5779 84.2451 29.7483 84.1598C29.7483 83.9041 30.1745 83.8189 30.4303 83.9041C30.5155 83.9041 30.6007 84.2451 30.6007 84.2451C30.0893 84.927 29.4926 85.6089 29.1517 86.4613C28.3845 87.1432 28.0436 88.2513 27.4469 89.0185C27.1059 89.5299 26.8502 89.8708 26.424 90.0413C26.424 90.3823 26.5093 90.638 26.0831 90.7232C26.0831 91.3199 25.7421 91.6609 25.4864 92.0018C25.0602 92.769 24.634 93.4509 24.0373 94.1328C22.9292 95.7523 21.9916 97.5423 20.8835 99.1619L19.6049 101.293L19.4345 101.719C18.5821 102.401 18.4968 103.424 17.8149 104.106C18.0706 104.532 17.5592 104.788 17.3887 105.129C17.2182 105.555 16.8773 105.896 16.8773 106.407C16.8773 106.492 16.792 106.748 16.7068 106.748C16.0249 107.089 15.8544 107.601 15.6839 108.282C15.6839 108.538 15.343 108.794 15.1725 108.964C15.1725 109.135 15.343 109.305 15.1725 109.561L14.1496 110.925C14.4054 111.607 13.9792 112.033 13.7234 112.544C13.2973 113.312 13.0415 114.334 12.7858 115.187C12.7006 115.698 12.4449 116.124 12.4449 116.551C12.4449 116.892 12.0187 117.147 12.3596 117.488C12.6153 117.829 12.1039 118.085 12.1039 118.426C12.2744 118.511 12.3596 118.596 12.4449 118.596C12.9563 118.767 13.3825 118.596 13.8087 118.426C15.343 117.744 16.7068 117.147 17.9001 116.21C18.2411 116.039 18.5821 115.869 18.923 115.783C19.264 115.528 19.5197 115.442 19.6049 115.102C19.7754 115.102 19.8606 115.016 19.9459 114.761C20.5426 114.761 20.8835 114.334 21.2245 113.738H20.5426C21.2245 112.885 22.1621 112.203 22.9292 111.266L23.3554 110.925C23.6112 110.84 23.7816 110.925 23.7816 111.181C24.975 110.669 25.7421 109.902 26.424 108.879H25.7421C25.8274 108.538 26.0831 108.282 26.424 108.282V108.879L27.1912 108.197L32.6465 102.742C32.7317 102.742 32.9022 102.571 32.9022 102.401H32.5612C32.5612 102.401 32.3907 102.316 32.3055 102.316L32.5612 101.975L32.9022 101.719V102.401L34.9479 100.867C35.1184 100.696 35.1184 100.355 35.1184 100.185C34.7774 100.27 34.607 100.526 34.266 100.526C34.4365 99.8438 35.0331 99.5028 35.6298 98.9914H35.7151C35.7151 99.1619 35.8003 99.2471 35.7151 99.2471C35.7151 99.5028 35.6298 99.6733 35.4593 99.8438C35.7151 99.8438 35.9708 99.8438 36.056 99.6733L37.5051 98.3095C38.187 97.6276 38.7837 96.9457 39.7213 96.4342C40.1475 96.1785 40.4884 95.5819 40.8294 95.2409C41.1703 94.8999 41.4261 94.559 41.8523 94.4737C42.3637 94.1328 42.7046 93.5361 42.9604 93.0247H43.3866C44.5799 91.9166 45.7732 91.0642 46.7961 89.8708V89.7004H46.6256C46.4552 89.7004 46.3699 89.6151 46.2847 89.6151C46.3699 89.5299 46.3699 89.3594 46.4552 89.3594C46.6256 89.2742 46.7109 89.1889 46.7961 89.1889V89.7004C47.6485 89.5299 48.1599 88.9332 48.8418 88.507L52.4219 85.268C52.5923 85.0975 52.6776 84.8418 52.6776 84.586C52.5071 84.586 52.2514 84.5008 52.0809 84.5008C52.1662 84.0746 52.5923 83.9041 52.8481 83.5632C53.53 83.0517 54.0414 82.3698 54.3824 81.6027C54.5528 81.2617 54.7233 81.0913 55.0643 81.006C55.32 80.9208 55.5757 80.7503 55.7462 80.9208C56.2576 81.0913 56.5986 81.2617 57.0248 81.347C57.451 81.4322 57.9624 81.7732 58.3034 82.2846C58.4738 82.4551 58.6443 82.796 58.4738 83.137C58.1329 83.9041 57.7919 84.7565 57.11 85.4384C56.3429 86.5465 55.6609 87.5694 55.2347 88.9332C55.0643 89.6151 54.7233 90.2118 54.5528 90.8937C54.3824 91.4051 54.0414 92.0018 53.8709 92.6837C53.8709 92.8542 53.6152 93.0247 53.7005 93.1952C53.7005 93.7918 53.53 94.1328 53.3595 94.559C53.3595 94.8147 53.6152 95.0704 53.6152 95.1557C53.2743 95.8376 53.6152 96.2638 53.6152 96.8604C53.7005 97.4571 53.9562 97.7981 54.5528 97.8833C55.5757 98.2243 56.4281 98.3095 57.451 97.8833C59.1557 97.7981 60.69 96.8604 62.1391 95.9228L64.6963 94.218C64.952 94.1328 65.2077 94.0476 65.2929 93.7918L69.1287 90.3823C69.3844 90.2118 69.4696 89.9561 69.7254 89.8708C69.8106 89.7004 70.0663 89.7004 70.1515 89.7004C70.322 89.5299 70.322 89.2742 70.4073 89.1889C70.7482 88.6775 71.1744 88.3366 71.5154 87.9956C71.5154 87.9956 71.6859 87.9956 71.7711 87.9104C71.7711 87.9956 71.8563 88.2513 71.8563 88.2513C71.3449 88.848 71.0039 89.3594 70.322 89.7004C70.322 90.0413 70.1516 90.297 70.4925 90.3823C70.322 91.3199 69.7253 92.5985 69.0434 92.8542C68.6172 93.1952 68.3615 93.7066 68.0206 93.8771C67.6796 94.1328 67.5944 94.559 67.3387 94.8999L66.9977 95.4966C65.6339 96.6047 64.611 98.139 62.9062 98.9062C62.3948 99.5881 61.4572 100.014 60.69 100.355C60.1786 100.611 59.8377 101.037 59.4967 101.293C59.4114 101.378 59.0705 101.549 58.9853 101.378C58.3033 101.037 57.7067 101.208 57.0248 101.208C56.9395 101.208 56.6838 101.208 56.5986 101.037C55.32 100.355 53.8709 100.27 52.9333 98.9914C52.0809 98.5652 51.5695 97.7981 51.2285 96.8604C51.058 96.1785 51.058 95.4966 50.7171 94.8147C50.3761 94.218 50.5466 93.5361 50.2057 93.0247V92.6837C50.5466 92.0018 50.3761 91.3199 50.7171 90.638C50.8876 90.2118 50.8876 89.6151 51.058 89.1889V88.9332H50.8023L50.3761 89.2742C50.1204 89.5299 50.1204 89.2742 50.1204 89.0185V88.848C49.7795 88.9332 49.5238 89.0185 49.4385 89.3594L49.1828 89.6151C49.1828 89.6151 49.3533 89.5299 49.4385 89.5299C49.5238 89.5299 49.7795 89.6151 49.7795 89.7004C49.7795 89.8708 49.6942 89.9561 49.5237 90.0413H49.0976V89.7004C49.0123 89.7004 48.7566 89.7004 48.6714 89.8708C47.9894 90.3823 47.3928 90.979 46.7961 91.6609C46.7109 91.7461 46.3699 91.7461 46.2847 91.9166C46.1142 92.3428 45.688 92.5985 45.2618 92.8542C44.5799 93.3656 43.9832 93.7918 43.6423 94.559H44.2389C44.0685 94.7295 44.0685 94.8999 43.9832 94.8999ZM36.7379 72.3117L36.8232 72.1412C36.8232 72.3117 36.8232 72.3117 36.7379 72.3117C37.0789 72.3117 37.3346 72.1412 37.4198 72.4821C37.0789 72.7378 36.8232 72.9083 36.7379 73.2493C36.7379 73.505 36.4822 73.5902 36.397 73.7607C36.056 73.9312 35.9708 73.846 35.8003 73.505H35.4593C35.4593 73.0788 35.6298 72.7378 36.1413 72.4821C36.1413 72.3969 36.056 72.1412 36.1413 72.0559L37.5051 70.0102C37.5051 70.0102 37.6756 70.0102 37.7608 69.925C37.6756 69.4135 38.0165 69.0726 38.187 68.7316C39.0394 67.6235 39.7213 66.3449 40.4884 65.1516C40.9146 64.5549 41.1703 63.873 41.2556 63.1911C41.1703 63.2763 40.9146 63.2763 40.8294 63.5321C40.4032 64.6402 39.4656 65.663 38.6984 66.8564L37.846 67.8792C37.6756 68.0497 37.7608 68.5611 37.5051 68.9021C37.3346 69.2431 37.1641 69.4135 36.7379 69.6693C36.4822 69.7545 36.4822 70.0102 36.397 70.2659H36.4822V70.3512C36.4822 70.3512 36.6527 70.3512 36.7379 70.4364C36.4822 70.6069 36.4822 70.4364 36.4822 70.3512L36.397 70.2659C36.3117 70.4364 36.056 70.6921 35.8003 70.7774C35.6298 71.0331 35.3741 71.1183 35.1184 71.2888C35.2889 71.0331 35.2889 70.7774 35.3741 70.6921L38.4427 65.8335C38.8689 64.8959 39.5508 64.214 40.0622 63.2763C40.0622 63.1911 40.1475 63.1911 40.1475 63.1059C41.2556 60.8044 42.7046 58.9292 43.7275 56.6277L45.2618 53.3034C45.6028 52.451 45.688 51.5134 45.6028 50.4905C45.4323 50.32 45.347 50.1496 45.0913 50.1496C44.3242 50.1496 43.6423 50.0643 42.8751 50.4053C41.8523 50.4053 40.9146 50.8315 39.8918 51.0872C38.4427 51.6839 36.9936 52.1953 35.6298 53.1329L34.9479 53.5591C34.607 53.6444 34.0955 53.9001 33.6693 53.9001C33.3284 53.9853 33.2431 54.4967 32.9022 54.6672C31.8793 55.0082 31.1122 55.6901 30.1745 56.372C29.2369 56.9687 28.214 57.3949 27.4469 58.2472L26.3388 59.0996C25.9978 59.4406 25.7421 59.952 25.4012 60.0373C23.6112 60.8044 22.5883 62.4239 21.2245 63.6173C20.6278 64.1287 20.2016 64.6402 19.6049 65.2368C18.1559 66.6007 16.792 68.2202 15.5135 69.7545C15.5135 70.0102 15.4282 70.0954 15.343 70.2659C14.0644 71.4593 12.9563 72.8231 12.0187 74.2721C11.6777 74.7836 11.5072 75.2098 10.9958 75.5507C10.6549 75.8917 10.5696 76.3179 10.2287 76.8293C9.97294 77.2555 9.80246 77.8522 9.46151 78.1931C8.7796 78.875 8.43864 79.8979 7.84197 80.5798L7.50102 81.0913C6.73387 82.6255 6.13719 84.2451 5.11433 85.6089L3.75051 89.2742C4.09146 89.9561 3.66527 90.5528 3.40955 91.2347V91.6609C3.40955 92.428 3.15384 93.1952 3.0686 94.0476C2.98336 94.218 2.72764 94.559 2.81288 94.8147C3.0686 95.4114 2.98336 95.9228 3.0686 96.5195C3.15384 96.8604 3.40955 97.1161 3.49479 97.2866C3.66527 97.4571 3.49479 97.6276 3.49479 97.7981C3.40955 97.8833 3.32431 97.8833 3.15384 97.8833C2.72764 97.7981 2.30145 97.6276 1.96049 97.2014C1.5343 96.7752 1.19334 96.2638 0.852388 95.8376C0.340955 95.0704 0 94.1328 0 93.1099C0 91.3199 0.340955 89.6151 1.19334 87.9956C1.19334 87.8251 1.27858 87.9104 1.36382 87.9956C1.5343 88.2513 1.5343 88.5923 1.70478 87.9956C1.96049 87.6546 2.04573 87.2284 2.04573 86.8875C1.87525 86.8875 1.70478 87.1432 1.70478 87.2284L1.61954 87.3137C1.5343 87.3137 1.5343 87.3137 1.5343 87.2284C1.5343 87.1432 1.36382 86.9727 1.36382 86.9727L2.13097 85.4384C2.13097 85.268 2.13097 85.268 2.30145 85.268V85.4384C2.38669 85.6089 2.38669 85.7794 2.38669 85.9499L2.47193 86.1203H2.6424C2.72764 85.7794 2.98336 85.5237 2.98336 85.1827C3.0686 84.586 3.40955 84.0746 3.75051 83.5632L4.00622 83.3927C4.1767 82.1141 5.11433 81.2617 5.711 80.2389L7.50102 76.9145C7.58625 76.6588 7.75673 76.4884 7.92721 76.2326C8.18293 75.8917 8.60912 75.5507 8.60912 74.9541C8.60912 74.7836 8.7796 74.5279 8.95008 74.2721C9.46151 73.846 9.80246 73.164 10.2287 72.6526C11.2515 71.4593 12.1039 70.0954 13.1268 68.9021L13.6382 68.2202L17.9001 63.6173C18.0706 63.4468 18.1559 63.1911 18.4116 62.9354C18.4968 62.8501 18.7525 62.8501 18.923 62.7649C18.923 62.3387 19.0935 62.3387 19.6049 62.1682C19.6049 62.3387 19.6049 62.4239 19.8606 62.3387C19.7754 62.3387 19.6049 62.1682 19.6049 62.1682C19.7754 61.6568 20.2016 61.4011 20.5426 60.9749C20.7983 60.8044 20.9687 61.1454 21.1392 61.0601C21.2245 60.8044 21.2245 60.6339 21.2245 60.4635C21.3097 60.293 21.5654 60.1225 21.8211 60.293C21.9064 60.3782 21.9916 60.4635 22.1621 60.4635C22.1621 59.952 22.3326 59.4406 22.5883 59.0996C22.6735 58.9292 22.9292 58.9292 23.0997 59.2701C23.0145 59.2701 22.7588 59.2701 23.0145 59.4406C23.0145 59.3554 23.0997 59.3554 23.0997 59.2701C23.2702 59.0996 23.3554 59.0996 23.3554 59.0996C23.4407 58.4177 23.7816 57.9915 24.2931 57.6506L26.1683 56.2868C26.5093 56.031 26.8502 55.6901 27.1059 55.3491H27.0207V55.2639H26.424C26.5093 54.8377 26.8502 54.6672 27.3617 54.6672L27.0207 55.2639H27.1059V55.3491C27.7879 55.3491 28.0436 54.9229 28.3845 54.3263L28.1288 54.1558C28.214 54.1558 28.214 54.1558 28.3845 53.9853V54.3263C28.555 54.3263 28.8107 54.3263 29.0664 54.1558C29.2369 53.9853 29.4926 53.9853 29.5779 53.9853C29.7483 53.6444 29.9188 53.5591 30.2598 53.4739C30.6007 53.2182 30.8565 53.1329 30.9417 52.792C31.6236 52.6215 32.2203 52.451 32.5612 51.7691C32.9022 51.7691 33.0727 51.8543 33.2431 51.4281L32.9874 51.1724C33.0727 51.1724 33.0727 51.1724 33.2431 51.0872V51.4281C33.4136 51.4281 33.7546 51.5134 33.925 51.0872H33.2431C33.3284 50.7462 33.5841 50.661 33.7546 50.4905C33.925 50.4905 34.0103 50.4905 34.0955 50.661C34.0955 50.661 34.0955 50.7462 34.0103 50.7462C34.0103 50.8315 33.925 51.0019 33.925 51.0872C34.9479 50.8315 36.1413 50.32 36.7379 49.8086C36.4822 49.8086 36.3117 49.8086 36.056 49.7234C35.9708 49.7234 35.9708 49.7234 35.9708 49.6381H36.056C36.3117 49.4676 36.4822 49.4676 36.7379 49.4676V49.8086H37.0789L37.3346 49.6381C37.2494 49.6381 37.1641 49.4676 37.0789 49.4676H36.8232C37.0789 49.0415 37.4198 48.9562 37.846 48.9562C38.8689 48.6153 39.8065 48.1038 40.9146 48.1038C41.1703 48.1038 41.2556 48.0186 41.5113 47.9333H41.8523C42.2785 48.7857 42.8751 48.0186 43.3866 48.1038C44.2389 48.2743 44.9209 48.1038 45.688 48.4448C45.7732 48.6153 46.029 48.6153 46.1142 48.6153C46.6256 49.1267 47.1371 49.4676 47.478 50.1496C47.819 50.7462 48.0747 51.4281 48.1599 52.1101C48.1599 53.3034 48.0747 54.582 47.7337 55.6901C46.7961 58.0768 45.688 60.3782 44.4094 62.5092C44.2389 62.9354 43.9832 63.4468 43.6423 63.873C43.557 64.1287 43.3866 64.2992 43.3866 64.4697C43.2161 64.8106 42.6194 64.6402 42.6194 65.2368C42.6194 65.4925 42.3637 65.8335 42.2785 66.1745C41.9375 66.8564 41.5965 67.6235 41.0851 68.0497C40.8294 68.3907 40.7442 68.0497 40.5737 67.9645V67.7088L40.4032 67.9645V68.3054C40.7442 68.9021 40.5737 69.2431 40.1475 69.6693L39.2099 71.1183C39.0394 71.4593 38.7837 71.8002 38.4427 71.9707V71.2888L37.6756 71.8002C37.4198 71.9707 37.1641 71.8002 37.0789 71.6297C36.7379 71.715 36.8232 71.9707 36.7379 72.3117ZM31.6236 80.0684C31.4531 80.0684 31.1974 80.2389 30.9417 80.3241V79.8979L32.5612 77.5965C32.5612 77.5112 32.7317 77.5112 32.9022 77.3407V78.0227C33.0727 78.0227 33.3284 78.0227 33.5841 77.8522C33.7546 77.6817 33.7546 77.9374 33.925 78.0227V78.3636H34.0955C34.0955 79.0455 33.7546 79.557 33.2431 79.7274C32.9022 79.8979 33.0727 79.9831 33.0727 80.2389V80.5798C32.7317 80.9208 32.6465 81.2617 32.2203 81.347C32.2203 81.0913 32.135 81.006 31.8793 81.006H31.2826C31.4531 80.6651 31.6236 80.4093 31.6236 80.0684ZM19.264 98.9062C18.4968 99.3324 18.1559 100.27 17.9001 101.208C18.2411 101.037 18.4968 100.696 18.8378 101.037C18.8378 101.208 19.1787 101.037 19.0935 100.867C18.923 100.526 18.923 100.27 19.264 100.185C19.8606 99.929 19.9459 99.2471 20.5426 98.9062C20.5426 98.3095 20.9687 97.9685 20.8835 97.4571C20.8835 97.2014 20.9687 97.1161 21.2245 96.8604C21.4802 96.7752 21.8211 96.4342 21.9916 96.1785C22.2473 95.9228 22.2473 95.8376 21.8211 95.5818L21.5654 95.2409C20.9687 95.5819 20.8835 96.2638 20.5426 96.8604C19.9459 97.4571 19.6049 98.2243 19.264 98.9062ZM30.4303 78.1931C30.6007 77.6817 31.1122 77.2555 31.6236 77.1703C31.5384 77.2555 31.6236 77.5112 31.5384 77.5965C31.1974 78.0227 30.8564 78.6193 30.6007 79.216L29.9188 79.8979C29.7483 80.2389 29.2369 80.4093 29.2369 81.006C29.2369 81.006 29.2369 81.2617 29.1517 81.2617C28.1288 82.0289 28.1288 83.4779 27.0207 84.0746C26.8502 84.1598 26.8502 84.1598 26.765 84.1598C26.765 83.7337 27.0207 83.2222 27.1912 82.8813C27.5321 82.4551 28.1288 82.1141 28.1288 81.4322L28.214 81.2617C28.896 81.006 29.0664 80.4093 29.2369 79.8979L29.7483 79.0455L30.4303 78.1931ZM29.4074 107.941C29.5779 107.941 29.8336 107.856 30.0893 107.601L31.1122 106.748C31.5384 106.407 31.8793 105.896 32.2203 105.555C32.5612 105.47 32.7317 105.214 32.9874 105.043C33.4136 104.191 34.0955 103.509 35.0332 103.083L35.7151 102.316C35.7151 102.23 35.8003 101.975 35.8003 101.719C35.6298 101.719 35.2889 101.89 35.1184 101.975C34.607 102.401 34.3512 102.998 33.7546 103.339C33.2431 103.68 32.9022 104.191 32.3908 104.702L31.9646 105.043C31.7941 105.214 31.5384 105.47 31.4531 105.725L29.4074 107.941ZM21.9916 114.761C21.9916 114.761 21.9916 114.675 22.1621 114.675L21.9064 114.42L20.6278 115.187C20.1164 115.442 19.6049 115.698 19.4345 116.38C19.4345 116.551 19.1787 116.721 18.8378 116.465H18.4968C18.1559 117.062 17.5592 117.147 17.2182 117.488C16.8773 117.573 16.7068 117.829 16.4511 118.085V118.17C16.4511 118.255 16.5363 118.255 16.7068 118.426C16.792 118.255 17.133 118.255 17.3887 118.17L18.4116 117.573C19.0935 117.233 19.7754 116.806 20.2868 116.21C20.8835 115.783 21.4802 115.357 21.9916 114.761ZM30.0893 83.3927C29.9188 83.137 30.0893 83.0517 30.2598 82.8813L29.9188 82.3698C29.8336 82.2846 29.7483 82.2846 29.5779 82.2846C29.8336 81.4322 30.0893 80.7503 30.9417 80.3241L31.2826 81.006V81.347H32.2203C32.2203 81.4322 32.3055 81.6027 32.2203 81.6027C32.135 81.9436 31.6236 82.6255 31.2826 82.8813C31.1974 83.137 31.1974 83.3927 31.1122 83.4779H30.8565C30.8565 83.4779 30.7712 83.2222 30.8565 83.2222L31.2826 82.8813C31.2826 82.7108 31.1974 82.3698 31.2826 82.2846C31.5384 81.9436 31.4531 81.6027 31.2826 81.347H30.9417V81.006L30.6007 81.347H30.9417C30.9417 81.9436 30.8565 82.6255 30.2598 82.8813V83.3927L30.1745 83.4779C30.0893 83.4779 30.0893 83.3927 30.0893 83.3927ZM33.925 72.8231C34.0955 72.4821 34.3512 72.0559 34.7774 71.9707C34.7774 72.1412 34.7774 72.3969 34.6922 72.6526C33.925 73.9312 32.9874 75.295 32.135 76.5736C31.8793 76.6588 31.9646 76.9998 31.6236 76.9998C31.6236 76.8293 31.5384 76.4884 31.6236 76.3179C32.3055 75.636 32.5612 74.6131 33.2431 73.9312L33.925 72.8231ZM10.8253 113.482C10.9106 112.971 11.1663 112.544 11.3368 112.033L12.2744 110.243C12.4449 109.561 12.7858 108.964 12.7006 108.282C12.6153 108.453 12.4449 108.453 12.4449 108.538L10.6549 112.544C10.4844 112.971 10.2287 113.482 10.2287 114.079C10.5696 114.079 10.8253 113.738 10.8253 113.482ZM34.4365 75.4655H34.266C34.3512 74.6131 34.6922 73.9312 35.4593 73.505V74.1869C35.7151 74.1869 36.056 74.1017 36.1413 74.5279C35.9708 74.5279 35.8003 74.6131 35.8003 74.8688L35.4593 75.1245C35.4593 75.295 35.4593 75.5507 35.6298 75.636C35.7151 75.9769 35.7151 76.1474 35.4593 76.2326C35.2889 76.4884 35.1184 76.3179 35.1184 76.1474C35.0331 75.636 34.607 75.8917 34.4365 75.4655ZM25.4864 85.4384L26.424 84.4156C26.5093 84.2451 26.6797 84.2451 26.765 84.2451C26.3388 85.6089 26.424 85.7794 25.6569 86.4613C25.3159 86.8022 25.0602 87.2284 24.8045 87.6546C24.7193 87.9956 24.3783 88.1661 24.0373 88.3366C24.0373 88.3366 23.9521 88.2513 23.7816 88.2513V88.1661C23.9521 87.6546 24.3783 87.8251 24.4635 87.4842C24.4635 87.2284 24.7193 86.9727 24.7193 86.6318C24.8045 86.2056 25.6569 86.1203 25.4864 85.4384ZM26.424 87.6546C26.0831 88.2513 25.7421 88.848 25.0602 89.1889C25.0602 88.5923 25.3159 88.2513 25.4864 87.9956C26.1683 87.2284 26.765 86.2908 27.3617 85.4384C27.3617 85.268 27.5321 85.268 27.7026 85.1827C27.7879 85.7794 27.3617 86.1203 27.1912 86.4613L26.424 87.6546ZM37.1641 102.06H36.8232C36.8232 101.89 37.1641 101.719 36.9936 101.378C36.8232 101.378 36.8232 101.208 36.9936 101.208C37.3346 100.696 37.6756 100.355 38.1017 100.014C38.1017 99.929 38.3575 99.929 38.3575 99.929C38.6984 100.27 38.8689 99.6733 39.2099 99.8438V99.929C39.3803 100.014 39.2099 100.014 39.2099 100.185C39.0394 100.526 38.4427 100.526 38.187 101.037C38.1017 101.549 37.4198 101.549 37.1641 102.06ZM29.4074 107.941H29.2369C28.896 108.112 28.7255 108.453 28.3845 108.282C28.3845 108.538 28.214 108.794 28.1288 108.964C27.7026 109.561 27.1059 109.902 26.765 110.584C27.0207 110.584 27.1912 110.584 27.4469 110.328C27.5321 110.158 27.7879 109.987 28.0436 109.902C28.1288 109.476 28.7255 109.561 28.8107 108.964C28.8107 108.964 28.896 108.964 28.896 109.135C29.1517 109.135 29.2369 109.22 29.2369 108.879C29.4074 108.538 29.4074 108.282 29.4074 107.941ZM64.1848 96.8604C64.2701 96.7752 64.2701 96.7752 64.1848 96.6047H63.5882C63.162 97.1161 62.5653 97.2866 62.0539 97.2866C61.7981 97.2014 61.5424 97.2866 61.5424 97.4571C61.5424 97.8833 60.8605 97.7981 60.8605 98.2243C61.4572 98.2243 62.0539 98.139 62.48 97.8833L64.1848 96.8604ZM68.7025 92.2575C69.1287 91.9166 69.3844 91.5756 69.6401 91.0642C69.2992 91.0642 69.0434 91.2347 68.9582 91.3199L67.0829 93.0247L66.6568 93.7066C66.9977 93.7066 67.2534 93.5361 67.3387 93.3656C67.7649 93.0247 68.1058 92.5985 68.7025 92.2575ZM14.7463 106.151V106.578C15.343 106.492 15.4282 105.47 16.1954 105.896C16.1954 105.896 16.3659 105.811 16.1954 105.725C16.1101 105.384 16.3659 104.788 16.0249 104.361C15.8544 104.447 15.7692 104.447 15.7692 104.532C15.5135 105.129 15.1725 105.725 14.7463 106.151ZM26.5093 111.607C26.424 111.181 26.8502 110.925 26.765 110.584C26.1683 110.669 26.1683 111.266 25.8274 111.351C25.4012 111.692 25.0602 111.948 24.8045 112.289L24.7193 112.544C25.4864 112.63 25.7421 111.607 26.5093 111.862C26.5093 111.862 26.5093 111.692 26.6797 111.692C26.6797 111.692 26.6797 111.607 26.5093 111.607ZM33.925 76.4884C34.0103 76.4884 34.0955 76.3179 34.266 76.1474H34.3512C34.607 76.6588 34.607 77.2555 34.7774 77.6817C34.9479 78.0227 34.4365 78.2784 34.266 78.3636C34.0955 78.0227 34.0103 77.6817 34.0103 77.3407C33.925 76.9998 33.925 76.8293 33.925 76.4884ZM22.3326 93.5361C22.3326 93.7066 22.2473 93.7066 22.2473 93.7066C22.2473 93.4509 22.2473 93.1952 22.3326 93.0247L23.4407 91.3199C23.4407 91.2347 23.6964 91.2347 23.7816 91.0642V91.5756C23.2702 92.2575 22.9292 93.0247 22.3326 93.5361ZM28.7255 84.0746C28.7255 84.1598 28.4698 84.1598 28.3845 84.1598C28.4698 83.3927 28.8107 82.7108 29.5779 82.2846C29.5779 82.4551 29.7483 82.6255 29.5779 82.7108C29.4074 83.137 29.0664 83.5632 28.7255 84.0746ZM17.2182 102.06C16.792 102.657 16.4511 103.339 16.3659 104.02H17.0478C17.0478 103.68 17.0478 103.339 17.133 102.998C17.2182 102.742 17.2182 102.401 17.2182 102.06ZM33.925 76.4884H33.5841C33.5841 76.9145 33.3284 77.2555 32.9022 77.3407C32.9022 76.9145 32.9874 76.5736 33.5841 76.4884C33.4136 75.8917 33.6693 75.636 34.0955 75.4655V76.1474C34.0955 76.2326 34.0103 76.3179 33.925 76.4884ZM50.1204 86.2056C50.3761 85.6089 50.8023 85.1827 51.399 85.1827C51.399 85.4384 51.399 85.7794 51.1433 85.8646C50.8023 85.9499 50.5466 86.2908 50.1204 86.2056ZM37.7608 73.164C37.3346 73.0788 37.4198 72.8231 37.4198 72.4821C37.7608 72.3969 38.1017 72.1412 38.4427 71.9707C38.4427 72.3117 38.3575 72.4821 38.1017 72.7378C38.0165 72.9083 38.0165 73.164 37.7608 73.164ZM36.1413 75.2098V74.5279C36.4822 74.4426 36.7379 74.1017 37.0789 74.1869C36.8232 74.5279 36.8232 75.1245 36.397 75.295C36.3117 75.295 36.1413 75.295 36.1413 75.2098ZM29.2369 105.384C28.896 105.896 28.555 106.407 28.0436 106.578C28.1288 105.811 28.4698 105.47 29.2369 105.384ZM46.7109 92.2575V92.0871C46.7109 92.0018 46.7961 91.9166 46.7961 91.7461H47.6485C47.7337 91.7461 47.7337 92.0018 47.7337 92.0018V92.2575C47.478 92.3428 46.7961 92.428 46.7109 92.2575ZM24.7193 89.7004C24.8045 90.3823 24.2931 90.7232 23.7816 91.0642C23.6964 90.638 24.0373 90.297 24.2931 89.9561C24.2931 89.8708 24.634 89.8708 24.7193 89.7004ZM23.4407 113.397C24.1226 113.397 24.4635 113.056 24.7193 112.544C24.0373 112.374 23.7816 112.971 23.4407 113.397ZM65.3782 94.559C66.0601 94.559 66.401 94.1328 66.6568 93.7066C65.9748 93.7066 65.6339 94.0476 65.3782 94.559ZM23.9521 110.328C24.2931 109.987 24.4635 109.561 25.0602 109.561C24.975 109.987 24.634 110.328 24.1226 110.499C24.1226 110.584 24.0373 110.499 24.0373 110.499C23.9521 110.499 23.9521 110.328 23.9521 110.328ZM28.4698 84.8418L27.7026 85.1827C27.7026 84.7565 27.8731 84.4156 28.3845 84.2451L28.555 84.586C28.555 84.7565 28.555 84.8418 28.4698 84.8418ZM37.4198 97.5423C37.1641 97.9685 36.9936 98.3095 36.4822 98.48C36.4822 98.2243 36.4822 97.9685 36.7379 97.7981C36.9936 97.6276 37.1641 97.5423 37.4198 97.5423ZM17.3887 101.208V102.06C17.8149 101.975 18.0706 101.634 17.9001 101.208H17.3887ZM39.4656 50.7462C39.5508 50.7462 39.5508 50.661 39.5508 50.661C39.5508 50.661 39.4656 50.4905 39.3803 50.4905H38.7837C38.6984 50.4905 38.6984 50.661 38.6984 50.7462C38.5279 50.8315 38.5279 50.8315 38.5279 51.0019C38.5279 51.0019 38.6984 51.0872 38.7837 51.0872L39.4656 50.7462ZM48.1599 87.6546C48.4156 87.3137 48.7566 87.1432 49.0976 87.1432L48.4156 87.9956C48.3304 88.1661 48.3304 88.1661 48.1599 87.9104V87.6546ZM32.9022 79.0455V78.7046C32.5612 78.7046 32.3055 78.7046 32.135 79.0455V79.3012H32.3055L32.9022 79.0455C32.9022 79.216 32.9022 79.3865 33.0727 79.216C33.0727 79.216 32.9874 79.0455 32.9022 79.0455ZM38.4427 69.6693L37.7608 70.0102V70.6069C38.187 70.4364 38.4427 70.0954 38.4427 69.6693ZM30.2598 54.6672C30.8565 54.6672 31.1122 54.4967 31.2826 53.9853C30.8565 53.9853 30.5155 54.241 30.2598 54.6672ZM31.8793 53.9853L32.2203 53.4739C31.7941 53.3034 31.4531 53.5591 31.2826 53.9853H31.8793ZM10.1434 115.187V114.079C9.63199 114.42 9.8877 114.761 9.8877 115.187L9.97294 115.357C9.97294 115.187 10.1434 115.187 10.1434 115.187ZM38.7837 68.9873C38.4427 69.0726 38.4427 69.3283 38.4427 69.6693H39.0394L38.7837 68.9873ZM25.4012 58.2472C25.9978 58.2472 25.9978 58.2472 26.0831 57.6506C25.7421 57.7358 25.4864 57.9063 25.4012 58.2472ZM49.4385 86.8023C49.5238 86.4613 49.7795 86.2908 50.1204 86.2056C50.0352 86.8023 50.0352 86.8023 49.4385 86.8023ZM23.4407 111.522C23.0997 111.692 22.9292 111.862 22.7588 112.203C23.2702 112.203 23.4407 112.033 23.4407 111.522ZM34.7774 75.1245H35.4593L35.1184 74.5279C34.7774 74.6131 34.9479 74.8688 34.7774 75.1245ZM21.5654 113.397C21.3097 113.482 21.2245 113.652 21.2245 113.738C21.4802 113.738 21.5654 113.652 21.5654 113.482C21.8211 113.397 21.8211 113.312 21.9064 113.141L22.2473 112.885C22.3326 112.715 22.4178 112.715 22.4178 112.544C22.3326 112.544 22.2473 112.63 22.1621 112.885C21.9916 112.885 21.9064 112.971 21.9064 113.056C21.6507 113.141 21.5654 113.312 21.5654 113.397ZM50.8023 88.1661C51.2285 87.9956 51.399 87.9956 51.399 87.4842C51.058 87.5694 50.8876 87.8251 50.8023 88.1661ZM26.765 57.6506V57.3096C26.424 57.3096 26.1683 57.3096 26.0831 57.6506H26.765ZM30.2598 104.361C30.1745 104.702 29.9188 104.873 29.7483 105.043C29.7483 104.447 29.7483 104.361 30.2598 104.361ZM43.3013 92.2575C43.3013 92.0871 43.3013 91.9166 43.3866 91.9166C43.557 91.7461 43.7275 91.7461 43.898 91.7461L43.557 92.2575H43.3013ZM32.3055 79.7274C32.135 79.6422 31.7941 79.6422 31.6236 79.9831H32.3055C32.3907 79.9831 32.3908 79.8979 32.3908 79.8979C32.3908 79.8979 32.3907 79.7274 32.3055 79.7274ZM34.7774 71.9707C34.7774 71.6297 34.7774 71.374 35.1184 71.2888C35.1184 71.4593 35.2889 71.8002 34.7774 71.9707ZM3.40955 83.0517C3.49479 83.0517 3.49479 83.137 3.49479 83.2222L3.0686 83.5632C3.0686 83.3927 3.0686 83.137 3.15384 83.0517C3.15384 82.8813 3.40955 82.8813 3.40955 83.0517ZM14.7463 106.578C14.4054 106.748 14.4054 107.089 14.4054 107.26C14.7463 107.174 14.7463 106.919 14.7463 106.578ZM25.0602 89.1889C25.0602 89.3594 25.1454 89.7004 24.7193 89.7004C24.7193 89.5299 24.7193 89.1889 25.0602 89.1889ZM39.1246 99.1619C39.1246 98.8209 39.4656 98.9062 39.7213 98.9062C39.7213 99.2471 39.3803 99.1619 39.1246 99.1619ZM31.1974 52.1953V52.3658C31.1122 52.451 30.9417 52.5362 30.9417 52.6215C30.8565 52.6215 30.7712 52.5362 30.7712 52.451C30.7712 52.3658 30.8565 52.1953 30.9417 52.1101C30.9417 52.1101 31.1122 52.1953 31.1974 52.1953ZM64.6963 94.8999C64.952 94.8999 65.2929 94.8999 65.2929 94.559C65.0372 94.559 64.8667 94.559 64.6963 94.8999ZM17.474 63.4468L17.133 63.6173L17.0478 63.5321L17.2182 63.1911H17.474C17.5592 63.1911 17.5592 63.2763 17.474 63.4468ZM42.6194 96.2638C42.7046 96.2638 42.8751 96.1785 42.9604 96.2638C43.0456 96.2638 43.0456 96.4342 43.2161 96.4342C43.0456 96.4342 43.0456 96.5195 42.9604 96.5195C42.8751 96.6047 42.7046 96.5195 42.6194 96.5195V96.2638ZM31.9646 51.7691C32.2203 51.3429 32.3055 51.3429 32.5612 51.7691H31.9646ZM39.7213 95.4966C39.7213 95.5819 39.7213 95.7523 39.5508 95.7523C39.4656 95.8376 39.2099 95.8376 39.1246 95.8376L39.4656 95.4966C39.4656 95.4114 39.5508 95.4966 39.7213 95.4966ZM29.7483 55.0082C29.9188 55.0082 30.1745 55.0082 30.2598 54.6672C30.0893 54.6672 29.7483 54.6672 29.7483 55.0082ZM12.1039 72.1412C12.4449 72.1412 12.4449 71.8002 12.3596 71.6297C12.0187 71.715 12.1039 71.9707 12.1039 72.1412ZM42.3637 97.1161C42.3637 97.2014 42.2785 96.8604 42.3637 96.7752C42.3637 96.6047 42.5342 96.6047 42.6194 96.6047V96.8604C42.6194 96.9457 42.5342 97.1161 42.3637 97.1161ZM41.5965 62.5092C41.2556 62.5092 41.4261 62.8501 41.4261 63.1059C41.767 62.9354 41.5965 62.7649 41.5965 62.5092ZM5.54052 78.7046C5.54052 78.9603 5.711 79.3012 5.37005 79.3012C5.37005 79.0455 5.19957 78.875 5.54052 78.7046ZM63.6734 95.5818C63.5029 95.5818 63.162 95.5818 63.162 95.9228C63.3324 95.8376 63.5882 95.9228 63.6734 95.5818ZM42.9604 60.0373V60.4635C43.0456 60.3782 43.2161 60.3782 43.2161 60.293C43.3013 60.1225 43.2161 60.0373 43.0456 59.952C43.0456 60.0373 42.9604 60.0373 42.9604 60.0373ZM60.4343 98.48C60.69 98.48 60.7753 98.48 60.7753 98.2243H60.4343C60.3491 98.2243 60.3491 98.3095 60.3491 98.3095C60.3491 98.48 60.3491 98.48 60.4343 98.48ZM11.5072 70.3512L11.1663 70.6069C11.1663 70.4364 11.2515 70.3512 11.2515 70.0954L11.3368 70.0102C11.3368 70.0954 11.5072 70.2659 11.5072 70.3512ZM35.4593 51.5134C35.3741 51.5134 35.2889 51.6839 35.2889 51.7691H35.6298L35.7151 51.6839C35.6298 51.5134 35.4593 51.4281 35.4593 51.5134ZM25.0602 109.561C25.0602 109.305 25.1455 109.22 25.4012 109.22C25.4012 109.476 25.3159 109.561 25.0602 109.561ZM38.1017 96.8604C38.1017 97.1161 38.0165 97.2014 37.7608 97.2014C37.7608 96.9457 37.846 96.8604 38.1017 96.8604ZM38.1017 49.4676C38.187 49.3824 38.187 49.3824 38.3575 49.3824C38.187 49.2972 38.187 49.1267 38.1017 49.1267C38.0165 49.1267 37.846 49.2972 37.846 49.2972C37.846 49.3824 38.0165 49.3824 38.1017 49.4676ZM45.347 90.638C45.347 90.5528 45.2618 90.5528 45.2618 90.3823C45.2618 90.297 45.347 90.297 45.4323 90.2118C45.4323 90.297 45.6028 90.297 45.6028 90.3823C45.6028 90.5528 45.4323 90.5528 45.347 90.638ZM5.11433 79.9831C5.11433 79.8979 5.02909 79.8979 5.02909 79.8979C5.02909 79.6422 5.02909 79.3865 5.19957 79.3865V79.8979C5.19957 79.8979 5.11433 79.8979 5.11433 79.9831ZM51.74 84.8418C51.74 85.0975 51.5695 85.1827 51.399 85.1827C51.399 84.927 51.4842 84.8418 51.74 84.8418ZM36.9936 51.0872V51.0019C36.9084 51.0019 36.8232 50.8315 36.7379 50.8315C36.6527 50.8315 36.6527 51.0019 36.4822 51.0872H36.9936ZM50.4614 88.507C50.7171 88.507 50.8023 88.3365 50.8023 88.1661C50.5466 88.1661 50.4614 88.2513 50.4614 88.507ZM34.3512 52.3658L34.4365 52.1953C34.3512 52.1953 34.266 52.1101 34.266 52.1101L33.925 52.451C34.0103 52.451 34.0955 52.451 34.3512 52.3658ZM35.8003 52.3658C35.9708 52.3658 36.056 52.1953 36.056 52.1101H35.7151L35.6298 52.1953C35.7151 52.3658 35.8003 52.3658 35.8003 52.3658ZM27.7026 106.919C27.7026 106.748 27.7879 106.578 28.0436 106.578C28.0436 106.833 27.8731 106.919 27.7026 106.919ZM27.7026 106.919C27.7026 107.174 27.5321 107.26 27.3617 107.26C27.3617 107.089 27.4469 106.919 27.7026 106.919ZM47.478 88.507C47.478 88.6775 47.3928 88.848 47.1371 88.848C47.1371 88.5923 47.3075 88.507 47.478 88.507ZM22.7588 112.203C22.5883 112.203 22.4178 112.289 22.4178 112.544C22.6735 112.544 22.7588 112.374 22.7588 112.203ZM21.5654 61.4863C21.8211 61.4863 21.8211 61.4011 21.9064 61.1454C21.6507 61.1454 21.5654 61.3158 21.5654 61.4863ZM36.7379 102.06C36.7379 102.316 36.6527 102.401 36.4822 102.401V102.06H36.7379ZM37.7608 97.2014C37.7608 97.4571 37.6756 97.5423 37.4198 97.5423C37.5051 97.2866 37.5051 97.2866 37.7608 97.2014ZM19.8606 114.42V114.761H19.6049C19.6049 114.505 19.7754 114.42 19.8606 114.42ZM7.16006 76.5736H7.07482C7.07482 76.4884 6.90434 76.4884 6.90434 76.3179C7.07482 76.1474 7.16006 76.1474 7.16006 76.3179V76.5736ZM32.9022 78.0227L32.6465 78.2784C32.7317 78.2784 32.7317 78.2784 32.9022 78.3636V78.7046C32.9874 78.6193 33.0727 78.6193 33.0727 78.5341C33.0727 78.5341 32.9874 78.5341 32.9022 78.3636V78.0227ZM8.52388 74.2721C8.52388 74.2721 8.43864 74.2721 8.43864 74.4426C8.26816 74.2721 8.26816 74.1869 8.26816 74.1017C8.26816 74.1017 8.43864 74.1017 8.43864 73.9312C8.43864 74.1017 8.52388 74.1869 8.52388 74.2721ZM50.1204 88.848C50.3761 88.6775 50.4614 88.6775 50.4614 88.507C50.2057 88.507 50.1204 88.5923 50.1204 88.848ZM26.765 107.941C26.6797 108.112 26.6797 108.197 26.424 108.282C26.424 108.112 26.5093 107.941 26.765 107.941ZM16.3659 104.02C16.1101 104.106 16.0249 104.191 16.0249 104.361C16.1954 104.361 16.3659 104.191 16.3659 104.02ZM20.5426 113.738C20.5426 113.993 20.4573 114.079 20.2016 114.079C20.2868 113.823 20.4573 113.823 20.5426 113.738ZM36.4822 72.4821H36.1413C36.1413 72.6526 36.1413 72.7378 36.3117 72.7378L36.4822 72.4821ZM20.2016 114.079C20.2016 114.334 20.1164 114.42 19.9459 114.42C19.9459 114.164 20.1164 114.079 20.2016 114.079ZM39.1246 48.9562C39.0394 48.9562 38.8689 48.9562 38.7837 49.0415C38.8689 49.0415 39.0394 49.1267 39.1246 49.1267C39.1246 49.1267 39.2099 49.0415 39.3803 49.0415C39.2099 48.9562 39.1246 48.9562 39.1246 48.9562ZM27.1059 56.9687C27.1912 56.9687 27.3617 56.8834 27.3617 56.6277C27.1912 56.6277 27.1059 56.713 27.1059 56.9687ZM51.74 84.8418C51.74 84.7565 51.8252 84.586 52.0809 84.586C52.0809 84.7565 51.9104 84.8418 51.74 84.8418ZM28.3845 55.9458C28.555 55.9458 28.7255 55.8606 28.7255 55.6901C28.4698 55.6901 28.3845 55.8606 28.3845 55.9458ZM27.3617 107.26C27.3617 107.515 27.1912 107.601 27.1059 107.601C27.1059 107.43 27.1912 107.26 27.3617 107.26ZM31.2826 103.339C31.2826 103.168 31.4531 103.083 31.6236 103.083C31.5384 103.339 31.4531 103.339 31.2826 103.339ZM48.8418 90.3823C48.8418 90.2118 49.0123 90.0413 49.0976 90.0413C49.0976 90.297 49.0123 90.3823 48.8418 90.3823ZM48.5009 90.7232C48.5009 90.5528 48.6714 90.3823 48.7566 90.3823C48.7566 90.638 48.6714 90.7232 48.5009 90.7232ZM44.3242 91.4051C44.3242 91.2347 44.3242 91.0642 44.5799 91.0642C44.5799 91.3199 44.4094 91.3199 44.3242 91.4051ZM38.4427 96.6047C38.3575 96.7752 38.3575 96.8604 38.1017 96.8604C38.1017 96.7752 38.187 96.6047 38.4427 96.6047ZM25.4012 109.22C25.4864 109.135 25.4864 108.964 25.7421 108.964C25.7421 109.135 25.6569 109.22 25.4012 109.22ZM26.765 57.3096C26.8502 57.2244 27.0207 57.2244 27.0207 56.9687C26.8502 56.9687 26.765 57.0539 26.765 57.3096ZM14.3201 107.26C14.1496 107.26 14.0644 107.26 14.1496 107.515C14.3201 107.515 14.3201 107.43 14.3201 107.26ZM24.1226 59.2701C24.2931 59.2701 24.4635 59.2701 24.2931 59.0144C24.2931 59.0144 24.1226 59.0996 24.1226 59.2701ZM37.7608 99.1619V98.9062C37.6756 98.9914 37.5051 98.9914 37.5051 99.1619H37.7608ZM27.0207 107.601C27.0207 107.856 26.8502 107.856 26.765 107.941C26.765 107.771 26.8502 107.601 27.0207 107.601ZM38.7837 96.2638C38.6984 96.4342 38.5279 96.5195 38.4427 96.5195C38.4427 96.4342 38.5279 96.2638 38.7837 96.2638ZM28.3845 108.197V107.941C28.214 107.941 28.214 108.112 28.1288 108.112C28.214 108.197 28.214 108.197 28.3845 108.197ZM39.0394 95.9228C39.0394 96.1785 38.8689 96.1785 38.7837 96.1785C38.7837 96.0933 38.8689 95.9228 39.0394 95.9228ZM26.1683 55.6048C26.0831 55.3491 26.1683 55.3491 26.3388 55.3491C26.3388 55.5196 26.3388 55.5196 26.1683 55.6048ZM21.9064 61.1454C21.9916 61.1454 22.1621 61.0601 22.1621 60.8044C21.9916 60.9749 21.9064 60.9749 21.9064 61.1454ZM19.5197 98.9914C19.264 99.2471 19.264 98.9914 19.264 98.9062C19.4345 98.9062 19.4344 98.9062 19.5197 98.9914ZM19.6049 63.4468C19.7754 63.4468 19.9459 63.4468 19.7754 63.1911C19.7754 63.2763 19.6049 63.2763 19.6049 63.4468ZM10.6549 74.1017C10.6549 74.1017 10.8253 74.1017 10.8253 73.9312C10.6549 73.846 10.6549 73.846 10.5696 73.9312L10.6549 74.1017ZM23.4407 111.522C23.6964 111.522 23.7816 111.351 23.7816 111.181L23.4407 111.522ZM39.1246 97.6276C39.2099 97.7981 39.2951 97.7981 39.3803 97.8833V97.5423C39.3803 97.6276 39.2099 97.6276 39.1246 97.6276ZM37.3346 71.374C37.1641 71.374 37.1641 71.4593 37.1641 71.6297C37.3346 71.4593 37.4198 71.6297 37.3346 71.374ZM20.4573 62.7649C20.4573 62.6797 20.5426 62.6797 20.5426 62.5092C20.4573 62.5092 20.2016 62.5092 20.4573 62.7649ZM15.4282 67.9645C15.5135 67.9645 15.6839 67.8792 15.6839 67.7088C15.5135 67.7088 15.4282 67.8792 15.4282 67.9645ZM8.95008 73.164V73.0788C8.95008 72.9083 8.95008 72.9083 9.12055 72.9083V73.0788L8.95008 73.164ZM15.0873 68.3054C15.1725 68.3054 15.343 68.2202 15.343 68.0497C15.1725 68.0497 15.0873 68.2202 15.0873 68.3054ZM49.1828 87.1432C49.1828 86.9727 49.3533 86.8875 49.4385 86.8875C49.4385 86.9727 49.3533 87.1432 49.1828 87.1432ZM43.9832 91.6609C43.9832 91.5756 44.0685 91.4051 44.2389 91.4051C44.2389 91.5756 44.0685 91.6609 43.9832 91.6609ZM14.8316 68.5611C15.002 68.5611 15.002 68.3907 15.002 68.3054C14.8316 68.3907 14.7463 68.3907 14.8316 68.5611ZM7.75673 75.1245L7.58625 74.9541L7.75673 74.8688L7.84197 74.9541L7.75673 75.1245ZM39.3803 69.6693H39.1246V69.925L39.3803 69.6693ZM31.7941 52.0248C31.5384 51.7691 31.7941 51.8543 31.8793 51.7691C31.8793 51.8543 31.8793 52.0248 31.7941 52.0248ZM33.2431 101.549C33.2431 101.634 33.0727 101.719 32.9022 101.719C32.9022 101.634 32.9874 101.549 33.2431 101.549ZM37.7608 51.3429C37.6756 51.3429 37.6756 51.1724 37.6756 51.1724C37.5051 51.1724 37.5051 51.1724 37.5051 51.3429H37.7608ZM24.634 92.0871C24.634 92.0871 24.4635 92.0871 24.4635 92.2575C24.4635 92.2575 24.634 92.2575 24.634 92.3428C24.634 92.2575 24.634 92.2575 24.7193 92.2575C24.634 92.2575 24.634 92.0871 24.634 92.0871ZM42.9604 60.6339C42.7046 60.6339 42.6194 60.7192 42.6194 60.8044C42.8751 60.8044 42.8751 60.7192 42.9604 60.6339ZM2.04573 86.8023C2.13097 86.8023 2.38669 86.8023 2.13097 86.5465C2.13097 86.6318 2.04573 86.8023 2.04573 86.8023ZM26.5093 58.2472C26.6797 58.0768 26.6797 57.9915 26.6797 57.9915C26.5093 57.9915 26.424 57.9915 26.5093 58.2472ZM38.8689 99.5028C38.7837 99.2471 38.8689 99.2471 39.0394 99.2471C39.0394 99.2471 39.0394 99.3324 38.8689 99.5028ZM41.2556 94.0476V93.8771H41.4261V94.0476H41.2556ZM48.3304 90.979C48.1599 90.7232 48.3304 90.7232 48.4156 90.7232C48.4156 90.8937 48.4156 90.8937 48.3304 90.979ZM51.4842 87.4842C51.5695 87.4842 51.74 87.4842 51.5695 87.2284C51.4842 87.3137 51.4842 87.3137 51.4842 87.4842ZM3.66527 82.4551L3.49479 82.6255C3.49479 82.4551 3.40955 82.4551 3.40955 82.4551L3.49479 82.3698L3.66527 82.4551ZM36.1413 52.1101C36.3117 52.0248 36.3117 52.0248 36.397 52.0248C36.397 51.8543 36.3117 51.8543 36.3117 51.8543C36.3117 51.8543 36.1413 52.0248 36.1413 52.1101ZM18.923 62.8501C18.923 62.9354 18.923 63.1059 19.1787 62.9354C19.0935 62.8501 19.0935 62.8501 18.923 62.8501ZM24.8045 56.372C24.975 56.372 24.975 56.5425 24.975 56.5425L24.8045 56.6277V56.372ZM14.1496 108.964V109.22L14.3201 109.135C14.3201 109.135 14.3201 108.964 14.1496 108.964ZM22.7588 114.079C23.0145 114.079 23.0997 113.993 23.0997 113.823C23.0145 113.823 22.9292 113.993 22.7588 114.079ZM40.9146 48.7005C40.8294 48.6153 40.7442 48.6153 40.5737 48.6153C40.5737 48.6153 40.4884 48.6153 40.4884 48.7005H40.9146ZM19.6049 115.016C19.5197 115.016 19.4345 114.846 19.4345 114.846C19.4345 114.846 19.5197 114.761 19.6049 114.761V115.016ZM20.6278 62.4239C20.7983 62.4239 20.8835 62.4239 20.7983 62.1682C20.6278 62.3387 20.6278 62.4239 20.6278 62.4239ZM38.4427 71.2888C38.5279 71.2888 38.6984 71.2888 38.5279 71.0331C38.5279 71.0331 38.4427 71.1183 38.4427 71.2888ZM27.0207 57.7358C26.8502 57.6506 26.765 57.6506 26.765 57.6506V57.9063C26.765 57.8211 26.8502 57.7358 27.0207 57.7358ZM11.2515 117.573C11.3368 117.488 11.3368 117.488 11.3368 117.403C11.3368 117.233 11.3368 117.233 11.2515 117.147V117.573ZM33.7546 78.3636C33.6693 78.3636 33.5841 78.3636 33.6693 78.6193C33.7546 78.6193 33.7546 78.5341 33.7546 78.3636ZM30.4303 104.106C30.6007 104.361 30.4303 104.361 30.2598 104.361C30.4303 104.191 30.4303 104.191 30.4303 104.106ZM36.1413 100.526C36.3117 100.355 36.397 100.526 36.3117 100.27C36.3117 100.27 36.1413 100.355 36.1413 100.526ZM12.4449 71.6297C12.6153 71.4593 12.7006 71.6297 12.6153 71.374C12.6153 71.374 12.4449 71.4593 12.4449 71.6297ZM52.8481 84.2451C52.8481 84.4156 52.7628 84.5008 52.6776 84.5008C52.8481 84.5008 53.0185 84.5008 52.8481 84.2451ZM40.0622 96.8604C40.1475 96.8604 40.4032 96.8604 40.1475 96.6047C40.1475 96.7752 40.1475 96.7752 40.0622 96.8604ZM13.4677 108.623C13.4677 108.794 13.4677 108.794 13.3825 108.879C13.4677 108.879 13.7234 108.879 13.4677 108.623ZM4.09146 81.347C4.34718 81.6027 4.09146 81.6027 4.00622 81.6027C4.09146 81.6027 4.09146 81.4322 4.09146 81.347ZM37.7608 98.8209C37.846 98.8209 38.1017 98.8209 37.846 98.5652C37.846 98.6504 37.846 98.8209 37.7608 98.8209ZM43.3866 93.8771C43.557 93.7918 43.557 93.7918 43.557 93.7066C43.3866 93.7066 43.3013 93.7066 43.3866 93.8771ZM45.6028 93.3656C45.6028 93.1952 45.688 93.1099 45.688 93.1099C45.9437 93.3656 45.688 93.1952 45.6028 93.3656ZM13.0415 68.2202C13.0415 68.2202 12.9563 68.2202 12.9563 68.3054C12.9563 68.2202 12.7858 68.2202 12.7858 68.2202C12.9563 68.0497 12.9563 68.0497 13.0415 68.2202ZM25.4012 110.925C25.3159 110.925 25.0602 110.925 25.3159 111.181C25.3159 111.01 25.4012 110.925 25.4012 110.925ZM25.3159 58.5882C25.3159 58.4177 25.4012 58.3325 25.4012 58.3325C25.3159 58.3325 25.0602 58.3325 25.3159 58.5882ZM38.6984 50.4053C38.6984 50.32 38.6984 50.1496 38.4427 50.32C38.5279 50.4053 38.6984 50.4053 38.6984 50.4053ZM31.1122 103.68C30.9417 103.424 31.1122 103.424 31.1974 103.424C31.1974 103.509 31.1974 103.509 31.1122 103.68ZM62.9915 95.9228C62.9062 95.9228 62.821 95.9228 62.9062 96.1785C62.9915 96.0933 62.9915 96.0933 62.9915 95.9228ZM27.5321 56.372C27.4469 56.5425 27.4469 56.5425 27.4469 56.6277C27.5321 56.6277 27.7026 56.6277 27.5321 56.372ZM36.3117 98.8209C36.1413 98.5652 36.3117 98.5652 36.397 98.5652C36.397 98.6504 36.397 98.6504 36.3117 98.8209ZM15.7692 67.6235C15.8544 67.6235 16.0249 67.6235 15.8544 67.3678C15.7692 67.5383 15.7692 67.6235 15.7692 67.6235ZM13.2973 70.6069C13.2973 70.4364 13.3825 70.4364 13.2973 70.4364C13.2973 70.3512 13.2973 70.3512 13.1268 70.4364L13.2973 70.6069ZM21.6507 95.0704C21.6507 95.0704 21.5654 95.1557 21.5654 95.2409C21.6507 95.2409 21.9064 95.2409 21.6507 95.0704ZM47.1371 88.848C47.1371 88.9332 47.0518 89.0185 46.7961 89.0185C46.9666 88.9332 46.9666 88.848 47.1371 88.848ZM29.5779 55.2639V55.0082C29.5779 55.0082 29.4926 55.0082 29.4074 55.1787C29.4926 55.1787 29.4926 55.1787 29.5779 55.2639ZM27.5321 57.5653C27.5321 57.3949 27.7026 57.3949 27.7026 57.3096C27.5321 57.3096 27.4469 57.3096 27.5321 57.5653ZM44.5799 94.3885C44.5799 94.4737 44.4094 94.559 44.3242 94.559C44.3242 94.4737 44.4094 94.3885 44.5799 94.3885ZM28.8107 55.3491C28.8107 55.5196 28.8107 55.6048 28.7255 55.6048C28.8107 55.6048 28.9812 55.6048 28.8107 55.3491ZM37.3346 73.9312C37.4198 74.1017 37.3346 74.1017 37.1641 74.1017C37.1641 74.1017 37.1641 73.9312 37.3346 73.9312ZM28.214 56.2868C28.214 56.2015 28.214 56.031 28.3845 56.031C28.214 56.031 28.0436 55.9458 28.214 56.2868ZM4.00622 81.6879C3.83575 81.7732 3.83575 81.7732 3.83575 81.9436C3.66527 81.6879 3.83575 81.6879 4.00622 81.6879ZM29.5779 105.043C29.5779 105.214 29.4926 105.214 29.4074 105.384C29.4074 105.129 29.4926 105.043 29.5779 105.043ZM31.9646 53.9853C31.9646 54.1558 31.9646 54.3263 32.2203 54.1558C32.135 54.1558 31.9646 54.1558 31.9646 53.9853ZM39.7213 69.4135H39.5508C39.4656 69.4988 39.4656 69.584 39.4656 69.584C39.4656 69.584 39.5508 69.584 39.7213 69.4135ZM24.8045 57.9063C24.975 57.9063 25.0602 57.9063 24.975 57.6506C24.975 57.7358 24.8045 57.9063 24.8045 57.9063ZM41.8523 62.1682C41.767 62.3387 41.767 62.4239 41.767 62.4239C41.8523 62.4239 41.9375 62.4239 41.8523 62.1682ZM30.0893 55.6048C30.1745 55.6048 30.2598 55.6048 30.1745 55.3491C30.0893 55.5196 30.0893 55.6048 30.0893 55.6048ZM36.3117 51.3429C36.397 51.3429 36.397 51.1724 36.397 51.1724C36.397 51.1724 36.3117 51.1724 36.1413 51.3429H36.3117ZM35.9708 73.2493C35.9708 73.4198 35.9708 73.4198 35.8003 73.505C35.9708 73.505 36.1413 73.505 35.9708 73.2493ZM35.9708 100.696C36.056 100.611 36.056 100.611 36.056 100.526C35.9708 100.526 35.8003 100.526 35.9708 100.696ZM17.0478 104.106C17.0478 104.191 17.0478 104.361 17.2182 104.191C17.133 104.106 17.133 104.106 17.0478 104.106ZM26.765 109.561C26.8502 109.561 27.0207 109.561 26.8502 109.305C26.8502 109.476 26.765 109.476 26.765 109.561ZM42.7046 92.8542C42.9604 92.6837 42.8751 92.8542 42.9604 93.0247C42.8751 92.8542 42.7046 92.8542 42.7046 92.8542ZM32.3055 53.3034C32.3907 53.3034 32.5612 53.3034 32.3908 53.1329C32.3055 53.2182 32.3055 53.2182 32.3055 53.3034ZM23.7816 59.4406C23.9521 59.4406 24.0373 59.3554 24.0373 59.2701C23.9521 59.3554 23.7816 59.3554 23.7816 59.4406ZM22.2473 60.8044C22.3326 60.8044 22.4178 60.7192 22.4178 60.6339H22.2473V60.8044ZM6.22243 77.9374C6.22243 77.9374 6.13719 77.9374 6.13719 78.0227L6.05196 77.9374C6.13719 77.6817 6.13719 77.8522 6.22243 77.9374ZM42.7046 94.4737C42.7046 94.4737 42.8751 94.559 42.9604 94.559C42.8751 94.4737 42.9604 94.3885 42.7046 94.4737ZM12.0187 69.4135C12.0187 69.584 11.9334 69.584 11.9334 69.584C11.9334 69.584 11.8482 69.584 11.9334 69.4135V69.3283L12.0187 69.4135ZM24.7193 56.6277C24.7193 56.713 24.7193 56.713 24.634 56.8834C24.634 56.8834 24.634 56.713 24.4635 56.713C24.634 56.713 24.7193 56.6277 24.7193 56.6277ZM11.1663 70.6069C11.1663 70.6921 10.9958 70.7774 10.9958 70.7774C10.8253 70.6921 10.9958 70.6921 11.1663 70.6069ZM41.1703 66.6859C41.1703 66.8564 41.0851 66.8564 41.0851 66.8564C41.0851 66.9416 41.1703 66.9416 41.1703 66.9416C41.1703 66.9416 41.2556 66.9416 41.2556 66.8564C41.2556 66.8564 41.1703 66.8564 41.1703 66.6859ZM13.3825 108.964C13.2973 108.964 13.1268 108.964 13.2973 109.22C13.2973 109.135 13.3825 108.964 13.3825 108.964ZM22.6735 114.334C22.6735 114.334 22.7588 114.164 22.7588 114.079C22.6735 114.164 22.5883 114.079 22.6735 114.334ZM16.3659 64.4697C16.1954 64.5549 16.1954 64.5549 16.1954 64.6402C16.0249 64.4697 16.1954 64.4697 16.3659 64.4697ZM31.8793 102.998C31.7941 102.998 31.6236 102.998 31.6236 103.083C31.6236 102.998 31.6236 102.912 31.7941 102.912L31.8793 102.998ZM19.0935 61.3158C19.264 61.4863 19.0935 61.4863 18.923 61.4863C19.0935 61.4011 19.0935 61.3158 19.0935 61.3158ZM45.4323 93.5361C45.347 93.5361 45.347 93.4509 45.347 93.4509C45.347 93.4509 45.4323 93.3656 45.6028 93.3656C45.4323 93.4509 45.4323 93.4509 45.4323 93.5361ZM65.8896 95.8376C65.8896 95.8376 65.9748 95.8376 65.9748 95.7523H65.7191C65.7191 95.8376 65.8896 95.8376 65.8896 95.8376ZM59.6672 98.8209C59.7524 98.8209 59.7524 98.6504 59.7524 98.6504V98.5652C59.6672 98.5652 59.6672 98.6504 59.6672 98.6504V98.8209ZM41.5965 93.7066L41.767 93.5361V93.7066H41.5965ZM29.8336 55.9458C29.8336 55.8606 29.9188 55.6901 29.9188 55.6901C29.8336 55.6901 29.7483 55.6901 29.8336 55.9458ZM14.1496 69.2431L14.3201 69.0726H14.1496V69.2431ZM23.2702 113.738C23.3554 113.738 23.4407 113.652 23.4407 113.482C23.3554 113.652 23.2702 113.652 23.2702 113.738ZM31.6236 104.873C31.7941 104.873 31.8793 104.873 31.8793 105.043C31.8793 104.873 31.8793 104.702 31.6236 104.873ZM19.4345 63.6173C19.5197 63.6173 19.5197 63.5321 19.5197 63.4468C19.4344 63.5321 19.264 63.4468 19.4345 63.6173ZM12.6153 68.7316V68.9021H12.4449L12.6153 68.7316ZM12.9563 109.987H12.7858L12.9563 110.158V109.987ZM47.6485 88.2513C47.7337 88.507 47.6485 88.3366 47.478 88.507C47.6485 88.3366 47.6485 88.2513 47.6485 88.2513ZM4.51766 80.9208H4.43242V80.7503C4.51766 80.7503 4.51766 80.7503 4.51766 80.9208ZM27.7879 57.2244C27.7879 57.2244 28.0436 57.2244 27.8731 57.0539C27.7879 57.0539 27.7879 57.2244 27.7879 57.2244ZM42.3637 96.1785C42.3637 96.0933 42.5342 96.0933 42.5342 96.0933L42.6194 96.1785H42.3637ZM70.7482 90.2118C70.8335 90.3823 70.7482 90.3823 70.663 90.3823C70.663 90.297 70.663 90.297 70.7482 90.2118ZM24.634 58.2472C24.7193 58.0768 24.7193 57.9915 24.7193 57.9915C24.634 57.9915 24.634 58.0768 24.5488 58.0768C24.634 58.0768 24.634 58.162 24.634 58.2472ZM34.0103 100.696C33.925 100.526 34.0103 100.526 34.0955 100.526C34.0955 100.611 34.0955 100.611 34.0103 100.696ZM22.9292 60.1225C23.0145 60.1225 23.0997 60.1225 23.0145 59.952C22.9292 60.0373 22.9292 60.1225 22.9292 60.1225ZM9.97294 71.8002C9.8877 71.715 9.8877 71.715 9.97294 71.715H10.1434C10.1434 71.8002 9.97294 71.8002 9.97294 71.8002ZM11.5925 116.039L11.6777 115.869V115.783C11.5925 115.783 11.5925 115.869 11.5925 115.869V116.039ZM18.1559 64.9811C18.1559 64.9811 18.1559 64.8959 18.2411 64.8959C18.1559 64.8959 18.1559 64.8106 18.1559 64.8106L18.0706 64.8959C18.0706 64.8959 18.0706 64.9811 18.1559 64.9811ZM11.9334 72.4821C12.0187 72.3969 12.0187 72.3117 12.0187 72.3117C11.9334 72.3117 11.8482 72.3117 11.9334 72.4821ZM30.0893 106.237C30.1745 106.237 30.2598 106.237 30.1745 106.066C30.0893 106.151 30.0893 106.237 30.0893 106.237ZM18.1559 102.401V102.316C18.1559 102.23 18.0706 102.06 18.0706 102.316L18.1559 102.401ZM5.79624 78.5341C5.88148 78.7046 5.79624 78.6193 5.711 78.7046C5.711 78.6193 5.711 78.5341 5.79624 78.5341ZM29.9188 54.1558C29.8336 54.1558 29.7483 54.1558 29.7483 54.0705C29.7483 54.241 29.7483 54.3263 29.9188 54.1558ZM44.7504 90.8937C44.8356 91.0642 44.6651 90.979 44.6651 91.0642C44.6651 90.979 44.6651 90.8937 44.7504 90.8937ZM17.474 65.663L17.5592 65.5778L17.474 65.4925C17.3887 65.4925 17.3887 65.5778 17.474 65.663ZM63.9291 95.4114C63.8439 95.4114 63.8439 95.4966 63.8439 95.5818C63.9291 95.4966 64.0144 95.5818 63.9291 95.4114ZM37.6756 50.661H37.5051C37.5051 50.661 37.5051 50.7462 37.6756 50.7462V50.661ZM36.7379 72.3117C36.6527 72.3117 36.4822 72.3969 36.4822 72.4821L36.7379 72.3117ZM38.8689 68.7316L38.7837 68.9021C38.8689 68.9021 38.8689 68.7316 39.0394 68.7316H38.8689ZM21.4802 61.742V61.6568H21.3097C21.3097 61.6568 21.3097 61.742 21.4802 61.742ZM6.47815 77.3407C6.39291 77.3407 6.39291 77.2555 6.39291 77.2555C6.39291 77.2555 6.39291 77.1703 6.47815 77.1703V77.3407ZM28.4698 53.8148L28.555 53.9001C28.4698 53.9001 28.4698 53.9853 28.3845 53.9853C28.3845 53.9001 28.4698 53.9001 28.4698 53.8148ZM44.6651 94.0476L44.7504 94.1328C44.7504 94.218 44.6651 94.218 44.5799 94.218C44.6651 94.218 44.6651 94.1328 44.6651 94.0476ZM33.6693 52.6215C33.7546 52.5362 33.7546 52.5362 33.7546 52.451C33.7546 52.451 33.6693 52.5362 33.5841 52.5362C33.6693 52.5362 33.6693 52.6215 33.6693 52.6215ZM30.0893 82.2846C30.0893 82.2846 30.1745 82.2846 30.1745 82.1141C30.0893 82.1141 30.0893 82.1994 30.0893 82.2846ZM33.3284 101.208C33.3284 101.293 33.4136 101.293 33.4136 101.293C33.3284 101.378 33.3284 101.378 33.2431 101.378C33.2431 101.378 33.3284 101.293 33.3284 101.208ZM22.5883 60.4635C22.6735 60.4635 22.7588 60.3782 22.7588 60.293C22.6735 60.293 22.5883 60.3782 22.5883 60.4635ZM43.6423 93.5361C43.7275 93.5361 43.898 93.5361 43.7275 93.4509L43.6423 93.5361ZM11.9334 112.374C12.0187 112.374 12.0187 112.374 12.0187 112.289C12.0187 112.203 11.9334 112.203 11.9334 112.289V112.374ZM29.7483 106.578C29.8336 106.578 29.9188 106.492 29.9188 106.407C29.8336 106.407 29.7483 106.492 29.7483 106.578ZM41.4261 93.8771C41.4261 93.7918 41.5113 93.7066 41.5965 93.7066C41.5965 93.7918 41.5113 93.8771 41.4261 93.8771ZM37.7608 70.6921C37.6756 70.6921 37.4198 70.6921 37.6756 70.7774C37.6756 70.7774 37.6756 70.6921 37.7608 70.6921ZM41.0851 94.218C41.0851 94.1328 41.1703 94.0476 41.2556 94.0476C41.2556 94.1328 41.1703 94.218 41.0851 94.218ZM39.8918 67.0268C39.8918 67.1973 39.8065 67.1973 39.8065 67.1973C39.8065 67.1973 39.8065 67.2826 39.8918 67.2826V67.0268ZM42.6194 60.9749C42.5342 60.9749 42.2785 60.9749 42.5342 61.0601C42.5342 61.0601 42.5342 60.9749 42.6194 60.9749ZM33.5841 53.3034C33.6693 53.3034 33.7546 53.3034 33.6693 53.1329C33.6693 53.2182 33.6693 53.2182 33.5841 53.3034ZM18.8378 61.742C18.5821 61.6568 18.7525 61.6568 18.8378 61.6568V61.742ZM40.1475 95.0704H40.2327V95.1557H40.1475V95.0704ZM13.9792 108.112H13.8087L13.9792 108.197V108.112ZM41.767 63.9582H41.9375L41.8523 63.873L41.767 63.9582ZM21.6507 62.4239L21.8211 62.3387H21.6507V62.4239ZM18.7525 64.2992C18.8378 64.2992 18.8378 64.2992 18.8378 64.214H18.7525V64.2992ZM33.3284 53.5591C33.4136 53.5591 33.4136 53.4739 33.4136 53.4739C33.4136 53.4739 33.2431 53.4739 33.3284 53.5591ZM62.3948 96.4342H62.2243L62.3948 96.5195V96.4342ZM35.0332 52.6215C35.0332 52.6215 35.0331 52.5362 35.1184 52.5362H34.9479C34.9479 52.5362 34.9479 52.6215 35.0332 52.6215ZM69.8106 90.979V90.8937C69.7253 90.8937 69.7254 90.979 69.6401 90.979H69.8106ZM30.4303 81.4322V81.6027L30.5155 81.4322H30.4303ZM25.8274 58.7587H25.9978L25.8274 58.6734V58.7587ZM27.5321 108.794V108.623L27.4469 108.794H27.5321ZM5.37005 79.3012V79.3865H5.19957L5.37005 79.3012ZM43.898 91.7461V91.6609H43.9832V91.7461H43.898ZM40.9146 94.4737C40.8294 94.4737 40.8294 94.4737 40.8294 94.3885H40.9146V94.4737ZM42.7046 63.9582H42.8751L42.7046 63.873V63.9582ZM40.9146 65.4925C40.8294 65.5778 40.8294 65.5778 40.8294 65.663L40.9146 65.5778V65.4925ZM39.0394 99.2471V99.1619H39.1246C39.1246 99.2471 39.0394 99.2471 39.0394 99.2471ZM41.8523 93.5361H41.767C41.767 93.5361 41.767 93.4509 41.8523 93.4509V93.5361ZM16.4511 64.214C16.4511 64.2992 16.4511 64.2992 16.3659 64.3844C16.4511 64.2992 16.4511 64.214 16.4511 64.214ZM29.4074 106.919C29.4926 106.919 29.5779 106.833 29.5779 106.748C29.4926 106.748 29.4926 106.833 29.4074 106.919ZM30.7712 55.2639L30.8565 55.1787H30.7712V55.2639ZM47.0518 51.3429H46.9666L47.0518 51.4281V51.3429ZM27.4469 54.4967H27.5321L27.4469 54.582V54.4967ZM11.6777 112.971H11.5925V113.056L11.6777 112.971ZM41.5113 49.3824V49.2972H41.4261L41.5113 49.3824ZM29.0664 107.26C29.1517 107.174 29.2369 107.174 29.2369 107.089L29.0664 107.26ZM37.1641 74.1017C37.1641 74.1869 37.1641 74.1869 37.0789 74.1869L37.1641 74.1017ZM12.2744 111.692H12.3596L12.2744 111.607V111.692ZM12.6153 111.01H12.7006L12.6153 110.925V111.01ZM41.5113 66.2597H41.5965L41.5113 66.1745V66.2597ZM42.1932 63.1911L42.108 63.2763H42.1932V63.1911ZM23.6112 60.3782H23.6964V60.293L23.6112 60.3782ZM32.6465 53.9001H32.7317V53.8148L32.6465 53.9001ZM16.792 65.5778H16.8773L16.792 65.4925V65.5778ZM41.1703 95.8376H41.2556L41.1703 95.7523V95.8376ZM40.1475 50.4053L40.2327 50.32H40.1475V50.4053ZM40.4884 66.1745V66.2597H40.5737L40.4884 66.1745ZM18.7525 64.8959H18.8378V64.8106L18.7525 64.8959ZM24.634 111.607V111.692H24.7193L24.634 111.607ZM32.9874 52.8772H33.0727V52.792L32.9874 52.8772ZM27.4469 54.582C27.4469 54.6672 27.4469 54.6672 27.3617 54.6672C27.3617 54.6672 27.4469 54.6672 27.4469 54.582Z" fill="black"/>
<path d="M246.619 37.1408C246.193 37.1408 245.811 37.0716 245.474 36.9333C245.136 36.795 244.865 36.5902 244.66 36.3191C244.461 36.0479 244.356 35.7214 244.345 35.3396H245.855C245.878 35.5554 245.952 35.7214 246.079 35.8376C246.207 35.9483 246.373 36.0037 246.578 36.0037C246.788 36.0037 246.954 35.9566 247.076 35.8625C247.197 35.7629 247.258 35.6274 247.258 35.4558C247.258 35.312 247.208 35.193 247.109 35.0989C247.015 35.0048 246.896 34.9274 246.752 34.8665C246.613 34.8056 246.414 34.7365 246.154 34.659C245.778 34.5428 245.471 34.4266 245.233 34.3104C244.995 34.1942 244.79 34.0226 244.619 33.7958C244.447 33.5689 244.361 33.2728 244.361 32.9076C244.361 32.3653 244.558 31.942 244.951 31.6377C245.344 31.3278 245.855 31.1729 246.486 31.1729C247.128 31.1729 247.645 31.3278 248.038 31.6377C248.431 31.942 248.642 32.3681 248.669 32.9159H247.134C247.123 32.7278 247.053 32.5811 246.926 32.476C246.799 32.3653 246.636 32.31 246.436 32.31C246.265 32.31 246.127 32.357 246.021 32.4511C245.916 32.5396 245.864 32.6697 245.864 32.8412C245.864 33.0294 245.952 33.176 246.129 33.2811C246.306 33.3863 246.583 33.4997 246.959 33.6215C247.336 33.7487 247.64 33.8705 247.872 33.9867C248.11 34.1029 248.315 34.2716 248.487 34.493C248.658 34.7143 248.744 34.9993 248.744 35.3479C248.744 35.6799 248.658 35.9815 248.487 36.2527C248.321 36.5238 248.077 36.7396 247.756 36.9001C247.435 37.0606 247.056 37.1408 246.619 37.1408Z" fill="black"/>
<path d="M251.374 34.1225C251.374 31.4307 249.192 29.2487 246.5 29.2487C243.809 29.2487 241.627 31.4307 241.627 34.1225C241.627 36.8142 243.809 38.9963 246.5 38.9963V39.9247C243.296 39.9247 240.698 37.3269 240.698 34.1225C240.698 30.918 243.296 28.3203 246.5 28.3203C249.705 28.3203 252.303 30.918 252.303 34.1225C252.303 37.3269 249.705 39.9247 246.5 39.9247V38.9963C249.192 38.9963 251.374 36.8142 251.374 34.1225Z" fill="black"/>
<path d="M62.7928 137.323H60.6573V137.187C60.9714 137.093 61.0761 136.852 61.0761 135.994V131.325C61.0761 130.467 60.9714 130.226 60.6573 130.132V129.996H63.1068C64.7189 129.996 65.3784 130.53 65.3784 131.377C65.3784 132.089 64.9178 132.738 63.7245 132.958C65.4307 133.042 66.1844 133.89 66.1949 134.916C66.2158 136.088 65.3365 137.323 62.7928 137.323ZM62.887 137.166C64.5933 137.166 65.2423 136.339 65.2423 135.177C65.2423 133.973 64.5724 133.094 63.0022 133.094H61.9344V136.256C61.9344 137.009 62.0286 137.166 62.4788 137.166H62.887ZM62.908 132.937C63.9443 132.937 64.4258 132.33 64.4258 131.566C64.4258 130.697 63.8082 130.153 62.73 130.153H61.9344V132.937H62.908ZM69.7048 137.428C68.5534 137.428 67.2239 136.59 67.2239 134.863C67.2239 133.157 68.5115 132.016 69.977 132.016C71.296 132.016 72.0601 132.874 72.0915 133.869H67.9986C67.9776 134.026 67.9672 134.183 67.9672 134.35C67.9672 135.784 68.8569 136.768 70.2178 136.768C71.0238 136.768 71.5995 136.402 72.0811 135.858L72.1753 135.952C71.6414 136.685 70.8249 137.428 69.7048 137.428ZM68.03 133.733H71.2541C71.1494 133.031 70.5841 132.204 69.6316 132.204C68.7418 132.194 68.1975 132.853 68.03 133.733ZM73.0151 137.323V137.187C73.3396 137.093 73.4338 136.852 73.4338 135.994V130.446C73.4338 129.713 73.2977 129.608 73.0151 129.483V129.368L74.1561 128.865L74.2503 128.938V132.979C74.8574 132.487 75.6635 132.016 76.4695 132.016C77.4954 132.016 78.1234 132.613 78.1234 133.837V135.994C78.1234 136.852 78.2281 137.093 78.5422 137.187V137.323H76.8882V137.187C77.2127 137.093 77.3069 136.852 77.3069 135.994V134.047C77.3069 132.958 76.8464 132.361 75.9252 132.361C75.3494 132.361 74.7842 132.707 74.2503 133.147V135.994C74.2503 136.852 74.355 137.093 74.669 137.187V137.323H73.0151ZM79.4435 137.323V137.187C79.768 137.093 79.8622 136.852 79.8622 135.994V133.586C79.8622 132.853 79.7366 132.749 79.4435 132.623V132.508L80.5949 132.006L80.6787 132.079V135.994C80.6787 136.852 80.7834 137.093 81.0974 137.187V137.323H79.4435ZM80.2076 131.367C79.8831 131.367 79.6319 131.105 79.6319 130.791C79.6319 130.456 79.8831 130.205 80.2076 130.205C80.5426 130.205 80.7834 130.456 80.7834 130.791C80.7834 131.105 80.5321 131.367 80.2076 131.367ZM82.1087 137.323V137.187C82.4332 137.093 82.5274 136.852 82.5274 135.994V133.586C82.5274 132.853 82.4018 132.749 82.1087 132.623V132.508L83.2602 132.006L83.3439 132.079V132.979C83.9511 132.487 84.7571 132.016 85.5631 132.016C86.589 132.016 87.2171 132.613 87.2171 133.837V135.994C87.2171 136.852 87.3217 137.093 87.6358 137.187V137.323H85.9818V137.187C86.3064 137.093 86.4006 136.852 86.4006 135.994V134.047C86.4006 132.958 85.94 132.361 85.0188 132.361C84.4431 132.361 83.8778 132.707 83.3439 133.147V135.994C83.3439 136.852 83.4486 137.093 83.7626 137.187V137.323H82.1087ZM90.8911 137.438C89.5931 137.428 88.5777 136.308 88.5777 134.832C88.5777 133.377 89.5722 132.037 91.3727 132.026C91.9484 132.026 92.4299 132.204 92.7963 132.435V130.446C92.7963 129.713 92.6602 129.608 92.3776 129.483V129.368L93.5291 128.865L93.6128 128.938V135.994C93.6128 136.852 93.707 137.093 94.0315 137.187V137.323H93.1104C92.9115 137.323 92.7963 137.208 92.7963 137.009V136.413C92.2834 136.946 91.6344 137.449 90.8911 137.438ZM89.3628 134.204C89.3628 135.429 89.9386 136.925 91.3622 136.925C91.9065 136.925 92.3881 136.643 92.7963 136.224V133.659C92.7021 132.979 91.9275 132.225 91.0482 132.225C89.9386 132.225 89.3628 133.094 89.3628 134.204Z" fill="black"/>
<path d="M197.361 137.323H195.225V137.187C195.54 137.093 195.644 136.852 195.644 135.994V131.325C195.644 130.467 195.54 130.226 195.225 130.132V129.996H197.675C199.287 129.996 199.947 130.53 199.947 131.377C199.947 132.089 199.486 132.738 198.293 132.958C199.999 133.042 200.753 133.89 200.763 134.916C200.784 136.088 199.905 137.323 197.361 137.323ZM197.455 137.166C199.161 137.166 199.81 136.339 199.81 135.177C199.81 133.973 199.141 133.094 197.57 133.094H196.503V136.256C196.503 137.009 196.597 137.166 197.047 137.166H197.455ZM197.476 132.937C198.512 132.937 198.994 132.33 198.994 131.566C198.994 130.697 198.376 130.153 197.298 130.153H196.503V132.937H197.476ZM204.273 137.428C203.122 137.428 201.792 136.59 201.792 134.863C201.792 133.157 203.08 132.016 204.545 132.016C205.864 132.016 206.628 132.874 206.66 133.869H202.567C202.546 134.026 202.535 134.183 202.535 134.35C202.535 135.784 203.425 136.768 204.786 136.768C205.592 136.768 206.168 136.402 206.649 135.858L206.743 135.952C206.21 136.685 205.393 137.428 204.273 137.428ZM202.598 133.733H205.822C205.718 133.031 205.152 132.204 204.2 132.204C203.31 132.194 202.766 132.853 202.598 133.733ZM211.636 137.323C211.426 137.323 211.322 137.208 211.322 137.009V135.125C210.997 136.413 210.118 137.428 209.081 137.428C208.307 137.428 207.616 136.957 207.616 136.057C207.616 134.968 208.715 134.56 209.961 134.214L211.322 133.848C211.269 132.832 210.746 132.361 209.856 132.361C209.228 132.361 208.621 132.655 208.097 133.293L208.003 133.209C208.6 132.466 209.364 132.016 210.275 132.016C211.541 132.016 212.128 132.717 212.128 133.9V135.994C212.128 136.852 212.222 137.093 212.546 137.187V137.323H211.636ZM208.401 135.764C208.401 136.444 208.872 136.81 209.469 136.81C210.589 136.81 211.311 135.397 211.322 134.298V134.005V133.984L210.003 134.34C209.228 134.56 208.39 134.905 208.401 135.764ZM215.396 137.428C214.297 137.428 213.795 136.727 213.795 135.523V133.586C213.795 132.853 213.659 132.749 213.376 132.623V132.508L214.517 132.006L214.611 132.079V135.334C214.611 136.528 214.946 137.062 215.784 137.062C216.401 137.062 216.967 136.674 217.438 136.172V133.586C217.438 132.853 217.302 132.749 217.019 132.623V132.508L218.16 132.006L218.254 132.079V135.994C218.254 136.852 218.348 137.093 218.673 137.187V137.323H217.783C217.553 137.323 217.438 137.208 217.438 136.905V136.371C216.904 136.925 216.182 137.428 215.396 137.428ZM221.336 137.428C220.677 137.428 220.279 137.02 220.279 135.931V132.236H219.609V132.089L220.949 130.802H221.095V132.089H222.686L222.634 132.236H221.095V135.931C221.095 136.643 221.388 136.915 221.838 136.915C222.132 136.915 222.498 136.779 222.843 136.371L222.938 136.465C222.487 136.978 221.954 137.428 221.336 137.428ZM223.584 139.344C223.176 139.354 222.872 139.218 222.872 139.05C222.872 138.852 223.134 138.475 223.521 138.475C223.793 138.475 224.359 138.632 224.84 138.715C225.207 138.401 225.531 137.889 225.793 137.344L224.076 133.314C223.751 132.529 223.49 132.32 223.27 132.225V132.089H224.851V132.225C224.537 132.32 224.62 132.529 224.955 133.314L226.243 136.308L227.53 133.314C227.823 132.634 227.803 132.299 227.436 132.225V132.089H228.598V132.225C228.305 132.32 228.033 132.529 227.687 133.314L226.065 137.062C225.175 139.113 224.254 139.333 223.584 139.344Z" fill="black"/>
<line x1="96.5303" y1="134.015" x2="192.486" y2="134.015" stroke="black" stroke-width="0.193851"/>
</svg>
