<svg width="251" height="122" viewBox="0 0 251 122" fill="none" xmlns="http://www.w3.org/2000/svg">
<path d="M200.209 65.1388L196.593 61.6343C192.996 64.3786 188.694 65.7507 183.688 65.7507C180.684 65.7507 178.07 65.2686 175.844 64.3044C173.619 63.3031 171.895 61.9125 170.671 60.1324C169.484 58.3153 168.891 56.2015 168.891 53.791C168.891 51.3434 169.54 49.1369 170.838 47.1714C172.173 45.1688 174.157 43.5371 176.79 42.2762C175.826 41.0895 175.14 39.9584 174.732 38.883C174.324 37.7705 174.12 36.5652 174.12 35.2673C174.12 33.413 174.602 31.7257 175.566 30.2052C176.531 28.6847 177.921 27.498 179.738 26.6451C181.593 25.7551 183.781 25.3101 186.302 25.3101C188.861 25.3101 191.031 25.7736 192.811 26.7007C194.591 27.6278 195.926 28.8702 196.816 30.4277C197.706 31.9853 198.114 33.6912 198.04 35.5454H189.084C189.121 34.5441 188.861 33.7839 188.305 33.2647C187.786 32.7084 187.081 32.4303 186.191 32.4303C185.301 32.4303 184.559 32.6899 183.966 33.2091C183.373 33.7282 183.076 34.3958 183.076 35.2116C183.076 35.9904 183.317 36.8063 183.799 37.6592C184.318 38.5121 185.116 39.4949 186.191 40.6074L195.703 49.8971C195.777 49.7117 195.87 49.4892 195.981 49.2296C196.13 48.97 196.278 48.6733 196.426 48.3395L198.485 44.8351H207.997L205.327 49.6746C204.325 51.8626 203.176 53.9393 201.878 55.9048L211.279 65.1388H200.209ZM184.133 58.0742C186.618 58.0742 188.824 57.3696 190.752 55.9604L182.075 47.5608C179.405 48.9329 178.07 50.7871 178.07 53.1234C178.07 54.5327 178.607 55.7194 179.683 56.6836C180.795 57.6107 182.279 58.0742 184.133 58.0742Z" fill="white"/>
<path d="M161.89 64.902H152.583L137.018 41.3367V64.902H127.712V26.6968H137.018L152.583 50.371V26.6968H161.89V64.902Z" fill="white"/>
<path d="M109.207 34.1528V41.8809H121.67V49.0648H109.207V57.446H123.303V64.902H99.9009V26.6968H123.303V34.1528H109.207Z" fill="white"/>
<path d="M81.3962 34.1528V41.8809H93.8592V49.0648H81.3962V57.446H95.4919V64.902H72.0898V26.6968H95.4919V34.1528H81.3962Z" fill="white"/>
<path d="M54.0629 65.2828C51.2692 65.2828 48.7657 64.8293 46.5525 63.9222C44.3392 63.0151 42.5614 61.6727 41.219 59.8949C39.9128 58.117 39.2234 55.9764 39.1509 53.4729H49.0559C49.2011 54.8879 49.6909 55.9764 50.5254 56.7383C51.3599 57.4639 52.4483 57.8268 53.7908 57.8268C55.1695 57.8268 56.258 57.5184 57.0562 56.9016C57.8544 56.2485 58.2535 55.3596 58.2535 54.2348C58.2535 53.2915 57.927 52.5114 57.2739 51.8946C56.6571 51.2778 55.877 50.7699 54.9337 50.3708C54.0266 49.9717 52.7205 49.5181 51.0152 49.0102C48.548 48.2483 46.5343 47.4863 44.9742 46.7244C43.414 45.9625 42.0716 44.8377 40.9469 43.3501C39.8221 41.8626 39.2597 39.9215 39.2597 37.5268C39.2597 33.9712 40.5477 31.1956 43.1238 29.2001C45.6998 27.1682 49.0559 26.1523 53.1921 26.1523C57.4009 26.1523 60.7933 27.1682 63.3693 29.2001C65.9453 31.1956 67.3241 33.9893 67.5055 37.5813H57.4371C57.3646 36.3477 56.9111 35.3862 56.0766 34.6968C55.2421 33.9712 54.1717 33.6084 52.8656 33.6084C51.7408 33.6084 50.8338 33.9167 50.1444 34.5335C49.455 35.1141 49.1104 35.9667 49.1104 37.0914C49.1104 38.325 49.6909 39.2865 50.8519 39.9759C52.0129 40.6653 53.8271 41.409 56.2943 42.2073C58.7614 43.0417 60.757 43.84 62.2808 44.6019C63.841 45.3638 65.1834 46.4704 66.3082 47.9217C67.4329 49.373 67.9953 51.2415 67.9953 53.5273C67.9953 55.7043 67.4329 57.6816 66.3082 59.4595C65.2197 61.2373 63.6233 62.6523 61.5189 63.7045C59.4145 64.7567 56.9292 65.2828 54.0629 65.2828Z" fill="white"/>
<path d="M49.3144 11.3268C50.1631 11.5077 50.8448 11.932 51.3596 12.5998C51.8744 13.2538 52.1317 14.0051 52.1317 14.8538C52.1317 16.0781 51.7004 17.052 50.8378 17.7755C49.9891 18.4851 48.7996 18.8398 47.2691 18.8398H40.4448V4.18941H47.0396C48.5283 4.18941 49.69 4.53028 50.5248 5.21202C51.3735 5.89376 51.7978 6.81897 51.7978 7.98767C51.7978 8.85028 51.5683 9.5668 51.1091 10.1372C50.6639 10.7077 50.0657 11.1042 49.3144 11.3268ZM44.0135 10.1164H46.3509C46.9352 10.1164 47.3804 9.99115 47.6865 9.74071C48.0065 9.47636 48.1665 9.09376 48.1665 8.59289C48.1665 8.09202 48.0065 7.70941 47.6865 7.44506C47.3804 7.18071 46.9352 7.04854 46.3509 7.04854H44.0135V10.1164ZM46.6431 15.9598C47.2413 15.9598 47.7004 15.8277 48.0204 15.5633C48.3544 15.2851 48.5213 14.8885 48.5213 14.3738C48.5213 13.859 48.3474 13.4555 47.9996 13.1633C47.6657 12.8711 47.1996 12.7251 46.6013 12.7251H44.0135V15.9598H46.6431ZM58.1877 7.04854V10.012H62.9668V12.7668H58.1877V15.9807H63.5929V18.8398H54.619V4.18941H63.5929V7.04854H58.1877ZM76.8663 4.18941V7.04854H72.9845V18.8398H69.4158V7.04854H65.5341V4.18941H76.8663ZM99.2347 4.18941L95.4156 18.8398H91.0956L88.7582 9.1981L86.3373 18.8398H82.0173L78.3025 4.18941H82.1216L84.2295 14.8538L86.8382 4.18941H90.7616L93.266 14.8538L95.3947 4.18941H99.2347ZM105.011 7.04854V10.012H109.79V12.7668H105.011V15.9807H110.416V18.8398H101.442V4.18941H110.416V7.04854H105.011ZM116.719 7.04854V10.012H121.498V12.7668H116.719V15.9807H122.124V18.8398H113.15V4.18941H122.124V7.04854H116.719ZM137.964 18.8398H134.396L128.427 9.80332V18.8398H124.858V4.18941H128.427L134.396 13.2677V4.18941H137.964V18.8398ZM165.968 4.18941L162.149 18.8398H157.829L155.492 9.1981L153.071 18.8398H148.751L145.036 4.18941H148.855L150.963 14.8538L153.572 4.18941H157.495L160 14.8538L162.128 4.18941H165.968ZM180.864 4.18941V18.8398H177.296V12.8085H171.744V18.8398H168.176V4.18941H171.744V9.92854H177.296V4.18941H180.864ZM192.978 16.252H187.51L186.633 18.8398H182.898L188.199 4.18941H192.331L197.632 18.8398H193.854L192.978 16.252ZM192.06 13.4972L190.244 8.13376L188.449 13.4972H192.06ZM210.202 4.18941V7.04854H206.32V18.8398H202.751V7.04854H198.869V4.18941H210.202ZM213.224 4.18941H216.876L214.539 9.78245H212.139L213.224 4.18941ZM224.691 18.9859C223.619 18.9859 222.659 18.812 221.811 18.4642C220.962 18.1164 220.28 17.6016 219.766 16.9198C219.265 16.2381 219 15.4172 218.973 14.4572H222.771C222.826 14.9998 223.014 15.4172 223.334 15.7094C223.654 15.9877 224.072 16.1268 224.586 16.1268C225.115 16.1268 225.533 16.0085 225.839 15.772C226.145 15.5216 226.298 15.1807 226.298 14.7494C226.298 14.3877 226.173 14.0885 225.922 13.852C225.686 13.6155 225.386 13.4207 225.025 13.2677C224.677 13.1146 224.176 12.9407 223.522 12.7459C222.576 12.4538 221.804 12.1616 221.206 11.8694C220.607 11.5772 220.093 11.1459 219.661 10.5755C219.23 10.0051 219.014 9.26071 219.014 8.34245C219.014 6.97897 219.508 5.91463 220.496 5.14941C221.484 4.37028 222.771 3.98071 224.357 3.98071C225.971 3.98071 227.272 4.37028 228.259 5.14941C229.247 5.91463 229.776 6.98593 229.846 8.36332H225.985C225.957 7.89028 225.783 7.52158 225.463 7.25723C225.143 6.97897 224.733 6.83984 224.232 6.83984C223.8 6.83984 223.453 6.9581 223.188 7.19463C222.924 7.41723 222.792 7.74419 222.792 8.17549C222.792 8.64854 223.014 9.01723 223.459 9.28158C223.905 9.54593 224.6 9.83115 225.546 10.1372C226.493 10.4572 227.258 10.7633 227.842 11.0555C228.44 11.3477 228.955 11.772 229.386 12.3285C229.818 12.8851 230.033 13.6016 230.033 14.4781C230.033 15.3129 229.818 16.0711 229.386 16.7529C228.969 17.4346 228.357 17.9772 227.55 18.3807C226.743 18.7842 225.79 18.9859 224.691 18.9859Z" fill="white"/>
<path d="M246.36 79.3156C246.286 80.3533 247.101 81.1687 244.062 82.3546C242.58 82.9476 241.172 83.3923 239.615 83.9111C239.096 84.2817 238.578 84.3558 238.133 84.3558C237.614 84.3558 237.392 84.5041 237.54 85.0229C237.54 85.0229 237.318 85.0971 237.095 85.2453L229.09 88.5066C226.941 89.3219 224.569 90.2114 222.642 90.8785C221.456 91.5456 220.418 91.842 219.38 92.1385C218.194 92.5832 217.008 92.5832 215.748 92.3609C215.452 92.1385 214.859 91.842 214.488 91.6197C214.118 91.2491 213.525 90.6561 213.228 90.2114C212.932 89.7667 212.784 89.3219 212.784 88.8031C212.709 86.3571 212.784 83.9111 213.599 81.6134C213.969 80.8722 214.192 80.0568 214.34 79.3898C214.488 79.0192 214.562 78.3521 214.562 77.7591C214.562 77.2403 214.488 77.1661 214.118 77.5367C212.339 78.1297 210.634 78.7968 209.078 79.3898C208.114 79.8345 207.521 80.3533 206.632 80.7981C205.446 81.6134 204.186 82.3546 203 83.244C202.555 83.6888 201.591 83.6888 201.147 84.3558C198.701 85.8383 196.699 87.8395 194.698 89.7667C194.327 90.0631 193.957 90.5079 193.66 90.8044C192.993 91.842 192.03 92.7315 190.844 93.3245C190.547 93.6209 190.399 93.9174 190.103 94.2139C189.88 94.288 189.287 94.288 188.991 93.9915C188.398 92.9538 187.731 91.842 188.398 90.582C188.62 89.989 188.917 89.0996 189.287 88.5066C189.658 87.6172 190.103 86.9501 190.473 86.0606C190.547 85.8383 190.696 85.3935 191.066 85.0971C192.697 82.6511 193.957 79.8345 194.772 76.9438C195.143 76.1285 195.662 75.9061 196.329 76.1285C197.144 76.5732 197.811 77.0179 198.33 77.7591C198.626 78.0556 198.404 78.2038 198.33 78.3521C197.737 79.0933 197.218 79.8345 197.144 80.7981C196.922 81.0945 196.699 81.391 196.625 81.7616C195.736 83.3182 194.772 84.8747 194.105 86.3571C193.957 86.6536 193.66 87.0242 193.66 87.3948C193.809 87.3948 193.957 87.3948 194.105 87.3207C195.588 86.283 196.922 85.3935 198.33 84.2817C199.887 83.0217 201.147 81.7616 203 80.8722C203.889 80.0568 205.075 79.6862 206.039 79.0933C207.002 78.2038 208.114 77.7591 209.3 77.0179C210.189 76.7955 210.782 76.2767 211.449 75.9061C212.042 75.4614 212.932 75.1649 213.599 74.8684C214.34 74.4237 215.007 74.4978 215.674 74.4978C215.748 74.4978 216.045 74.7202 216.193 74.8684C216.564 75.3872 217.157 75.9802 217.527 76.5732C217.601 76.7955 217.601 77.1661 217.527 77.5367C217.157 79.3156 216.712 81.0945 216.267 82.9476C216.045 84.2817 215.674 85.7641 215.378 87.0242C215.081 87.3948 215.007 87.9136 215.007 88.4325C214.859 89.2478 215.378 89.4702 216.267 89.3219C218.343 89.2478 220.196 88.5807 221.975 88.136C223.309 87.3207 224.939 87.0242 226.348 86.3571C227.608 85.8383 228.72 85.2453 230.054 84.8006C231.833 84.2817 233.611 83.3923 235.242 82.9476C236.873 82.2063 238.281 81.7616 239.986 81.0945C241.32 80.3533 242.802 80.0568 244.211 79.3156C244.655 79.0192 245.471 79.1674 246.138 79.0933C246.286 79.0933 246.36 79.1674 246.36 79.3156ZM244.655 81.2428C244.804 81.2428 244.804 81.1687 244.804 81.1687C244.655 81.0945 244.581 80.8722 244.581 81.0945C243.692 81.1687 243.025 81.391 242.135 81.7616C242.061 81.8357 241.765 82.1322 241.542 81.984C240.579 81.7616 239.838 82.3546 238.874 82.6511C238.578 82.6511 238.874 83.3182 238.133 83.3182C237.91 83.3182 237.614 83.3923 237.392 83.5405C237.021 83.6888 236.576 83.837 236.354 83.837C235.168 84.2817 233.982 84.5782 232.944 85.0229C232.722 85.0971 232.426 85.2453 232.426 85.4677C232.944 85.7641 233.389 85.4677 233.908 85.3935C235.835 84.8747 237.54 83.837 239.393 83.5405C239.467 83.3923 239.615 83.3923 239.838 83.3182C240.208 82.7252 240.949 82.9476 241.32 82.6511C242.728 82.4287 243.618 81.7616 244.655 81.2428ZM229.461 86.5795C230.054 86.5795 230.795 86.5795 231.24 85.9865C230.573 85.8383 229.98 86.0606 229.461 86.4312V86.5795ZM228.201 87.0242C228.645 87.1724 229.09 87.1724 229.312 86.6536C229.164 86.6536 228.942 86.5795 228.72 86.5795C228.497 86.5795 228.423 86.6536 228.201 87.0242ZM231.24 85.9865C231.758 85.9865 232.203 86.0606 232.351 85.4677H231.833C231.536 85.4677 231.24 85.7641 231.24 85.9865ZM221.159 89.6925C221.382 89.6925 221.604 89.6925 221.752 89.3219H220.937L220.863 89.4702C220.937 89.4702 220.937 89.6925 221.159 89.6925ZM222.345 89.2478C222.642 89.2478 222.79 89.2478 222.79 89.0255C222.642 89.0255 221.975 88.8031 221.826 89.2478H222.345Z" fill="white"/>
<path d="M195.711 81.5395C196.23 81.836 196.527 82.6513 196.082 83.0219C196.082 83.1701 195.711 83.2443 195.637 83.2443C194.377 83.3925 193.34 83.9855 192.08 84.5043C190.227 85.3196 188.373 85.9867 186.595 86.7279C186.372 86.8762 186.076 86.8762 186.002 87.0244C184.519 88.1362 182.666 88.4327 181.11 89.3222C179.479 89.9892 177.848 90.7305 176.292 91.4717C174.068 92.7317 171.622 93.6212 169.028 93.9918C168.583 94.14 168.287 94.14 167.99 94.5106C166.508 95.1036 165.248 94.5847 163.988 94.14C163.172 93.9176 162.579 93.547 162.061 93.0282C161.171 92.3611 160.801 91.3975 160.504 90.5081C160.208 88.8774 160.208 88.581 160.504 87.2468L161.023 86.2832C162.209 83.6149 163.988 81.4654 166.211 79.6865C168.287 77.7593 170.436 76.0546 172.956 74.7204C173.623 74.2015 174.661 73.7568 175.625 73.6086C176.292 73.3121 177.181 73.238 177.848 72.9415C178.812 72.2744 179.627 72.1262 180.517 72.7191C180.665 72.9415 180.887 72.7191 181.184 72.9415C181.48 73.0156 181.925 73.0897 181.999 73.238C182.592 73.7568 182.963 74.498 183.185 74.8686C183.778 75.9063 183.778 76.944 183.037 77.7593C182.073 78.9453 181.48 80.2794 179.998 80.8724L178.96 81.5395C176.959 83.1701 174.513 83.9114 172.067 84.282C171.4 84.5784 170.585 84.5043 169.917 84.5043C168.954 84.5043 167.768 84.282 166.582 84.282C166.36 84.282 166.211 84.282 165.915 84.5784C164.729 86.2832 163.247 87.8397 162.579 89.7669C162.357 90.5081 162.654 90.9528 163.172 91.1752C163.988 91.3975 164.951 91.8423 165.693 91.3975C167.323 91.3975 168.954 90.8787 170.436 90.5081C171.696 90.2857 173.031 89.4704 174.216 89.0998C175.625 88.4327 176.737 87.8397 177.997 87.1727C178.367 87.6174 178.367 87.6174 178.738 87.1727C179.257 86.6538 179.924 86.2832 180.665 85.9867C180.813 85.6902 181.184 85.6902 181.628 85.542C184.074 84.5043 186.595 83.2443 188.892 82.2807C189.634 81.836 190.301 81.7619 191.042 81.4654C191.635 81.243 192.376 80.8724 192.895 80.5018C193.858 80.2053 194.451 80.2794 195.044 81.0948C195.267 81.3171 195.489 81.4654 195.711 81.5395ZM167.546 82.4289C167.471 82.5031 167.027 82.9478 167.101 83.1701C167.323 83.3925 167.768 83.1701 167.99 83.1701C168.287 83.0219 168.583 83.0219 168.954 83.0219V83.1701C169.621 83.0219 170.51 82.9478 171.103 82.7995C171.993 82.5031 172.66 82.2807 173.623 81.836C175.625 81.243 177.255 80.3536 178.812 79.1676C179.627 78.7229 180.294 77.8335 180.665 76.944C180.887 76.7216 180.887 76.2769 180.887 75.9063C181.11 75.5357 180.813 75.3875 180.517 75.091C180.294 74.8686 179.998 75.1651 179.924 75.3875C179.85 75.684 179.479 75.7581 179.034 75.7581C177.404 75.9063 175.773 76.351 174.365 77.2405C172.512 78.1299 171.029 79.39 169.547 80.5018L167.546 82.4289Z" fill="white"/>
<path d="M168.929 81.5395C169.448 81.836 169.745 82.6513 169.3 83.0219C169.3 83.1701 168.929 83.2443 168.855 83.2443C167.595 83.3925 166.557 83.9855 165.297 84.5043C163.444 85.3196 161.591 85.9867 159.812 86.7279C159.59 86.8762 159.294 86.8762 159.219 87.0244C157.737 88.1362 155.884 88.4327 154.327 89.3222C152.697 89.9892 151.066 90.7305 149.51 91.4717C147.286 92.7317 144.84 93.6212 142.246 93.9918C141.801 94.14 141.505 94.14 141.208 94.5106C139.726 95.1036 138.466 94.5847 137.206 94.14C136.39 93.9176 135.797 93.547 135.278 93.0282C134.389 92.3611 134.018 91.3975 133.722 90.5081C133.425 88.8774 133.425 88.581 133.722 87.2468L134.241 86.2832C135.427 83.6149 137.206 81.4654 139.429 79.6865C141.505 77.7593 143.654 76.0546 146.174 74.7204C146.841 74.2015 147.879 73.7568 148.843 73.6086C149.51 73.3121 150.399 73.238 151.066 72.9415C152.03 72.2744 152.845 72.1262 153.734 72.7191C153.883 72.9415 154.105 72.7191 154.402 72.9415C154.698 73.0156 155.143 73.0897 155.217 73.238C155.81 73.7568 156.18 74.498 156.403 74.8686C156.996 75.9063 156.996 76.944 156.255 77.7593C155.291 78.9453 154.698 80.2794 153.216 80.8724L152.178 81.5395C150.177 83.1701 147.731 83.9114 145.285 84.282C144.618 84.5784 143.802 84.5043 143.135 84.5043C142.172 84.5043 140.986 84.282 139.8 84.282C139.577 84.282 139.429 84.282 139.133 84.5784C137.947 86.2832 136.464 87.8397 135.797 89.7669C135.575 90.5081 135.871 90.9528 136.39 91.1752C137.206 91.3975 138.169 91.8423 138.91 91.3975C140.541 91.3975 142.172 90.8787 143.654 90.5081C144.914 90.2857 146.248 89.4704 147.434 89.0998C148.842 88.4327 149.954 87.8397 151.214 87.1727C151.585 87.6174 151.585 87.6174 151.956 87.1727C152.474 86.6538 153.142 86.2832 153.883 85.9867C154.031 85.6902 154.402 85.6902 154.846 85.542C157.292 84.5043 159.812 83.2443 162.11 82.2807C162.851 81.836 163.518 81.7619 164.26 81.4654C164.853 81.243 165.594 80.8724 166.113 80.5018C167.076 80.2053 167.669 80.2794 168.262 81.0948C168.484 81.3171 168.707 81.4654 168.929 81.5395ZM140.763 82.4289C140.689 82.5031 140.244 82.9478 140.319 83.1701C140.541 83.3925 140.986 83.1701 141.208 83.1701C141.505 83.0219 141.801 83.0219 142.172 83.0219V83.1701C142.839 83.0219 143.728 82.9478 144.321 82.7995C145.211 82.5031 145.878 82.2807 146.841 81.836C148.842 81.243 150.473 80.3536 152.03 79.1676C152.845 78.7229 153.512 77.8335 153.883 76.944C154.105 76.7216 154.105 76.2769 154.105 75.9063C154.327 75.5357 154.031 75.3875 153.734 75.091C153.512 74.8686 153.216 75.1651 153.142 75.3875C153.067 75.684 152.697 75.7581 152.252 75.7581C150.621 75.9063 148.991 76.351 147.582 77.2405C145.729 78.1299 144.247 79.39 142.765 80.5018L140.763 82.4289Z" fill="white"/>
<path d="M138.153 83.3188C137.856 83.6894 137.708 83.6894 137.411 83.3188C137.115 83.3188 136.522 83.2447 136.225 83.5411H136.448C136.448 83.6153 136.374 83.6894 136.3 83.6894H136.744V83.9117C136.225 84.2823 135.929 84.5047 135.262 84.8012C134.595 85.0235 133.928 85.3942 133.187 85.9871C133.112 85.9871 132.816 85.9871 132.519 86.0612C131.482 86.6542 130.37 87.173 129.258 87.8401C128.517 87.8401 129.184 88.5813 128.517 88.5813C128.22 88.7296 127.85 89.1002 127.331 89.2484C126.442 89.9896 125.552 90.5085 124.514 91.1756C123.699 91.1756 123.254 91.7685 122.661 92.1391C121.92 92.4356 121.846 92.8062 121.846 93.4733C121.92 94.2145 121.92 94.8075 122.068 95.4004C122.439 96.7346 122.068 97.9206 121.624 99.0324C121.031 100.885 120.29 101.552 118.807 102.887C117.844 103.85 116.806 104.666 115.842 105.481C115.398 106 114.656 106.37 114.063 106.444C113.322 106.667 112.729 106.667 112.21 106.889C111.099 107.853 109.987 107.408 108.801 106.889C107.911 106.444 107.022 106.222 106.355 105.777C105.391 105.481 104.872 104.888 104.65 103.924C104.279 102.887 104.205 101.923 104.798 100.885C104.872 100.663 105.021 100.589 105.243 100.218C106.725 98.81 108.43 97.6241 110.209 96.5864C110.95 95.9934 111.84 95.4746 112.729 94.8816C114.656 93.7698 116.435 92.4356 118.511 91.2497C118.881 90.8791 119.029 90.6567 118.585 90.212C118.214 89.2484 117.473 88.4331 116.954 87.3954C115.991 85.8389 115.101 83.9117 114.063 82.3552C113.396 81.3916 113.396 80.3539 113.322 79.3904C113.248 78.6492 113.396 77.8338 114.063 77.1668C114.656 76.5738 115.62 75.9067 116.435 75.6843C117.695 75.6102 119.029 75.1655 120.364 75.3879C122.217 75.462 123.403 76.4255 124.589 77.6115C125.033 78.0562 124.885 78.5009 124.514 78.7974C123.625 79.3163 122.439 79.168 121.55 78.3527C121.327 78.1303 121.327 78.0562 121.179 78.3527C120.957 79.168 120.66 79.3163 120.067 79.0939C119.326 78.6492 118.807 79.0198 118.214 79.168C117.695 79.3904 117.251 79.8351 116.806 80.2798C116.287 80.6504 115.991 81.1693 116.287 81.8364C116.361 83.0223 116.954 84.06 117.547 85.0977C118.511 86.5801 119.474 87.9143 120.067 89.3225C120.364 90.0638 120.586 90.0638 121.327 89.6932C123.254 88.4331 125.404 87.3213 127.627 86.2836C127.85 86.0612 127.998 85.9871 128.295 85.9871C128.22 86.2836 127.998 86.4318 127.998 86.5801C128.739 86.6542 129.184 86.2836 129.703 85.9871C129.777 85.9871 129.925 85.8389 129.999 85.7648C129.777 85.7648 129.48 85.4683 129.406 85.7648C128.962 85.8389 128.739 85.9871 128.295 85.9871C128.443 85.7648 128.517 85.4683 128.739 85.3942C130.889 84.5047 133.112 83.5411 135.188 82.4293H135.929V82.9482C135.558 83.0223 135.262 82.9482 135.188 83.3188C135.484 83.3188 135.781 83.3188 136.077 82.9482C136.225 82.7258 136.151 82.6517 136.077 82.4293C136.077 82.3552 136.151 82.207 136.225 82.1328C137.411 81.614 138.82 81.1693 140.006 80.8728C140.895 80.7987 140.747 80.7987 141.562 81.3916C141.859 81.614 142.081 81.7622 141.933 82.1328L141.34 82.4293C140.895 82.6517 140.45 82.6517 140.154 82.7258C139.487 82.9482 139.19 82.9482 138.82 82.6517C138.597 82.4293 138.301 82.6517 138.227 82.9482H138.153C137.782 82.9482 137.634 82.9482 137.411 83.3188H138.153ZM117.695 100.663C119.474 98.81 120.512 96.7346 119.845 93.918C118.585 94.6592 117.473 95.2522 116.435 96.0675C114.879 97.4758 113.322 98.5135 111.543 99.4771C110.061 100.218 108.875 101.182 107.911 102.368C107.837 102.516 107.615 102.738 107.615 102.887C107.541 103.035 107.615 103.109 107.837 103.109C108.282 103.331 109.023 103.405 109.616 103.628C110.431 103.85 111.173 103.85 112.062 103.628C112.359 103.628 112.729 103.405 113.1 103.405C114.582 103.109 115.768 102.738 116.658 101.552C116.954 101.182 117.325 101.034 117.695 100.663ZM126.812 88.1366C127.627 88.4331 127.998 88.1366 128.295 87.3954H127.702C127.627 87.8401 127.109 87.8401 126.812 87.8401C126.96 87.3954 127.257 87.3954 127.627 87.3954V87.173C126.812 87.0248 126.367 87.0248 126.071 87.8401H126.812V88.1366ZM126.071 88.5813C126.367 88.5813 126.738 88.5813 126.738 88.1366H126.071V87.8401C125.404 87.8401 124.885 87.9143 124.589 88.5813H125.7L126.071 88.1366V88.5813ZM133.038 85.0977C133.187 85.0977 133.483 85.0977 133.631 84.8012H133.038C133.038 84.5047 133.112 84.2823 133.187 84.06C132.519 83.9117 132.149 84.2823 131.852 84.8012H133.038V85.0977ZM122.736 89.6932C123.403 89.6932 124.07 89.3225 124.514 88.5813C123.625 88.8037 123.106 89.0261 122.736 89.6932ZM135.188 83.5411V83.3188H134.891C134.669 83.3188 134.669 83.3929 134.595 83.3929C134.669 83.5411 134.669 83.5411 134.891 83.5411C134.965 83.6894 135.114 83.6894 135.188 83.6894V83.9117C135.558 83.9117 136.077 84.2823 136.225 83.6894V83.5411H135.188ZM121.55 90.5085C122.068 90.5085 122.513 90.212 122.661 89.7673C122.068 89.6932 121.624 89.9896 121.55 90.5085ZM131.334 85.9871C131.852 85.9871 132.001 85.9871 132.149 85.4683C131.852 85.4683 131.482 85.4683 131.334 85.9871ZM118.214 92.3615V92.4356L118.288 92.5839C118.511 92.4356 118.807 92.3615 119.029 92.1391C119.029 92.1391 119.029 92.065 118.881 92.065C118.585 92.065 118.437 92.065 118.214 92.3615ZM128.295 87.3954C128.739 87.3954 128.962 87.5437 129.184 87.173C128.739 87.0248 128.443 87.0248 128.295 87.3954ZM129.184 87.0248C129.406 87.173 129.777 87.0248 129.777 86.6542C129.48 86.5801 129.258 86.5801 129.184 87.0248ZM130.592 86.2836C130.963 86.3577 131.259 86.3577 131.334 85.9871C130.963 85.9871 130.741 85.8389 130.592 86.2836Z" fill="white"/>
<path d="M114.406 79.3156C114.332 80.3533 115.147 81.1687 112.108 82.3546C110.625 82.9476 109.217 83.3923 107.661 83.9111C107.142 84.2817 106.623 84.3558 106.178 84.3558C105.659 84.3558 105.437 84.5041 105.585 85.0229C105.585 85.0229 105.363 85.0971 105.141 85.2453L97.1355 88.5066C94.986 89.3219 92.6142 90.2114 90.687 90.8785C89.5011 91.5456 88.4634 91.842 87.4257 92.1385C86.2398 92.5832 85.0538 92.5832 83.7938 92.3609C83.4973 92.1385 82.9043 91.842 82.5337 91.6197C82.1631 91.2491 81.5702 90.6561 81.2737 90.2114C80.9772 89.7667 80.829 89.3219 80.829 88.8031C80.7548 86.3571 80.829 83.9111 81.6443 81.6134C82.0149 80.8722 82.2373 80.0568 82.3855 79.3898C82.5337 79.0192 82.6079 78.3521 82.6079 77.7591C82.6079 77.2403 82.5337 77.1661 82.1631 77.5367C80.3842 78.1297 78.6795 78.7968 77.1229 79.3898C76.1594 79.8345 75.5664 80.3533 74.6769 80.7981C73.491 81.6134 72.231 82.3546 71.045 83.244C70.6003 83.6888 69.6367 83.6888 69.192 84.3558C66.746 85.8383 64.7448 87.8395 62.7435 89.7667C62.3729 90.0631 62.0023 90.5079 61.7058 90.8044C61.0387 91.842 60.0752 92.7315 58.8892 93.3245C58.5928 93.6209 58.4445 93.9174 58.148 94.2139C57.9257 94.288 57.3327 94.288 57.0362 93.9915C56.4433 92.9538 55.7762 91.842 56.4432 90.582C56.6656 89.989 56.9621 89.0996 57.3327 88.5066C57.7033 87.6172 58.148 86.9501 58.5186 86.0606C58.5928 85.8383 58.741 85.3935 59.1116 85.0971C60.7423 82.6511 62.0023 79.8345 62.8176 76.9438C63.1882 76.1285 63.7071 75.9061 64.3742 76.1285C65.1895 76.5732 65.8566 77.0179 66.3754 77.7591C66.6719 78.0556 66.4495 78.2038 66.3754 78.3521C65.7825 79.0933 65.2636 79.8345 65.1895 80.7981C64.9671 81.0945 64.7448 81.391 64.6706 81.7616C63.7812 83.3182 62.8176 84.8747 62.1505 86.3571C62.0023 86.6536 61.7058 87.0242 61.7058 87.3948C61.8541 87.3948 62.0023 87.3948 62.1505 87.3207C63.633 86.283 64.9671 85.3935 66.3754 84.2817C67.932 83.0217 69.192 81.7616 71.045 80.8722C71.9345 80.0568 73.1204 79.6862 74.084 79.0933C75.0476 78.2038 76.1594 77.7591 77.3453 77.0179C78.2347 76.7955 78.8277 76.2767 79.4948 75.9061C80.0878 75.4614 80.9772 75.1649 81.6443 74.8684C82.3855 74.4237 83.0526 74.4978 83.7197 74.4978C83.7938 74.4978 84.0903 74.7202 84.2385 74.8684C84.6091 75.3872 85.2021 75.9802 85.5727 76.5732C85.6468 76.7955 85.6468 77.1661 85.5727 77.5367C85.2021 79.3156 84.7574 81.0945 84.3126 82.9476C84.0903 84.2817 83.7197 85.7641 83.4232 87.0242C83.1267 87.3948 83.0526 87.9136 83.0526 88.4325C82.9043 89.2478 83.4232 89.4702 84.3126 89.3219C86.388 89.2478 88.241 88.5807 90.0199 88.136C91.3541 87.3207 92.9848 87.0242 94.3931 86.3571C95.6531 85.8383 96.7649 85.2453 98.0991 84.8006C99.878 84.2817 101.657 83.3923 103.288 82.9476C104.918 82.2063 106.326 81.7616 108.031 81.0945C109.365 80.3533 110.848 80.0568 112.256 79.3156C112.701 79.0192 113.516 79.1674 114.183 79.0933C114.332 79.0933 114.406 79.1674 114.406 79.3156ZM112.701 81.2428C112.849 81.2428 112.849 81.1687 112.849 81.1687C112.701 81.0945 112.627 80.8722 112.627 81.0945C111.737 81.1687 111.07 81.391 110.181 81.7616C110.107 81.8357 109.81 82.1322 109.588 81.984C108.624 81.7616 107.883 82.3546 106.919 82.6511C106.623 82.6511 106.919 83.3182 106.178 83.3182C105.956 83.3182 105.659 83.3923 105.437 83.5405C105.066 83.6888 104.622 83.837 104.399 83.837C103.213 84.2817 102.027 84.5782 100.99 85.0229C100.767 85.0971 100.471 85.2453 100.471 85.4677C100.99 85.7641 101.435 85.4677 101.953 85.3935C103.881 84.8747 105.585 83.837 107.438 83.5405C107.512 83.3923 107.661 83.3923 107.883 83.3182C108.254 82.7252 108.995 82.9476 109.365 82.6511C110.774 82.4287 111.663 81.7616 112.701 81.2428ZM97.5061 86.5795C98.0991 86.5795 98.8403 86.5795 99.285 85.9865C98.6179 85.8383 98.025 86.0606 97.5061 86.4312V86.5795ZM96.2461 87.0242C96.6908 87.1724 97.1355 87.1724 97.3579 86.6536C97.2096 86.6536 96.9873 86.5795 96.7649 86.5795C96.5425 86.5795 96.4684 86.6536 96.2461 87.0242ZM99.285 85.9865C99.8039 85.9865 100.249 86.0606 100.397 85.4677H99.878C99.5815 85.4677 99.285 85.7641 99.285 85.9865ZM89.2046 89.6925C89.427 89.6925 89.6493 89.6925 89.7976 89.3219H88.9822L88.9081 89.4702C88.9822 89.4702 88.9822 89.6925 89.2046 89.6925ZM90.3905 89.2478C90.687 89.2478 90.8353 89.2478 90.8353 89.0255C90.687 89.0255 90.0199 88.8031 89.8717 89.2478H90.3905Z" fill="white"/>
<path d="M38.529 83.0222C38.3066 83.0222 38.2325 82.948 38.2325 82.7257H37.6396L36.9725 83.6151C36.4536 84.0598 36.0089 84.4304 35.7124 85.0234C35.8607 85.0234 36.083 84.9493 36.3054 84.8011C36.3795 84.8011 36.3795 84.801 36.4536 84.9493V85.0975C36.1571 85.5423 35.8607 86.1352 35.4159 86.4317C35.2677 86.8764 34.9712 86.5058 34.823 86.4317C34.823 86.2093 34.823 85.987 35.1194 85.9129C35.4901 85.6905 35.7124 85.394 35.7124 85.0234C35.4159 85.0975 35.1936 85.394 34.823 85.3199V85.0975C34.6747 85.0975 34.6006 85.2458 34.5265 85.3199H34.823C34.823 85.5423 34.6747 85.6164 34.5265 85.6164C34.3041 86.1352 33.9335 86.4317 33.4888 86.7282C33.4147 86.8023 33.3405 86.7282 33.1182 86.8023C33.1923 87.0988 33.0441 87.3212 32.8217 87.4694L31.4134 88.9518C31.6358 89.1001 31.9323 88.8777 32.0064 89.2483C31.9323 89.3965 31.8581 89.3965 31.8581 89.3965C31.8581 89.4707 31.9323 89.4707 32.0064 89.5448C31.7099 90.1377 31.2652 90.4342 30.8204 90.7307C30.4498 91.2495 29.931 91.546 29.6345 91.9908C29.4863 92.2872 29.2639 92.4355 28.9674 92.4355C28.6709 92.4355 28.6709 92.5096 28.7451 92.732C28.7451 92.8061 28.7451 92.8802 28.6709 93.0284L25.4096 96.1415C25.3355 96.3639 25.1131 96.2898 24.9649 96.3639C24.9649 96.5862 24.9649 96.7345 24.8167 96.8827C24.4461 97.2533 24.1496 97.6239 23.779 97.9204C22.8895 98.6616 22.2966 99.4028 21.4812 99.9958C21.1106 100.218 20.8141 100.589 20.5177 100.959C20.2953 101.182 20.0729 101.256 19.9988 101.478C19.6282 102.071 18.9611 102.368 18.5164 102.887C18.1458 103.479 17.5528 103.85 16.9599 104.147C16.7375 104.221 16.6634 104.443 16.441 104.665C15.8481 105.258 15.181 105.629 14.5139 105.851C13.6986 106 13.0315 106.222 12.2903 106.222C11.3267 106.222 10.7337 105.703 9.99253 105.332C9.69604 104.74 8.95484 104.369 8.88072 103.628C8.80659 103.479 8.8066 103.331 8.8066 103.257C7.91715 102.294 8.28775 101.182 8.36187 100.07C8.8066 98.5134 9.1772 97.1792 9.99253 95.845L10.289 94.9556C10.3631 94.6591 10.4373 94.3626 10.6596 94.2144C11.0302 93.6955 11.3267 93.0284 11.5491 92.2872C11.6973 91.8425 12.142 91.6202 12.2903 91.2496C12.5126 90.8048 12.5868 90.2119 12.8832 89.9895C13.4762 89.3965 13.6986 88.5812 14.2174 87.9141C14.8104 87.0247 15.2551 86.1352 15.7739 85.2458C15.9963 84.9493 16.1445 84.5046 16.5893 84.2081C16.7375 84.0598 16.441 83.8375 16.6634 83.6151C16.7375 83.541 17.034 83.541 16.8858 83.3186C16.8858 83.2445 16.9599 83.1704 16.9599 83.1704C17.2564 83.0222 17.4787 82.8739 17.5528 82.5774C17.7752 82.3551 18.0717 82.1327 18.1458 81.8362L18.5164 81.095C18.7388 80.8727 18.8129 80.5762 19.0352 80.2797C19.2576 79.9091 19.3317 79.3902 19.7765 79.242C19.9988 79.242 20.0729 78.9455 20.0729 78.7973C20.0729 78.5008 20.2212 78.3525 20.3694 78.1302C20.6659 77.8337 20.9624 77.6113 21.1848 77.8337C21.4071 78.1302 21.1106 78.3526 20.9624 78.5008C20.5918 79.242 19.9988 79.6867 19.7765 80.4279C18.8129 81.5397 18.2199 82.948 17.3305 84.134C16.8858 84.7269 16.3669 85.3199 16.0704 85.987C15.8481 86.7282 15.4033 87.3212 15.1069 87.9882L14.2915 89.1742C13.995 89.4707 13.7727 89.9895 13.6244 90.3601L11.5491 94.0661C11.4008 94.2885 11.4008 94.5109 11.4008 94.585C11.5491 94.5109 11.6973 94.5109 11.8455 94.2885C12.4385 93.3249 13.0315 92.4355 13.6244 91.3237C13.7727 90.8048 14.2174 90.4342 14.3656 89.8413C14.5139 89.3965 14.8845 88.9518 15.181 88.5071H15.2551C15.4033 88.3588 15.2551 88.2847 15.4033 88.2106C15.8481 87.4694 16.1445 86.5799 16.7375 85.9129C17.3305 85.3199 17.7752 84.5046 18.1458 83.7634L19.3317 82.0586C19.3317 81.9845 19.5541 81.9845 19.6282 81.9845C19.5541 82.0586 19.5541 82.2809 19.5541 82.4292C19.4059 82.5774 19.3317 82.6516 19.5541 82.7257C19.9247 83.0222 19.9988 82.948 20.3694 82.4292C20.2953 82.4292 20.2953 82.3551 20.2212 82.3551C20.2953 82.2809 20.2953 82.2809 20.3694 82.2809V82.4292C20.5177 82.4292 20.5177 82.3551 20.5918 82.2809H20.3694C20.5918 81.9845 20.5918 81.5397 20.9624 81.3915C20.9624 81.4656 20.9624 81.688 21.1848 81.4656C21.1106 81.4656 21.1106 81.4656 20.9624 81.3915L21.2589 80.7985C21.4071 80.4279 21.2589 79.9091 22.0001 80.2056L22.3707 79.6126C22.4448 79.3902 22.7413 79.3902 22.9636 79.3902C22.9636 79.3161 22.8895 79.242 22.8895 79.242C22.6672 79.0196 22.6672 78.7973 22.9636 78.7973H23.2601C23.186 78.7232 23.0378 78.649 23.0378 78.4267C22.8895 78.1302 23.0378 77.8337 23.4825 77.8337C23.5566 77.8337 23.779 77.9078 23.779 77.7596C23.779 77.3149 24.0755 77.0184 24.2237 76.7219C24.4461 76.5737 24.3719 76.0548 24.8167 75.9807C25.1131 75.2395 25.5579 74.6465 26.0026 74.0535C26.1508 73.9794 26.0026 73.7571 26.1508 73.6829C26.1508 73.4606 26.5214 73.3865 26.7438 73.4606C26.8179 73.4606 26.892 73.7571 26.892 73.7571C26.4473 74.35 25.9285 74.943 25.632 75.6842C24.9649 76.2772 24.6684 77.2407 24.1496 77.9078C23.8531 78.3526 23.6307 78.649 23.2601 78.7973C23.2601 79.0938 23.3343 79.3161 22.9636 79.3902C22.9636 79.9091 22.6672 80.2056 22.4448 80.502C22.0742 81.1691 21.7036 81.7621 21.1848 82.3551C20.2212 83.7634 19.4059 85.3199 18.4423 86.7282L17.3305 88.5812L17.1822 88.9518C16.441 89.5448 16.3669 90.4342 15.7739 91.0272C15.9963 91.3978 15.5516 91.6202 15.4033 91.9166C15.2551 92.2872 14.9586 92.5837 14.9586 93.0284C14.9586 93.1026 14.8845 93.3249 14.8104 93.3249C14.2174 93.6214 14.0692 94.0661 13.9209 94.6591C13.9209 94.8815 13.6244 95.1038 13.4762 95.2521C13.4762 95.4003 13.6244 95.5485 13.4762 95.7709L12.5868 96.9568C12.8091 97.5498 12.4385 97.9204 12.2161 98.3651C11.8455 99.0322 11.6232 99.9217 11.4008 100.663C11.3267 101.108 11.1043 101.478 11.1043 101.849C11.1043 102.145 10.7337 102.368 11.0302 102.664C11.2526 102.961 10.8079 103.183 10.8079 103.479C10.9561 103.554 11.0302 103.628 11.1043 103.628C11.5491 103.776 11.9197 103.628 12.2903 103.479C13.6244 102.887 14.8104 102.368 15.8481 101.552C16.1445 101.404 16.441 101.256 16.7375 101.182C17.034 100.959 17.2564 100.885 17.3305 100.589C17.4787 100.589 17.5528 100.515 17.627 100.292C18.1458 100.292 18.4423 99.9217 18.7388 99.4028H18.1458C18.7388 98.6616 19.5541 98.0687 20.2212 97.2533L20.5918 96.9568C20.8141 96.8827 20.9624 96.9568 20.9624 97.1792C22.0001 96.7345 22.6672 96.0674 23.2601 95.1779H22.6672C22.7413 94.8815 22.9636 94.6591 23.2601 94.6591V95.1779L23.9272 94.585L28.6709 89.8413C28.7451 89.8413 28.8933 89.693 28.8933 89.5448H28.5968C28.5968 89.5448 28.4486 89.4707 28.3745 89.4707L28.5968 89.1742L28.8933 88.9518V89.5448L30.6722 88.2106C30.8204 88.0624 30.8204 87.7659 30.8204 87.6176C30.524 87.6918 30.3757 87.9141 30.0792 87.9141C30.2275 87.3212 30.7463 87.0247 31.2652 86.5799H31.3393C31.3393 86.7282 31.4134 86.8023 31.3393 86.8023C31.3393 87.0247 31.2652 87.1729 31.1169 87.3212C31.3393 87.3212 31.5617 87.3212 31.6358 87.1729L32.8958 85.987C33.4888 85.394 34.0076 84.801 34.823 84.3563C35.1936 84.134 35.4901 83.6151 35.7865 83.3186C36.083 83.0222 36.3054 82.7257 36.676 82.6515C37.1207 82.3551 37.4172 81.8362 37.6396 81.3915H38.0102C39.0478 80.4279 40.0855 79.6867 40.975 78.649V78.5008H40.8267C40.6785 78.5008 40.6044 78.4267 40.5303 78.4267C40.6044 78.3526 40.6044 78.2043 40.6785 78.2043C40.8267 78.1302 40.9009 78.0561 40.975 78.0561V78.5008C41.7162 78.3526 42.1609 77.8337 42.7539 77.4631L45.8669 74.6465C46.0152 74.4983 46.0893 74.2759 46.0893 74.0535C45.9411 74.0535 45.7187 73.9794 45.5705 73.9794C45.6446 73.6088 46.0152 73.4606 46.2376 73.1641C46.8305 72.7194 47.2752 72.1264 47.5717 71.4593C47.72 71.1628 47.8682 71.0146 48.1647 70.9405C48.3871 70.8664 48.6094 70.7181 48.7577 70.8664C49.2024 71.0146 49.4989 71.1628 49.8695 71.237C50.2401 71.3111 50.6848 71.6076 50.9813 72.0523C51.1295 72.2005 51.2778 72.497 51.1295 72.7935C50.833 73.4606 50.5365 74.2018 49.9436 74.7948C49.2765 75.7583 48.6835 76.6478 48.3129 77.8337C48.1647 78.4267 47.8682 78.9455 47.72 79.5385C47.5717 79.9832 47.2752 80.502 47.127 81.095C47.127 81.2433 46.9046 81.3915 46.9788 81.5397C46.9788 82.0586 46.8305 82.3551 46.6823 82.7257C46.6823 82.948 46.9046 83.1704 46.9046 83.2445C46.6082 83.8375 46.9046 84.2081 46.9046 84.7269C46.9788 85.2458 47.2011 85.5423 47.72 85.6164C48.6094 85.9129 49.3506 85.987 50.2401 85.6164C51.7225 85.5423 53.0567 84.7269 54.3167 83.9116L56.5403 82.4292C56.7627 82.3551 56.9851 82.2809 57.0592 82.0586L60.3946 79.0938C60.617 78.9455 60.6911 78.7232 60.9135 78.649C60.9876 78.5008 61.2099 78.5008 61.2841 78.5008C61.4323 78.3526 61.4323 78.1302 61.5064 78.0561C61.8029 77.6113 62.1735 77.3149 62.47 77.0184C62.47 77.0184 62.6182 77.0184 62.6924 76.9443C62.6924 77.0184 62.7665 77.2407 62.7665 77.2407C62.3217 77.7596 62.0253 78.2043 61.4323 78.5008C61.4323 78.7973 61.2841 79.0196 61.5805 79.0938C61.4323 79.9091 60.9135 81.0209 60.3205 81.2433C59.9499 81.5397 59.7275 81.9845 59.431 82.1327C59.1346 82.3551 59.0604 82.7257 58.8381 83.0222L58.5416 83.541C57.3557 84.5046 56.4662 85.8387 54.9838 86.5058C54.5391 87.0988 53.7237 87.4694 53.0567 87.7659C52.6119 87.9882 52.3155 88.3588 52.019 88.5812C51.9448 88.6553 51.6484 88.8036 51.5742 88.6553C50.9813 88.3588 50.4624 88.5071 49.8695 88.5071C49.7953 88.5071 49.573 88.5071 49.4989 88.3588C48.3871 87.7659 47.127 87.6918 46.3117 86.5799C45.5705 86.2093 45.1257 85.5423 44.8293 84.7269C44.681 84.134 44.681 83.541 44.3845 82.948C44.0881 82.4292 44.2363 81.8362 43.9398 81.3915V81.095C44.2363 80.502 44.0881 79.9091 44.3845 79.3161C44.5328 78.9455 44.5328 78.4267 44.681 78.0561V77.8337H44.4587L44.0881 78.1302C43.8657 78.3525 43.8657 78.1302 43.8657 77.9078V77.7596C43.5692 77.8337 43.3468 77.9078 43.2727 78.2043L43.0504 78.4267C43.0504 78.4267 43.1986 78.3525 43.2727 78.3525C43.3468 78.3525 43.5692 78.4267 43.5692 78.5008C43.5692 78.649 43.4951 78.7232 43.3468 78.7973H42.9762V78.5008C42.9021 78.5008 42.6798 78.5008 42.6056 78.649C42.0127 79.0938 41.4938 79.6126 40.975 80.2056C40.9009 80.2797 40.6044 80.2797 40.5303 80.4279C40.382 80.7985 40.0114 81.0209 39.6408 81.2433C39.0478 81.688 38.529 82.0586 38.2325 82.7257H38.7514C38.6031 82.8739 38.6031 83.0222 38.529 83.0222ZM32.2287 63.3802L32.3029 63.2319C32.3029 63.3802 32.3029 63.3802 32.2287 63.3802C32.5252 63.3802 32.7476 63.2319 32.8217 63.5284C32.5252 63.7508 32.3029 63.899 32.2287 64.1955C32.2287 64.4179 32.0064 64.492 31.9323 64.6402C31.6358 64.7885 31.5617 64.7143 31.4134 64.4179H31.1169C31.1169 64.0473 31.2652 63.7508 31.7099 63.5284C31.7099 63.4543 31.6358 63.2319 31.7099 63.1578L32.8958 61.3789C32.8958 61.3789 33.0441 61.3789 33.1182 61.3048C33.0441 60.8601 33.3405 60.5636 33.4888 60.2671C34.23 59.3035 34.823 58.1917 35.49 57.154C35.8607 56.6352 36.083 56.0422 36.1571 55.4492C36.083 55.5234 35.8607 55.5234 35.7865 55.7457C35.4159 56.7093 34.6006 57.5988 33.9335 58.6364L33.1923 59.5259C33.0441 59.6741 33.1182 60.1189 32.8958 60.4153C32.7476 60.7118 32.5993 60.8601 32.2287 61.0824C32.0064 61.1565 32.0064 61.3789 31.9323 61.6013H32.0064V61.6754C32.0064 61.6754 32.1546 61.6754 32.2287 61.7495C32.0064 61.8978 32.0064 61.7495 32.0064 61.6754L31.9323 61.6013C31.8581 61.7495 31.6358 61.9719 31.4134 62.046C31.2652 62.2684 31.0428 62.3425 30.8204 62.4907C30.9687 62.2684 30.9687 62.046 31.0428 61.9719L33.7112 57.747C34.0818 56.9317 34.6747 56.3387 35.1194 55.5234C35.1194 55.4492 35.1936 55.4492 35.1936 55.3751C36.1571 53.3739 37.4172 51.7432 38.3066 49.742L39.6408 46.8512C39.9373 46.11 40.0114 45.2947 39.9373 44.4053C39.7891 44.257 39.7149 44.1088 39.4926 44.1088C38.8255 44.1088 38.2325 44.0347 37.5654 44.3311C36.676 44.3311 35.8607 44.7017 34.9712 44.9241C33.7112 45.443 32.4511 45.8877 31.2652 46.703L30.6722 47.0736C30.3757 47.1477 29.931 47.3701 29.5604 47.3701C29.2639 47.4442 29.1898 47.8889 28.8933 48.0372C28.0039 48.3337 27.3368 48.9266 26.5214 49.5196C25.7061 50.0384 24.8167 50.409 24.1496 51.1502L23.186 51.8915C22.8895 52.1879 22.6672 52.6327 22.3707 52.7068C20.8141 53.3739 19.9247 54.7822 18.7388 55.8198C18.2199 56.2646 17.8493 56.7093 17.3305 57.2281C16.0704 58.4141 14.8845 59.8224 13.7727 61.1565C13.7727 61.3789 13.6986 61.453 13.6244 61.6013C12.5126 62.639 11.5491 63.8249 10.7337 65.0849C10.4373 65.5297 10.289 65.9003 9.84429 66.1968C9.5478 66.4932 9.47368 66.8638 9.1772 67.3086C8.95484 67.6792 8.80659 68.198 8.51011 68.4945C7.91715 69.0875 7.62067 69.9769 7.10182 70.5699L6.80534 71.0146C6.13825 72.3488 5.61941 73.7571 4.72996 74.943L3.54403 78.1302C3.84051 78.7232 3.46991 79.242 3.24754 79.835V80.2056C3.24754 80.8727 3.02518 81.5397 2.95106 82.2809C2.87694 82.4292 2.65458 82.7257 2.7287 82.948C2.95106 83.4669 2.87694 83.9116 2.95106 84.4304C3.02518 84.7269 3.24754 84.9493 3.32166 85.0975C3.4699 85.2458 3.32166 85.394 3.32166 85.5423C3.24754 85.6164 3.17342 85.6164 3.02518 85.6164C2.65458 85.5423 2.28397 85.394 1.98749 85.0234C1.61689 84.6528 1.3204 84.2081 1.02392 83.8375C0.579198 83.1704 0.282715 82.3551 0.282715 81.4656C0.282715 79.9091 0.579198 78.4267 1.3204 77.0184C1.3204 76.8701 1.39453 76.9443 1.46865 77.0184C1.61689 77.2407 1.61689 77.5372 1.76513 77.0184C1.98749 76.7219 2.06161 76.3513 2.06161 76.0548C1.91337 76.0548 1.76513 76.2772 1.76513 76.3513L1.69101 76.4254C1.61689 76.4254 1.61689 76.4254 1.61689 76.3513C1.61689 76.2772 1.46865 76.1289 1.46865 76.1289L2.13573 74.7948C2.13573 74.6465 2.13573 74.6465 2.28397 74.6465V74.7948C2.35809 74.943 2.35809 75.0912 2.35809 75.2395L2.43222 75.3877H2.58046C2.65458 75.0912 2.87694 74.8689 2.87694 74.5724C2.95106 74.0535 3.24754 73.6088 3.54403 73.1641L3.76639 73.0159C3.91463 71.904 4.72996 71.1628 5.2488 70.2734L6.80534 67.3827C6.87946 67.1603 7.0277 67.0121 7.17594 66.7897C7.3983 66.4932 7.76891 66.1968 7.76891 65.6779C7.76891 65.5297 7.91715 65.3073 8.06539 65.0849C8.51011 64.7143 8.8066 64.1214 9.1772 63.6766C10.0666 62.639 10.8079 61.453 11.6973 60.4153L12.142 59.8224L15.8481 55.8198C15.9963 55.6716 16.0704 55.4492 16.2928 55.2269C16.3669 55.1528 16.5893 55.1528 16.7375 55.0786C16.7375 54.708 16.8858 54.708 17.3305 54.5598C17.3305 54.708 17.3305 54.7822 17.5528 54.708C17.4787 54.708 17.3305 54.5598 17.3305 54.5598C17.4787 54.1151 17.8493 53.8927 18.1458 53.5221C18.3682 53.3739 18.5164 53.6704 18.6646 53.5962C18.7388 53.3739 18.7388 53.2256 18.7388 53.0774C18.8129 52.9291 19.0352 52.7809 19.2576 52.9291C19.3317 53.0033 19.4059 53.0774 19.5541 53.0774C19.5541 52.6327 19.7023 52.1879 19.9247 51.8915C19.9988 51.7432 20.2212 51.7432 20.3694 52.0397C20.2953 52.0397 20.0729 52.0397 20.2953 52.1879C20.2953 52.1138 20.3694 52.1138 20.3694 52.0397C20.5177 51.8915 20.5918 51.8915 20.5918 51.8915C20.6659 51.2985 20.9624 50.9279 21.4071 50.6314L23.0378 49.4455C23.3343 49.2231 23.6307 48.9266 23.8531 48.6301H23.779V48.556H23.2601C23.3343 48.1854 23.6307 48.0372 24.0755 48.0372L23.779 48.556H23.8531V48.6301C24.4461 48.6301 24.6684 48.2595 24.9649 47.7407L24.7425 47.5925C24.8167 47.5925 24.8167 47.5925 24.9649 47.4442V47.7407C25.1131 47.7407 25.3355 47.7407 25.5579 47.5925C25.7061 47.4442 25.9285 47.4442 26.0026 47.4442C26.1508 47.1477 26.2991 47.0736 26.5956 46.9995C26.892 46.7771 27.1144 46.703 27.1885 46.4065C27.7815 46.2583 28.3003 46.11 28.5968 45.5171C28.8933 45.5171 29.0415 45.5912 29.1898 45.2206L28.9674 44.9982C29.0415 44.9982 29.0415 44.9982 29.1898 44.9241V45.2206C29.338 45.2206 29.6345 45.2947 29.7828 44.9241H29.1898C29.2639 44.6276 29.4863 44.5535 29.6345 44.4053C29.7828 44.4053 29.8569 44.4053 29.931 44.5535C29.931 44.5535 29.931 44.6276 29.8569 44.6276C29.8569 44.7017 29.7828 44.85 29.7828 44.9241C30.6722 44.7017 31.7099 44.257 32.2287 43.8123C32.0064 43.8123 31.8581 43.8123 31.6358 43.7382C31.5617 43.7382 31.5617 43.7382 31.5617 43.6641H31.6358C31.8581 43.5158 32.0064 43.5158 32.2287 43.5158V43.8123H32.5252L32.7476 43.6641C32.6735 43.6641 32.5993 43.5158 32.5252 43.5158H32.3029C32.5252 43.1452 32.8217 43.0711 33.1923 43.0711C34.0818 42.7746 34.8971 42.3299 35.8607 42.3299C36.083 42.3299 36.1571 42.2558 36.3795 42.1816H36.676C37.0466 42.9229 37.5654 42.2558 38.0102 42.3299C38.7514 42.4781 39.3443 42.3299 40.0114 42.6264C40.0855 42.7746 40.3079 42.7746 40.382 42.7746C40.8267 43.2193 41.2715 43.5158 41.5679 44.1088C41.8644 44.6276 42.0868 45.2206 42.1609 45.8136C42.1609 46.8512 42.0868 47.9631 41.7903 48.9266C40.975 51.002 40.0114 53.0033 38.8996 54.8563C38.7514 55.2269 38.529 55.6716 38.2325 56.0422C38.1584 56.2646 38.0102 56.4128 38.0102 56.5611C37.8619 56.8575 37.3431 56.7093 37.3431 57.2281C37.3431 57.4505 37.1207 57.747 37.0466 58.0435C36.7501 58.6364 36.4536 59.3035 36.0089 59.6741C35.7865 59.9706 35.7124 59.6741 35.5642 59.6V59.3776L35.4159 59.6V59.8965C35.7124 60.4153 35.5642 60.7118 35.1936 61.0824L34.3782 62.3425C34.23 62.639 34.0076 62.9354 33.7112 63.0837V62.4907L33.0441 62.9354C32.8217 63.0837 32.5993 62.9354 32.5252 62.7872C32.2287 62.8613 32.3029 63.0837 32.2287 63.3802ZM27.7815 70.1251C27.6333 70.1251 27.4109 70.2734 27.1885 70.3475V69.9769L28.5968 67.9756C28.5968 67.9015 28.7451 67.9015 28.8933 67.7533V68.3463C29.0415 68.3463 29.2639 68.3463 29.4863 68.198C29.6345 68.0498 29.6345 68.2721 29.7828 68.3463V68.6427H29.931C29.931 69.2357 29.6345 69.6804 29.1898 69.8287C28.8933 69.9769 29.0415 70.051 29.0415 70.2734V70.5699C28.7451 70.8664 28.6709 71.1628 28.3003 71.237C28.3003 71.0146 28.2262 70.9405 28.0039 70.9405H27.485C27.6333 70.644 27.7815 70.4216 27.7815 70.1251ZM17.034 86.5058C16.3669 86.8764 16.0704 87.6918 15.8481 88.5071C16.1445 88.3588 16.3669 88.0624 16.6634 88.3588C16.6634 88.5071 16.9599 88.3588 16.8858 88.2106C16.7375 87.9141 16.7375 87.6918 17.034 87.6176C17.5528 87.3953 17.627 86.8023 18.1458 86.5058C18.1458 85.987 18.5164 85.6905 18.4423 85.2458C18.4423 85.0234 18.5164 84.9493 18.7388 84.7269C18.9611 84.6528 19.2576 84.3563 19.4059 84.134C19.6282 83.9116 19.6282 83.8375 19.2576 83.6151L19.0352 83.3186C18.5164 83.6151 18.4423 84.2081 18.1458 84.7269C17.627 85.2458 17.3305 85.9129 17.034 86.5058ZM26.7438 68.4945C26.892 68.0498 27.3368 67.6792 27.7815 67.605C27.7074 67.6792 27.7815 67.9015 27.7074 67.9756C27.4109 68.3463 27.1144 68.8651 26.892 69.3839L26.2991 69.9769C26.1508 70.2734 25.7061 70.4216 25.7061 70.9405C25.7061 70.9405 25.7061 71.1628 25.632 71.1628C24.7425 71.8299 24.7425 73.09 23.779 73.6088C23.6307 73.6829 23.6307 73.6829 23.5566 73.6829C23.5566 73.3123 23.779 72.8676 23.9272 72.5711C24.2237 72.2005 24.7425 71.904 24.7425 71.3111L24.8167 71.1628C25.4096 70.9405 25.5579 70.4216 25.7061 69.9769L26.1508 69.2357L26.7438 68.4945ZM25.8544 94.3626C26.0026 94.3626 26.225 94.2885 26.4473 94.0661L27.3368 93.3249C27.7074 93.0284 28.0039 92.5837 28.3003 92.2872C28.5968 92.2131 28.7451 91.9908 28.9674 91.8425C29.338 91.1013 29.931 90.5083 30.7463 90.1377L31.3393 89.4707C31.3393 89.3965 31.4134 89.1742 31.4134 88.9518C31.2652 88.9518 30.9687 89.1001 30.8204 89.1742C30.3757 89.5448 30.1534 90.0636 29.6345 90.3601C29.1898 90.6566 28.8933 91.1013 28.4486 91.546L28.078 91.8425C27.9297 91.9908 27.7074 92.2131 27.6333 92.4355L25.8544 94.3626ZM19.4059 100.292C19.4059 100.292 19.4059 100.218 19.5541 100.218L19.3317 99.9958L18.2199 100.663C17.7752 100.885 17.3305 101.108 17.1822 101.701C17.1822 101.849 16.9599 101.997 16.6634 101.775H16.3669C16.0704 102.294 15.5516 102.368 15.2551 102.664C14.9586 102.738 14.8104 102.961 14.588 103.183V103.257C14.588 103.331 14.6621 103.331 14.8104 103.479C14.8845 103.331 15.181 103.331 15.4033 103.257L16.2928 102.738C16.8858 102.442 17.4787 102.071 17.9234 101.552C18.4423 101.182 18.9611 100.811 19.4059 100.292ZM26.4473 73.0159C26.2991 72.7935 26.4473 72.7194 26.5956 72.5711L26.2991 72.1264C26.225 72.0523 26.1508 72.0523 26.0026 72.0523C26.225 71.3111 26.4473 70.7181 27.1885 70.3475L27.485 70.9405V71.237H28.3003C28.3003 71.3111 28.3745 71.4593 28.3003 71.4593C28.2262 71.7558 27.7815 72.3488 27.485 72.5711C27.4109 72.7935 27.4109 73.0159 27.3368 73.09H27.1144C27.1144 73.09 27.0403 72.8676 27.1144 72.8676L27.485 72.5711C27.485 72.4229 27.4109 72.1264 27.485 72.0523C27.7074 71.7558 27.6333 71.4593 27.485 71.237H27.1885V70.9405L26.892 71.237H27.1885C27.1885 71.7558 27.1144 72.3488 26.5956 72.5711V73.0159L26.5214 73.09C26.4473 73.09 26.4473 73.0159 26.4473 73.0159ZM29.7828 63.8249C29.931 63.5284 30.1534 63.1578 30.524 63.0837C30.524 63.2319 30.524 63.4543 30.4498 63.6766C29.7828 64.7885 28.9674 65.9744 28.2262 67.0862C28.0039 67.1603 28.078 67.4568 27.7815 67.4568C27.7815 67.3086 27.7074 67.0121 27.7815 66.8638C28.3745 66.2709 28.5968 65.3814 29.1898 64.7885L29.7828 63.8249ZM9.69604 99.1805C9.77017 98.7357 9.99253 98.3651 10.1408 97.9204L10.9561 96.3639C11.1043 95.7709 11.4008 95.2521 11.3267 94.6591C11.2526 94.8073 11.1043 94.8073 11.1043 94.8815L9.5478 98.3651C9.39956 98.7357 9.1772 99.1805 9.1772 99.6993C9.47368 99.6993 9.69604 99.4028 9.69604 99.1805ZM30.2275 66.1226H30.0792C30.1534 65.3814 30.4498 64.7885 31.1169 64.4179V65.0108C31.3393 65.0108 31.6358 64.9367 31.7099 65.3073C31.5617 65.3073 31.4134 65.3814 31.4134 65.6038L31.1169 65.8261C31.1169 65.9744 31.1169 66.1968 31.2652 66.2709C31.3393 66.5674 31.3393 66.7156 31.1169 66.7897C30.9687 67.0121 30.8204 66.8638 30.8204 66.7156C30.7463 66.2709 30.3757 66.4932 30.2275 66.1226ZM22.4448 74.7948L23.2601 73.9053C23.3343 73.7571 23.4825 73.7571 23.5566 73.7571C23.186 74.943 23.2601 75.0912 22.593 75.6842C22.2966 75.9807 22.0742 76.3513 21.8518 76.7219C21.7777 77.0184 21.4812 77.1666 21.1848 77.3149C21.1848 77.3149 21.1106 77.2407 20.9624 77.2407V77.1666C21.1106 76.7219 21.4812 76.8701 21.5554 76.5737C21.5554 76.3513 21.7777 76.1289 21.7777 75.8324C21.8518 75.4618 22.593 75.3877 22.4448 74.7948ZM23.2601 76.7219C22.9636 77.2407 22.6672 77.7596 22.0742 78.0561C22.0742 77.5372 22.2966 77.2407 22.4448 77.0184C23.0378 76.3513 23.5566 75.536 24.0755 74.7948C24.0755 74.6465 24.2237 74.6465 24.3719 74.5724C24.4461 75.0912 24.0755 75.3877 23.9272 75.6842L23.2601 76.7219ZM32.5993 89.2483H32.3029C32.3029 89.1001 32.5993 88.9518 32.4511 88.6553C32.3029 88.6553 32.3029 88.5071 32.4511 88.5071C32.7476 88.0624 33.0441 87.7659 33.4147 87.4694C33.4147 87.3953 33.637 87.3953 33.637 87.3953C33.9335 87.6918 34.0818 87.1729 34.3782 87.3212V87.3953C34.5265 87.4694 34.3782 87.4694 34.3782 87.6176C34.23 87.9141 33.7112 87.9141 33.4888 88.3588C33.4147 88.8036 32.8217 88.8036 32.5993 89.2483ZM25.8544 94.3626H25.7061C25.4096 94.5109 25.2614 94.8073 24.9649 94.6591C24.9649 94.8815 24.8167 95.1038 24.7425 95.2521C24.3719 95.7709 23.8531 96.0674 23.5566 96.6604C23.779 96.6604 23.9272 96.6604 24.1496 96.438C24.2237 96.2898 24.4461 96.1415 24.6684 96.0674C24.7425 95.6968 25.2614 95.7709 25.3355 95.2521C25.3355 95.2521 25.4096 95.2521 25.4096 95.4003C25.632 95.4003 25.7061 95.4744 25.7061 95.1779C25.8544 94.8815 25.8544 94.6591 25.8544 94.3626ZM56.0956 84.7269C56.1697 84.6528 56.1697 84.6528 56.0956 84.5046H55.5768C55.2062 84.9493 54.6873 85.0975 54.2426 85.0975C54.0202 85.0234 53.7979 85.0975 53.7979 85.2458C53.7979 85.6164 53.2049 85.5423 53.2049 85.9129C53.7237 85.9129 54.2426 85.8387 54.6132 85.6164L56.0956 84.7269ZM60.024 80.7244C60.3946 80.4279 60.617 80.1314 60.8393 79.6867C60.5429 79.6867 60.3205 79.835 60.2464 79.9091L58.6157 81.3915L58.2451 81.9845C58.5416 81.9845 58.7639 81.8362 58.8381 81.688C59.2087 81.3915 59.5052 81.0209 60.024 80.7244ZM13.1056 92.8061V93.1767C13.6244 93.1026 13.6986 92.2131 14.3656 92.5837C14.3656 92.5837 14.5139 92.5096 14.3656 92.4355C14.2915 92.139 14.5139 91.6202 14.2174 91.2496C14.0692 91.3237 13.995 91.3237 13.995 91.3978C13.7727 91.9166 13.4762 92.4355 13.1056 92.8061ZM23.3343 97.5498C23.2601 97.1792 23.6307 96.9568 23.5566 96.6604C23.0378 96.7345 23.0378 97.2533 22.7413 97.3274C22.3707 97.6239 22.0742 97.8463 21.8518 98.1428L21.7777 98.3651C22.4448 98.4393 22.6672 97.5498 23.3343 97.7722C23.3343 97.7722 23.3343 97.6239 23.4825 97.6239C23.4825 97.6239 23.4825 97.5498 23.3343 97.5498ZM29.7828 67.0121C29.8569 67.0121 29.931 66.8638 30.0792 66.7156H30.1534C30.3757 67.1603 30.3757 67.6792 30.524 68.0498C30.6722 68.3463 30.2275 68.5686 30.0792 68.6427C29.931 68.3463 29.8569 68.0498 29.8569 67.7533C29.7828 67.4568 29.7828 67.3086 29.7828 67.0121ZM19.7023 81.8362C19.7023 81.9845 19.6282 81.9845 19.6282 81.9845C19.6282 81.7621 19.6282 81.5397 19.7023 81.3915L20.6659 79.9091C20.6659 79.835 20.8883 79.835 20.9624 79.6867V80.1314C20.5177 80.7244 20.2212 81.3915 19.7023 81.8362ZM25.2614 73.6088C25.2614 73.6829 25.039 73.6829 24.9649 73.6829C25.039 73.0159 25.3355 72.4229 26.0026 72.0523C26.0026 72.2005 26.1508 72.3488 26.0026 72.4229C25.8544 72.7935 25.5579 73.1641 25.2614 73.6088ZM15.2551 89.2483C14.8845 89.7671 14.588 90.3601 14.5139 90.9531H15.1069C15.1069 90.6566 15.1069 90.3601 15.181 90.0636C15.2551 89.8413 15.2551 89.5448 15.2551 89.2483ZM29.7828 67.0121H29.4863C29.4863 67.3827 29.2639 67.6792 28.8933 67.7533C28.8933 67.3827 28.9674 67.0862 29.4863 67.0121C29.338 66.4932 29.5604 66.2709 29.931 66.1226V66.7156C29.931 66.7897 29.8569 66.8638 29.7828 67.0121ZM43.8657 75.4618C44.0881 74.943 44.4587 74.5724 44.9775 74.5724C44.9775 74.7948 44.9775 75.0912 44.7551 75.1654C44.4587 75.2395 44.2363 75.536 43.8657 75.4618ZM33.1182 64.1214C32.7476 64.0473 32.8217 63.8249 32.8217 63.5284C33.1182 63.4543 33.4147 63.2319 33.7112 63.0837C33.7112 63.3802 33.637 63.5284 33.4147 63.7508C33.3405 63.899 33.3405 64.1214 33.1182 64.1214ZM31.7099 65.9003V65.3073C32.0064 65.2332 32.2287 64.9367 32.5252 65.0108C32.3029 65.3073 32.3029 65.8261 31.9323 65.9744C31.8581 65.9744 31.7099 65.9744 31.7099 65.9003ZM25.7061 92.139C25.4096 92.5837 25.1132 93.0284 24.6684 93.1767C24.7425 92.5096 25.039 92.2131 25.7061 92.139ZM40.9009 80.7244V80.5762C40.9009 80.502 40.975 80.4279 40.975 80.2797H41.7162C41.7903 80.2797 41.7903 80.502 41.7903 80.502V80.7244C41.5679 80.7985 40.975 80.8727 40.9009 80.7244ZM21.7777 78.5008C21.8518 79.0938 21.4071 79.3902 20.9624 79.6867C20.8883 79.3161 21.1848 79.0196 21.4071 78.7232C21.4071 78.649 21.7036 78.649 21.7777 78.5008ZM20.6659 99.1063C21.2589 99.1063 21.5554 98.8099 21.7777 98.3651C21.1848 98.2169 20.9624 98.7357 20.6659 99.1063ZM57.1333 82.7257C57.7263 82.7257 58.0227 82.3551 58.2451 81.9845C57.6521 81.9845 57.3557 82.2809 57.1333 82.7257ZM21.1106 96.438C21.4071 96.1415 21.5554 95.7709 22.0742 95.7709C22.0001 96.1415 21.7036 96.438 21.2589 96.5862C21.2589 96.6604 21.1848 96.5862 21.1848 96.5862C21.1106 96.5862 21.1106 96.438 21.1106 96.438ZM25.039 74.2759L24.3719 74.5724C24.3719 74.2018 24.5202 73.9053 24.9649 73.7571L25.1131 74.0535C25.1131 74.2018 25.1131 74.2759 25.039 74.2759ZM32.8217 85.3199C32.5993 85.6905 32.4511 85.987 32.0064 86.1352C32.0064 85.9129 32.0064 85.6905 32.2287 85.5423C32.4511 85.394 32.5993 85.3199 32.8217 85.3199ZM15.4033 88.5071V89.2483C15.7739 89.1742 15.9963 88.8777 15.8481 88.5071H15.4033ZM34.6006 44.6276C34.6747 44.6276 34.6747 44.5535 34.6747 44.5535C34.6747 44.5535 34.6006 44.4053 34.5265 44.4053H34.0076C33.9335 44.4053 33.9335 44.5535 33.9335 44.6276C33.7853 44.7017 33.7853 44.7017 33.7853 44.85C33.7853 44.85 33.9335 44.9241 34.0076 44.9241L34.6006 44.6276ZM42.1609 76.7219C42.3833 76.4254 42.6798 76.2772 42.9762 76.2772L42.3833 77.0184C42.3092 77.1666 42.3092 77.1666 42.1609 76.9443V76.7219ZM28.8933 69.2357V68.9392C28.5968 68.9392 28.3745 68.9392 28.2262 69.2357V69.4581H28.3745L28.8933 69.2357C28.8933 69.3839 28.8933 69.5322 29.0415 69.3839C29.0415 69.3839 28.9674 69.2357 28.8933 69.2357ZM33.7112 61.0824L33.1182 61.3789V61.8978C33.4888 61.7495 33.7112 61.453 33.7112 61.0824ZM26.5956 48.0372C27.1144 48.0372 27.3368 47.8889 27.485 47.4442C27.1144 47.4442 26.8179 47.6666 26.5956 48.0372ZM28.0039 47.4442L28.3003 46.9995C27.9297 46.8512 27.6333 47.0736 27.485 47.4442H28.0039ZM9.10308 100.663V99.6993C8.65835 99.9958 8.88072 100.292 8.88072 100.663L8.95484 100.811C8.95484 100.663 9.10308 100.663 9.10308 100.663ZM34.0076 60.4895C33.7112 60.5636 33.7112 60.7859 33.7112 61.0824H34.23L34.0076 60.4895ZM22.3707 51.1502C22.8895 51.1502 22.8895 51.1502 22.9636 50.6314C22.6672 50.7055 22.4448 50.8538 22.3707 51.1502ZM43.2727 75.9807C43.3468 75.6842 43.5692 75.536 43.8657 75.4618C43.7916 75.9807 43.7916 75.9807 43.2727 75.9807ZM20.6659 97.4757C20.3694 97.6239 20.2212 97.7722 20.0729 98.0687C20.5177 98.0687 20.6659 97.9204 20.6659 97.4757ZM30.524 65.8261H31.1169L30.8204 65.3073C30.524 65.3814 30.6722 65.6038 30.524 65.8261ZM19.0352 99.1063C18.8129 99.1805 18.7388 99.3287 18.7388 99.4028C18.9611 99.4028 19.0352 99.3287 19.0352 99.1805C19.2576 99.1063 19.2576 99.0322 19.3317 98.884L19.6282 98.6616C19.7023 98.5134 19.7765 98.5134 19.7765 98.3651C19.7023 98.3651 19.6282 98.4393 19.5541 98.6616C19.4059 98.6616 19.3317 98.7357 19.3317 98.8099C19.1094 98.884 19.0352 99.0322 19.0352 99.1063ZM44.4587 77.1666C44.8293 77.0184 44.9775 77.0184 44.9775 76.5737C44.681 76.6478 44.5328 76.8701 44.4587 77.1666ZM23.5566 50.6314V50.3349C23.2601 50.3349 23.0378 50.3349 22.9636 50.6314H23.5566ZM26.5956 91.2496C26.5214 91.546 26.2991 91.6943 26.1508 91.8425C26.1508 91.3237 26.1508 91.2496 26.5956 91.2496ZM37.936 80.7244C37.936 80.5762 37.936 80.4279 38.0102 80.4279C38.1584 80.2797 38.3066 80.2797 38.4549 80.2797L38.1584 80.7244H37.936ZM28.3745 69.8287C28.2262 69.7545 27.9297 69.7545 27.7815 70.051H28.3745C28.4486 70.051 28.4486 69.9769 28.4486 69.9769C28.4486 69.9769 28.4486 69.8287 28.3745 69.8287ZM30.524 63.0837C30.524 62.7872 30.524 62.5648 30.8204 62.4907C30.8204 62.639 30.9687 62.9354 30.524 63.0837ZM3.24754 72.7194C3.32166 72.7194 3.32166 72.7935 3.32166 72.8676L2.95106 73.1641C2.95106 73.0159 2.95106 72.7935 3.02518 72.7194C3.02518 72.5711 3.24754 72.5711 3.24754 72.7194ZM13.1056 93.1767C12.8091 93.3249 12.8091 93.6214 12.8091 93.7697C13.1056 93.6955 13.1056 93.4732 13.1056 93.1767ZM22.0742 78.0561C22.0742 78.2043 22.1483 78.5008 21.7777 78.5008C21.7777 78.3526 21.7777 78.0561 22.0742 78.0561ZM34.3041 86.7282C34.3041 86.4317 34.6006 86.5058 34.823 86.5058C34.823 86.8023 34.5265 86.7282 34.3041 86.7282ZM27.4109 45.8877V46.0359C27.3368 46.11 27.1885 46.1842 27.1885 46.2583C27.1144 46.2583 27.0403 46.1842 27.0403 46.11C27.0403 46.0359 27.1144 45.8877 27.1885 45.8136C27.1885 45.8136 27.3368 45.8877 27.4109 45.8877ZM56.5403 83.0222C56.7627 83.0222 57.0592 83.0222 57.0592 82.7257C56.8368 82.7257 56.6886 82.7257 56.5403 83.0222ZM15.4775 55.6716L15.181 55.8198L15.1069 55.7457L15.2551 55.4492H15.4775C15.5516 55.4492 15.5516 55.5234 15.4775 55.6716ZM37.3431 84.2081C37.4172 84.2081 37.5654 84.134 37.6396 84.2081C37.7137 84.2081 37.7137 84.3563 37.8619 84.3563C37.7137 84.3563 37.7137 84.4304 37.6396 84.4304C37.5654 84.5046 37.4172 84.4304 37.3431 84.4304V84.2081ZM28.078 45.5171C28.3003 45.1465 28.3745 45.1465 28.5968 45.5171H28.078ZM34.823 83.541C34.823 83.6151 34.823 83.7634 34.6747 83.7634C34.6006 83.8375 34.3782 83.8375 34.3041 83.8375L34.6006 83.541C34.6006 83.4669 34.6747 83.541 34.823 83.541ZM26.1508 48.3337C26.2991 48.3337 26.5214 48.3337 26.5956 48.0372C26.4473 48.0372 26.1508 48.0372 26.1508 48.3337ZM10.8079 63.2319C11.1043 63.2319 11.1043 62.9354 11.0302 62.7872C10.7337 62.8613 10.8079 63.0837 10.8079 63.2319ZM37.1207 84.9493C37.1207 85.0234 37.0466 84.7269 37.1207 84.6528C37.1207 84.5046 37.269 84.5046 37.3431 84.5046V84.7269C37.3431 84.8011 37.2689 84.9493 37.1207 84.9493ZM36.4536 54.8563C36.1571 54.8563 36.3054 55.1528 36.3054 55.3751C36.6019 55.2269 36.4536 55.0786 36.4536 54.8563ZM5.10056 68.9392C5.10056 69.1616 5.2488 69.4581 4.95232 69.4581C4.95232 69.2357 4.80408 69.0875 5.10056 68.9392ZM55.6509 83.6151C55.5026 83.6151 55.2062 83.6151 55.2062 83.9116C55.3544 83.8375 55.5768 83.9116 55.6509 83.6151ZM37.6396 52.7068V53.0774C37.7137 53.0033 37.8619 53.0033 37.8619 52.9291C37.936 52.7809 37.8619 52.7068 37.7137 52.6327C37.7137 52.7068 37.6396 52.7068 37.6396 52.7068ZM52.8343 86.1352C53.0567 86.1352 53.1308 86.1352 53.1308 85.9129H52.8343C52.7602 85.9129 52.7602 85.987 52.7602 85.987C52.7602 86.1352 52.7602 86.1352 52.8343 86.1352ZM10.289 61.6754L9.99253 61.8978C9.99253 61.7495 10.0666 61.6754 10.0666 61.453L10.1408 61.3789C10.1408 61.453 10.289 61.6013 10.289 61.6754ZM31.1169 45.2947C31.0428 45.2947 30.9687 45.443 30.9687 45.5171H31.2652L31.3393 45.443C31.2652 45.2947 31.1169 45.2206 31.1169 45.2947ZM22.0742 95.7709C22.0742 95.5485 22.1483 95.4744 22.3707 95.4744C22.3707 95.6968 22.2966 95.7709 22.0742 95.7709ZM33.4147 84.7269C33.4147 84.9493 33.3405 85.0234 33.1182 85.0234C33.1182 84.8011 33.1923 84.7269 33.4147 84.7269ZM33.4147 43.5158C33.4888 43.4417 33.4888 43.4417 33.637 43.4417C33.4888 43.3676 33.4888 43.2193 33.4147 43.2193C33.3405 43.2193 33.1923 43.3676 33.1923 43.3676C33.1923 43.4417 33.3405 43.4417 33.4147 43.5158ZM39.7149 79.3161C39.7149 79.242 39.6408 79.242 39.6408 79.0938C39.6408 79.0196 39.7149 79.0196 39.7891 78.9455C39.7891 79.0196 39.9373 79.0196 39.9373 79.0938C39.9373 79.242 39.7891 79.242 39.7149 79.3161ZM4.72996 70.051C4.72996 69.9769 4.65584 69.9769 4.65584 69.9769C4.65584 69.7545 4.65584 69.5322 4.80408 69.5322V69.9769C4.80408 69.9769 4.72996 69.9769 4.72996 70.051ZM45.274 74.2759C45.274 74.4983 45.1257 74.5724 44.9775 74.5724C44.9775 74.35 45.0516 74.2759 45.274 74.2759ZM32.4511 44.9241V44.85C32.377 44.85 32.3029 44.7017 32.2287 44.7017C32.1546 44.7017 32.1546 44.85 32.0064 44.9241H32.4511ZM44.1622 77.4631C44.3845 77.4631 44.4587 77.3149 44.4587 77.1666C44.2363 77.1666 44.1622 77.2407 44.1622 77.4631ZM30.1534 46.0359L30.2275 45.8877C30.1534 45.8877 30.0792 45.8136 30.0792 45.8136L29.7828 46.11C29.8569 46.11 29.931 46.11 30.1534 46.0359ZM31.4134 46.0359C31.5617 46.0359 31.6358 45.8877 31.6358 45.8136H31.3393L31.2652 45.8877C31.3393 46.0359 31.4134 46.0359 31.4134 46.0359ZM24.3719 93.4732C24.3719 93.3249 24.4461 93.1767 24.6684 93.1767C24.6684 93.3991 24.5202 93.4732 24.3719 93.4732ZM24.3719 93.4732C24.3719 93.6955 24.2237 93.7697 24.0755 93.7697C24.0755 93.6214 24.1496 93.4732 24.3719 93.4732ZM41.5679 77.4631C41.5679 77.6113 41.4938 77.7596 41.2715 77.7596C41.2715 77.5372 41.4197 77.4631 41.5679 77.4631ZM20.0729 98.0687C19.9247 98.0687 19.7765 98.1428 19.7765 98.3651C19.9988 98.3651 20.0729 98.2169 20.0729 98.0687ZM19.0352 53.9668C19.2576 53.9668 19.2576 53.8927 19.3317 53.6704C19.1094 53.6704 19.0352 53.8186 19.0352 53.9668ZM32.2287 89.2483C32.2287 89.4707 32.1546 89.5448 32.0064 89.5448V89.2483H32.2287ZM33.1182 85.0234C33.1182 85.2458 33.0441 85.3199 32.8217 85.3199C32.8958 85.0975 32.8958 85.0975 33.1182 85.0234ZM17.5528 99.9958V100.292H17.3305C17.3305 100.07 17.4787 99.9958 17.5528 99.9958ZM6.50885 67.0862H6.43473C6.43473 67.0121 6.28649 67.0121 6.28649 66.8638C6.43473 66.7156 6.50885 66.7156 6.50885 66.8638V67.0862ZM28.8933 68.3463L28.6709 68.5686C28.7451 68.5686 28.7451 68.5686 28.8933 68.6427V68.9392C28.9674 68.8651 29.0415 68.8651 29.0415 68.791C29.0415 68.791 28.9674 68.791 28.8933 68.6427V68.3463ZM7.69479 65.0849C7.69479 65.0849 7.62066 65.0849 7.62066 65.2332C7.47242 65.0849 7.47242 65.0108 7.47242 64.9367C7.47242 64.9367 7.62066 64.9367 7.62066 64.7885C7.62066 64.9367 7.69479 65.0108 7.69479 65.0849ZM43.8657 77.7596C44.0881 77.6113 44.1622 77.6113 44.1622 77.4631C43.9398 77.4631 43.8657 77.5372 43.8657 77.7596ZM23.5566 94.3626C23.4825 94.5109 23.4825 94.585 23.2601 94.6591C23.2601 94.5109 23.3343 94.3626 23.5566 94.3626ZM14.5139 90.9531C14.2915 91.0272 14.2174 91.1013 14.2174 91.2496C14.3656 91.2496 14.5139 91.1013 14.5139 90.9531ZM18.1458 99.4028C18.1458 99.6252 18.0717 99.6993 17.8493 99.6993C17.9234 99.477 18.0717 99.477 18.1458 99.4028ZM32.0064 63.5284H31.7099C31.7099 63.6766 31.7099 63.7508 31.8581 63.7508L32.0064 63.5284ZM17.8493 99.6993C17.8493 99.9217 17.7752 99.9958 17.627 99.9958C17.627 99.7734 17.7752 99.6993 17.8493 99.6993ZM34.3041 43.0711C34.23 43.0711 34.0818 43.0711 34.0076 43.1452C34.0818 43.1452 34.23 43.2193 34.3041 43.2193C34.3041 43.2193 34.3782 43.1452 34.5265 43.1452C34.3782 43.0711 34.3041 43.0711 34.3041 43.0711ZM23.8531 50.0384C23.9272 50.0384 24.0755 49.9643 24.0755 49.742C23.9272 49.742 23.8531 49.8161 23.8531 50.0384ZM45.274 74.2759C45.274 74.2018 45.3481 74.0535 45.5705 74.0535C45.5705 74.2018 45.4222 74.2759 45.274 74.2759ZM24.9649 49.149C25.1131 49.149 25.2614 49.0749 25.2614 48.9266C25.039 48.9266 24.9649 49.0749 24.9649 49.149ZM24.0755 93.7697C24.0755 93.992 23.9272 94.0661 23.8531 94.0661C23.8531 93.9179 23.9272 93.7697 24.0755 93.7697ZM27.485 90.3601C27.485 90.2119 27.6333 90.1377 27.7815 90.1377C27.7074 90.3601 27.6333 90.3601 27.485 90.3601ZM42.7539 79.0938C42.7539 78.9455 42.9021 78.7973 42.9762 78.7973C42.9762 79.0196 42.9021 79.0938 42.7539 79.0938ZM42.4574 79.3902C42.4574 79.242 42.6056 79.0938 42.6798 79.0938C42.6798 79.3161 42.6056 79.3902 42.4574 79.3902ZM38.8255 79.9832C38.8255 79.835 38.8255 79.6867 39.0478 79.6867C39.0478 79.9091 38.8996 79.9091 38.8255 79.9832ZM33.7112 84.5046C33.637 84.6528 33.637 84.7269 33.4147 84.7269C33.4147 84.6528 33.4888 84.5046 33.7112 84.5046ZM22.3707 95.4744C22.4448 95.4003 22.4448 95.2521 22.6672 95.2521C22.6672 95.4003 22.593 95.4744 22.3707 95.4744ZM23.5566 50.3349C23.6307 50.2608 23.779 50.2608 23.779 50.0384C23.6307 50.0384 23.5566 50.1126 23.5566 50.3349ZM12.735 93.7697C12.5868 93.7697 12.5126 93.7697 12.5868 93.992C12.735 93.992 12.735 93.9179 12.735 93.7697ZM21.2589 52.0397C21.4071 52.0397 21.5554 52.0397 21.4071 51.8173C21.4071 51.8173 21.2589 51.8915 21.2589 52.0397ZM33.1182 86.7282V86.5058C33.0441 86.5799 32.8958 86.5799 32.8958 86.7282H33.1182ZM23.779 94.0661C23.779 94.2885 23.6307 94.2885 23.5566 94.3626C23.5566 94.2144 23.6307 94.0661 23.779 94.0661ZM34.0076 84.2081C33.9335 84.3563 33.7853 84.4304 33.7112 84.4304C33.7112 84.3563 33.7853 84.2081 34.0076 84.2081ZM24.9649 94.585V94.3626C24.8167 94.3626 24.8167 94.5109 24.7425 94.5109C24.8167 94.585 24.8167 94.585 24.9649 94.585ZM34.23 83.9116C34.23 84.134 34.0818 84.134 34.0076 84.134C34.0076 84.0598 34.0818 83.9116 34.23 83.9116ZM23.0378 48.8525C22.9636 48.6301 23.0378 48.6301 23.186 48.6301C23.186 48.7784 23.186 48.7784 23.0378 48.8525ZM19.3317 53.6704C19.4059 53.6704 19.5541 53.5962 19.5541 53.3739C19.4059 53.5221 19.3317 53.5221 19.3317 53.6704ZM17.2564 86.5799C17.034 86.8023 17.034 86.5799 17.034 86.5058C17.1822 86.5058 17.1822 86.5058 17.2564 86.5799ZM17.3305 55.6716C17.4787 55.6716 17.627 55.6716 17.4787 55.4492C17.4787 55.5234 17.3305 55.5234 17.3305 55.6716ZM9.5478 64.9367C9.5478 64.9367 9.69604 64.9367 9.69604 64.7885C9.5478 64.7143 9.5478 64.7143 9.47368 64.7885L9.5478 64.9367ZM20.6659 97.4757C20.8883 97.4757 20.9624 97.3274 20.9624 97.1792L20.6659 97.4757ZM34.3041 85.394C34.3782 85.5423 34.4524 85.5423 34.5265 85.6164V85.3199C34.5265 85.394 34.3782 85.394 34.3041 85.394ZM32.7476 62.5648C32.5993 62.5648 32.5993 62.639 32.5993 62.7872C32.7476 62.639 32.8217 62.7872 32.7476 62.5648ZM18.0717 55.0786C18.0717 55.0045 18.1458 55.0045 18.1458 54.8563C18.0717 54.8563 17.8493 54.8563 18.0717 55.0786ZM13.6986 59.6C13.7727 59.6 13.9209 59.5259 13.9209 59.3776C13.7727 59.3776 13.6986 59.5259 13.6986 59.6ZM8.06539 64.1214V64.0473C8.06539 63.899 8.06539 63.899 8.21363 63.899V64.0473L8.06539 64.1214ZM13.4021 59.8965C13.4762 59.8965 13.6244 59.8224 13.6244 59.6741C13.4762 59.6741 13.4021 59.8224 13.4021 59.8965ZM43.0504 76.2772C43.0504 76.1289 43.1986 76.0548 43.2727 76.0548C43.2727 76.1289 43.1986 76.2772 43.0504 76.2772ZM38.529 80.2056C38.529 80.1314 38.6031 79.9832 38.7514 79.9832C38.7514 80.1314 38.6031 80.2056 38.529 80.2056ZM13.1797 60.1189C13.328 60.1189 13.328 59.9706 13.328 59.8965C13.1797 59.9706 13.1056 59.9706 13.1797 60.1189ZM7.0277 65.8261L6.87946 65.6779L7.0277 65.6038L7.10182 65.6779L7.0277 65.8261ZM34.5265 61.0824H34.3041V61.3048L34.5265 61.0824ZM27.9297 45.7394C27.7074 45.5171 27.9297 45.5912 28.0039 45.5171C28.0039 45.5912 28.0039 45.7394 27.9297 45.7394ZM29.1898 88.8036C29.1898 88.8777 29.0415 88.9518 28.8933 88.9518C28.8933 88.8777 28.9674 88.8036 29.1898 88.8036ZM33.1182 45.1465C33.0441 45.1465 33.0441 44.9982 33.0441 44.9982C32.8958 44.9982 32.8958 44.9982 32.8958 45.1465H33.1182ZM21.7036 80.5762C21.7036 80.5762 21.5554 80.5762 21.5554 80.7244C21.5554 80.7244 21.7036 80.7244 21.7036 80.7985C21.7036 80.7244 21.7036 80.7244 21.7777 80.7244C21.7036 80.7244 21.7036 80.5762 21.7036 80.5762ZM37.6396 53.2256C37.4172 53.2256 37.3431 53.2997 37.3431 53.3739C37.5654 53.3739 37.5654 53.2997 37.6396 53.2256ZM2.06161 75.9807C2.13573 75.9807 2.35809 75.9807 2.13573 75.7583C2.13573 75.8324 2.06161 75.9807 2.06161 75.9807ZM23.3343 51.1502C23.4825 51.002 23.4825 50.9279 23.4825 50.9279C23.3343 50.9279 23.2601 50.9279 23.3343 51.1502ZM34.0818 87.0247C34.0076 86.8023 34.0818 86.8023 34.23 86.8023C34.23 86.8023 34.23 86.8764 34.0818 87.0247ZM36.1571 82.2809V82.1327H36.3054V82.2809H36.1571ZM42.3092 79.6126C42.1609 79.3902 42.3092 79.3902 42.3833 79.3902C42.3833 79.5385 42.3833 79.5385 42.3092 79.6126ZM45.0516 76.5737C45.1257 76.5737 45.274 76.5737 45.1257 76.3513C45.0516 76.4254 45.0516 76.4254 45.0516 76.5737ZM3.46991 72.2005L3.32166 72.3488C3.32166 72.2005 3.24754 72.2005 3.24754 72.2005L3.32166 72.1264L3.46991 72.2005ZM31.7099 45.8136C31.8581 45.7394 31.8581 45.7394 31.9323 45.7394C31.9323 45.5912 31.8581 45.5912 31.8581 45.5912C31.8581 45.5912 31.7099 45.7394 31.7099 45.8136ZM16.7375 55.1528C16.7375 55.2269 16.7375 55.3751 16.9599 55.2269C16.8858 55.1528 16.8858 55.1528 16.7375 55.1528ZM21.8518 49.5196C22.0001 49.5196 22.0001 49.6678 22.0001 49.6678L21.8518 49.742V49.5196ZM12.5868 95.2521V95.4744L12.735 95.4003C12.735 95.4003 12.735 95.2521 12.5868 95.2521ZM20.0729 99.6993C20.2953 99.6993 20.3694 99.6252 20.3694 99.4769C20.2953 99.4769 20.2212 99.6252 20.0729 99.6993ZM35.8607 42.8487C35.7865 42.7746 35.7124 42.7746 35.5642 42.7746C35.5642 42.7746 35.49 42.7746 35.49 42.8487H35.8607ZM17.3305 100.515C17.2564 100.515 17.1822 100.366 17.1822 100.366C17.1822 100.366 17.2564 100.292 17.3305 100.292V100.515ZM18.2199 54.7822C18.3682 54.7822 18.4423 54.7822 18.3682 54.5598C18.2199 54.708 18.2199 54.7822 18.2199 54.7822ZM33.7112 62.4907C33.7853 62.4907 33.9335 62.4907 33.7853 62.2684C33.7853 62.2684 33.7112 62.3425 33.7112 62.4907ZM23.779 50.7055C23.6307 50.6314 23.5566 50.6314 23.5566 50.6314V50.8538C23.5566 50.7796 23.6307 50.7055 23.779 50.7055ZM10.0666 102.738C10.1408 102.664 10.1408 102.664 10.1408 102.59C10.1408 102.442 10.1408 102.442 10.0666 102.368V102.738ZM29.6345 68.6427C29.5604 68.6427 29.4863 68.6427 29.5604 68.8651C29.6345 68.8651 29.6345 68.791 29.6345 68.6427ZM26.7438 91.0272C26.892 91.2495 26.7438 91.2496 26.5956 91.2496C26.7438 91.1013 26.7438 91.1013 26.7438 91.0272ZM31.7099 87.9141C31.8581 87.7659 31.9323 87.9141 31.8581 87.6918C31.8581 87.6918 31.7099 87.7659 31.7099 87.9141ZM11.1043 62.7872C11.2526 62.639 11.3267 62.7872 11.2526 62.5648C11.2526 62.5648 11.1043 62.639 11.1043 62.7872ZM46.2376 73.7571C46.2376 73.9053 46.1634 73.9794 46.0893 73.9794C46.2376 73.9794 46.3858 73.9794 46.2376 73.7571ZM35.1194 84.7269C35.1936 84.7269 35.4159 84.7269 35.1936 84.5046C35.1936 84.6528 35.1936 84.6528 35.1194 84.7269ZM11.9938 94.9556C11.9938 95.1038 11.9938 95.1038 11.9197 95.1779C11.9938 95.1779 12.2161 95.1779 11.9938 94.9556ZM3.84051 71.237C4.06287 71.4593 3.84051 71.4593 3.76639 71.4593C3.84051 71.4593 3.84051 71.3111 3.84051 71.237ZM33.1182 86.4317C33.1923 86.4317 33.4147 86.4317 33.1923 86.2093C33.1923 86.2835 33.1923 86.4317 33.1182 86.4317ZM38.0102 82.1327C38.1584 82.0586 38.1584 82.0586 38.1584 81.9845C38.0102 81.9845 37.936 81.9845 38.0102 82.1327ZM39.9373 81.688C39.9373 81.5397 40.0114 81.4656 40.0114 81.4656C40.2338 81.688 40.0114 81.5397 39.9373 81.688ZM11.6232 59.8224C11.6232 59.8224 11.5491 59.8224 11.5491 59.8965C11.5491 59.8224 11.4008 59.8224 11.4008 59.8224C11.5491 59.6741 11.5491 59.6741 11.6232 59.8224ZM22.3707 96.9568C22.2966 96.9568 22.0742 96.9568 22.2966 97.1792C22.2966 97.031 22.3707 96.9568 22.3707 96.9568ZM22.2966 51.4467C22.2966 51.2985 22.3707 51.2244 22.3707 51.2244C22.2966 51.2244 22.0742 51.2244 22.2966 51.4467ZM33.9335 44.3311C33.9335 44.257 33.9335 44.1088 33.7112 44.257C33.7853 44.3311 33.9335 44.3311 33.9335 44.3311ZM27.3368 90.6566C27.1885 90.4342 27.3368 90.4342 27.4109 90.4342C27.4109 90.5083 27.4109 90.5083 27.3368 90.6566ZM55.0579 83.9116C54.9838 83.9116 54.9097 83.9116 54.9838 84.134C55.0579 84.0598 55.0579 84.0598 55.0579 83.9116ZM24.2237 49.5196C24.1496 49.6678 24.1496 49.6678 24.1496 49.742C24.2237 49.742 24.3719 49.742 24.2237 49.5196ZM31.8581 86.4317C31.7099 86.2093 31.8581 86.2093 31.9323 86.2093C31.9323 86.2835 31.9323 86.2835 31.8581 86.4317ZM13.995 59.3035C14.0692 59.3035 14.2174 59.3035 14.0692 59.0812C13.995 59.2294 13.995 59.3035 13.995 59.3035ZM11.8455 61.8978C11.8455 61.7495 11.9197 61.7495 11.8455 61.7495C11.8455 61.6754 11.8455 61.6754 11.6973 61.7495L11.8455 61.8978ZM19.1094 83.1704C19.1094 83.1704 19.0352 83.2445 19.0352 83.3186C19.1094 83.3186 19.3317 83.3186 19.1094 83.1704ZM41.2715 77.7596C41.2715 77.8337 41.1973 77.9078 40.975 77.9078C41.1232 77.8337 41.1232 77.7596 41.2715 77.7596ZM26.0026 48.556V48.3337C26.0026 48.3337 25.9285 48.3337 25.8544 48.4819C25.9285 48.4819 25.9285 48.4819 26.0026 48.556ZM24.2237 50.5573C24.2237 50.409 24.3719 50.409 24.3719 50.3349C24.2237 50.3349 24.1496 50.3349 24.2237 50.5573ZM39.0478 82.5774C39.0478 82.6516 38.8996 82.7257 38.8255 82.7257C38.8255 82.6516 38.8996 82.5774 39.0478 82.5774ZM25.3355 48.6301C25.3355 48.7784 25.3355 48.8525 25.2614 48.8525C25.3355 48.8525 25.4838 48.8525 25.3355 48.6301ZM32.7476 64.7885C32.8217 64.9367 32.7476 64.9367 32.5993 64.9367C32.5993 64.9367 32.5993 64.7885 32.7476 64.7885ZM24.8167 49.4455C24.8167 49.3714 24.8167 49.2231 24.9649 49.2231C24.8167 49.2231 24.6684 49.149 24.8167 49.4455ZM3.76639 71.5334C3.61815 71.6076 3.61815 71.6076 3.61815 71.7558C3.4699 71.5334 3.61815 71.5334 3.76639 71.5334ZM26.0026 91.8425C26.0026 91.9908 25.9285 91.9908 25.8544 92.139C25.8544 91.9166 25.9285 91.8425 26.0026 91.8425ZM28.078 47.4442C28.078 47.5925 28.078 47.7407 28.3003 47.5925C28.2262 47.5925 28.078 47.5925 28.078 47.4442ZM34.823 60.8601H34.6747C34.6006 60.9342 34.6006 61.0083 34.6006 61.0083C34.6006 61.0083 34.6747 61.0083 34.823 60.8601ZM21.8518 50.8538C22.0001 50.8538 22.0742 50.8538 22.0001 50.6314C22.0001 50.7055 21.8518 50.8538 21.8518 50.8538ZM36.676 54.5598C36.6019 54.708 36.6019 54.7822 36.6019 54.7822C36.676 54.7822 36.7501 54.7822 36.676 54.5598ZM26.4473 48.8525C26.5214 48.8525 26.5956 48.8525 26.5214 48.6301C26.4473 48.7784 26.4473 48.8525 26.4473 48.8525ZM31.8581 45.1465C31.9323 45.1465 31.9323 44.9982 31.9323 44.9982C31.9323 44.9982 31.8581 44.9982 31.7099 45.1465H31.8581ZM31.5617 64.1955C31.5617 64.3437 31.5617 64.3437 31.4134 64.4179C31.5617 64.4179 31.7099 64.4179 31.5617 64.1955ZM31.5617 88.0624C31.6358 87.9882 31.6358 87.9882 31.6358 87.9141C31.5617 87.9141 31.4134 87.9141 31.5617 88.0624ZM15.1069 91.0272C15.1069 91.1013 15.1069 91.2496 15.2551 91.1013C15.181 91.0272 15.181 91.0272 15.1069 91.0272ZM23.5566 95.7709C23.6307 95.7709 23.779 95.7709 23.6307 95.5486C23.6307 95.6968 23.5566 95.6968 23.5566 95.7709ZM37.4172 81.2433C37.6396 81.095 37.5654 81.2433 37.6396 81.3915C37.5654 81.2433 37.4172 81.2433 37.4172 81.2433ZM28.3745 46.8512C28.4486 46.8512 28.5968 46.8512 28.4486 46.703C28.3745 46.7771 28.3745 46.7771 28.3745 46.8512ZM20.9624 52.1879C21.1106 52.1879 21.1848 52.1138 21.1848 52.0397C21.1106 52.1138 20.9624 52.1138 20.9624 52.1879ZM19.6282 53.3739C19.7023 53.3739 19.7765 53.2997 19.7765 53.2256H19.6282V53.3739ZM5.69353 68.2721C5.69353 68.2721 5.61941 68.2721 5.61941 68.3463L5.54529 68.2721C5.61941 68.0498 5.61941 68.198 5.69353 68.2721ZM37.4172 82.6515C37.4172 82.6515 37.5654 82.7257 37.6396 82.7257C37.5654 82.6516 37.6396 82.5774 37.4172 82.6515ZM10.7337 60.8601C10.7337 61.0083 10.6596 61.0083 10.6596 61.0083C10.6596 61.0083 10.5855 61.0083 10.6596 60.8601V60.7859L10.7337 60.8601ZM21.7777 49.742C21.7777 49.8161 21.7777 49.8161 21.7036 49.9643C21.7036 49.9643 21.7036 49.8161 21.5554 49.8161C21.7036 49.8161 21.7777 49.742 21.7777 49.742ZM9.99253 61.8978C9.99253 61.9719 9.84429 62.046 9.84429 62.046C9.69604 61.9719 9.84429 61.9719 9.99253 61.8978ZM36.083 58.4882C36.083 58.6364 36.0089 58.6364 36.0089 58.6364C36.0089 58.7106 36.083 58.7106 36.083 58.7106C36.083 58.7106 36.1571 58.7106 36.1571 58.6364C36.1571 58.6364 36.083 58.6364 36.083 58.4882ZM11.9197 95.2521C11.8455 95.2521 11.6973 95.2521 11.8455 95.4744C11.8455 95.4003 11.9197 95.2521 11.9197 95.2521ZM19.9988 99.9217C19.9988 99.9217 20.0729 99.7734 20.0729 99.6993C19.9988 99.7734 19.9247 99.6993 19.9988 99.9217ZM14.5139 56.5611C14.3656 56.6352 14.3656 56.6352 14.3656 56.7093C14.2174 56.5611 14.3656 56.5611 14.5139 56.5611ZM28.0039 90.0636C27.9297 90.0636 27.7815 90.0636 27.7815 90.1377C27.7815 90.0636 27.7815 89.9895 27.9297 89.9895L28.0039 90.0636ZM16.8858 53.8186C17.034 53.9668 16.8858 53.9668 16.7375 53.9668C16.8858 53.8927 16.8858 53.8186 16.8858 53.8186ZM39.7891 81.8362C39.7149 81.8362 39.7149 81.7621 39.7149 81.7621C39.7149 81.7621 39.7891 81.688 39.9373 81.688C39.7891 81.7621 39.7891 81.7621 39.7891 81.8362ZM57.578 83.8375C57.578 83.8375 57.6521 83.8375 57.6521 83.7634H57.4298C57.4298 83.8375 57.578 83.8375 57.578 83.8375ZM52.1672 86.4317C52.2413 86.4317 52.2413 86.2835 52.2413 86.2835V86.2093C52.1672 86.2093 52.1672 86.2835 52.1672 86.2835V86.4317ZM36.4536 81.9845L36.6019 81.8362V81.9845H36.4536ZM26.225 49.149C26.225 49.0749 26.2991 48.9266 26.2991 48.9266C26.225 48.9266 26.1508 48.9266 26.225 49.149ZM12.5868 60.7118L12.735 60.5636H12.5868V60.7118ZM20.5177 99.4028C20.5918 99.4028 20.6659 99.3287 20.6659 99.1805C20.5918 99.3287 20.5177 99.3287 20.5177 99.4028ZM27.7815 91.6943C27.9297 91.6943 28.0039 91.6943 28.0039 91.8425C28.0039 91.6943 28.0039 91.546 27.7815 91.6943ZM17.1822 55.8198C17.2564 55.8198 17.2564 55.7457 17.2564 55.6716C17.1822 55.7457 17.034 55.6716 17.1822 55.8198ZM11.2526 60.2671V60.4153H11.1043L11.2526 60.2671ZM11.5491 96.1415H11.4008L11.5491 96.2898V96.1415ZM41.7162 77.2407C41.7903 77.4631 41.7162 77.3149 41.5679 77.4631C41.7162 77.3149 41.7162 77.2407 41.7162 77.2407ZM4.21111 70.8664H4.13699V70.7181C4.21111 70.7181 4.21111 70.7181 4.21111 70.8664ZM24.4461 50.2608C24.4461 50.2608 24.6684 50.2608 24.5202 50.1126C24.4461 50.1126 24.4461 50.2608 24.4461 50.2608ZM37.1207 84.134C37.1207 84.0598 37.2689 84.0598 37.2689 84.0598L37.3431 84.134H37.1207ZM61.8029 78.9455C61.877 79.0938 61.8029 79.0938 61.7288 79.0938C61.7288 79.0196 61.7288 79.0196 61.8029 78.9455ZM21.7036 51.1502C21.7777 51.002 21.7777 50.9279 21.7777 50.9279C21.7036 50.9279 21.7036 51.002 21.6295 51.002C21.7036 51.002 21.7036 51.0761 21.7036 51.1502ZM29.8569 88.0624C29.7828 87.9141 29.8569 87.9141 29.931 87.9141C29.931 87.9882 29.931 87.9882 29.8569 88.0624ZM20.2212 52.7809C20.2953 52.7809 20.3694 52.7809 20.2953 52.6327C20.2212 52.7068 20.2212 52.7809 20.2212 52.7809ZM8.95484 62.9354C8.88072 62.8613 8.88072 62.8613 8.95484 62.8613H9.10308C9.10308 62.9354 8.95484 62.9354 8.95484 62.9354ZM10.3631 101.404L10.4373 101.256V101.182C10.3631 101.182 10.3631 101.256 10.3631 101.256V101.404ZM16.0704 57.0058C16.0704 57.0058 16.0704 56.9317 16.1445 56.9317C16.0704 56.9317 16.0704 56.8575 16.0704 56.8575L15.9963 56.9317C15.9963 56.9317 15.9963 57.0058 16.0704 57.0058ZM10.6596 63.5284C10.7337 63.4543 10.7337 63.3802 10.7337 63.3802C10.6596 63.3802 10.5855 63.3802 10.6596 63.5284ZM26.4473 92.8802C26.5214 92.8802 26.5956 92.8802 26.5214 92.732C26.4473 92.8061 26.4473 92.8802 26.4473 92.8802ZM16.0704 89.5448V89.4707C16.0704 89.3965 15.9963 89.2483 15.9963 89.4707L16.0704 89.5448ZM5.32292 68.791C5.39704 68.9392 5.32292 68.8651 5.2488 68.9392C5.2488 68.8651 5.2488 68.791 5.32292 68.791ZM26.2991 47.5925C26.225 47.5925 26.1508 47.5925 26.1508 47.5183C26.1508 47.6666 26.1508 47.7407 26.2991 47.5925ZM39.1961 79.5385C39.2702 79.6867 39.122 79.6126 39.122 79.6867C39.122 79.6126 39.122 79.5385 39.1961 79.5385ZM15.4775 57.5988L15.5516 57.5246L15.4775 57.4505C15.4033 57.4505 15.4033 57.5246 15.4775 57.5988ZM55.8732 83.4669C55.7991 83.4669 55.7991 83.541 55.7991 83.6151C55.8732 83.541 55.9474 83.6151 55.8732 83.4669ZM33.0441 44.5535H32.8958C32.8958 44.5535 32.8958 44.6276 33.0441 44.6276V44.5535ZM32.2287 63.3802C32.1546 63.3802 32.0064 63.4543 32.0064 63.5284L32.2287 63.3802ZM34.0818 60.2671L34.0076 60.4153C34.0818 60.4153 34.0818 60.2671 34.23 60.2671H34.0818ZM18.9611 54.1892V54.1151H18.8129C18.8129 54.1151 18.8129 54.1892 18.9611 54.1892ZM5.91589 67.7533C5.84177 67.7533 5.84177 67.6792 5.84177 67.6792C5.84177 67.6792 5.84177 67.605 5.91589 67.605V67.7533ZM25.039 47.296L25.1131 47.3701C25.039 47.3701 25.039 47.4442 24.9649 47.4442C24.9649 47.3701 25.039 47.3701 25.039 47.296ZM39.122 82.2809L39.1961 82.3551C39.1961 82.4292 39.122 82.4292 39.0478 82.4292C39.122 82.4292 39.122 82.3551 39.122 82.2809ZM29.5604 46.2583C29.6345 46.1842 29.6345 46.1842 29.6345 46.11C29.6345 46.11 29.5604 46.1842 29.4863 46.1842C29.5604 46.1842 29.5604 46.2583 29.5604 46.2583ZM26.4473 72.0523C26.4473 72.0523 26.5214 72.0523 26.5214 71.904C26.4473 71.904 26.4473 71.9782 26.4473 72.0523ZM29.2639 88.5071C29.2639 88.5812 29.338 88.5812 29.338 88.5812C29.2639 88.6553 29.2639 88.6553 29.1898 88.6553C29.1898 88.6553 29.2639 88.5812 29.2639 88.5071ZM19.9247 53.0774C19.9988 53.0774 20.0729 53.0033 20.0729 52.9291C19.9988 52.9291 19.9247 53.0033 19.9247 53.0774ZM38.2325 81.8362C38.3066 81.8362 38.4549 81.8362 38.3066 81.7621L38.2325 81.8362ZM10.6596 98.2169C10.7337 98.2169 10.7337 98.2169 10.7337 98.1428C10.7337 98.0687 10.6596 98.0687 10.6596 98.1428V98.2169ZM26.1508 93.1767C26.225 93.1767 26.2991 93.1026 26.2991 93.0284C26.225 93.0284 26.1508 93.1026 26.1508 93.1767ZM36.3054 82.1327C36.3054 82.0586 36.3795 81.9845 36.4536 81.9845C36.4536 82.0586 36.3795 82.1327 36.3054 82.1327ZM33.1182 61.9719C33.0441 61.9719 32.8217 61.9719 33.0441 62.046C33.0441 62.046 33.0441 61.9719 33.1182 61.9719ZM36.0089 82.4292C36.0089 82.3551 36.083 82.2809 36.1571 82.2809C36.1571 82.3551 36.083 82.4292 36.0089 82.4292ZM34.9712 58.7847C34.9712 58.9329 34.8971 58.9329 34.8971 58.9329C34.8971 58.9329 34.8971 59.007 34.9712 59.007V58.7847ZM37.3431 53.5221C37.269 53.5221 37.0466 53.5221 37.2689 53.5962C37.2689 53.5962 37.269 53.5221 37.3431 53.5221ZM29.4863 46.8512C29.5604 46.8512 29.6345 46.8512 29.5604 46.703C29.5604 46.7771 29.5604 46.7771 29.4863 46.8512ZM16.6634 54.1892C16.441 54.1151 16.5893 54.1151 16.6634 54.1151V54.1892ZM35.1936 83.1704H35.2677V83.2445H35.1936V83.1704ZM12.4385 94.5109H12.2903L12.4385 94.585V94.5109ZM36.6019 56.1163H36.7501L36.676 56.0422L36.6019 56.1163ZM19.1094 54.7822L19.2576 54.708H19.1094V54.7822ZM16.5893 56.4128C16.6634 56.4128 16.6634 56.4128 16.6634 56.3387H16.5893V56.4128ZM29.2639 47.0736C29.338 47.0736 29.338 46.9995 29.338 46.9995C29.338 46.9995 29.1898 46.9995 29.2639 47.0736ZM54.5391 84.3563H54.3908L54.5391 84.4304V84.3563ZM30.7463 46.2583C30.7463 46.2583 30.7463 46.1842 30.8204 46.1842H30.6722C30.6722 46.1842 30.6722 46.2583 30.7463 46.2583ZM60.9876 79.6126V79.5385C60.9135 79.5385 60.9135 79.6126 60.8393 79.6126H60.9876ZM26.7438 71.3111V71.4593L26.8179 71.3111H26.7438ZM22.7413 51.595H22.8895L22.7413 51.5209V51.595ZM24.2237 95.1038V94.9556L24.1496 95.1038H24.2237ZM4.95232 69.4581V69.5322H4.80408L4.95232 69.4581ZM38.4549 80.2797V80.2056H38.529V80.2797H38.4549ZM35.8607 82.6515C35.7865 82.6515 35.7865 82.6516 35.7865 82.5774H35.8607V82.6515ZM37.4172 56.1163H37.5654L37.4172 56.0422V56.1163ZM35.8607 57.4505C35.7865 57.5246 35.7865 57.5246 35.7865 57.5988L35.8607 57.5246V57.4505ZM34.23 86.8023V86.7282H34.3041C34.3041 86.8023 34.23 86.8023 34.23 86.8023ZM36.676 81.8362H36.6019C36.6019 81.8362 36.6019 81.7621 36.676 81.7621V81.8362ZM14.588 56.3387C14.588 56.4128 14.588 56.4128 14.5139 56.4869C14.588 56.4128 14.588 56.3387 14.588 56.3387ZM25.8544 93.4732C25.9285 93.4732 26.0026 93.3991 26.0026 93.3249C25.9285 93.3249 25.9285 93.3991 25.8544 93.4732ZM27.0403 48.556L27.1144 48.4819H27.0403V48.556ZM41.1973 45.1465H41.1232L41.1973 45.2206V45.1465ZM24.1496 47.8889H24.2237L24.1496 47.9631V47.8889ZM10.4373 98.7357H10.3631V98.8099L10.4373 98.7357ZM36.3795 43.4417V43.3676H36.3054L36.3795 43.4417ZM25.5579 93.7697C25.632 93.6955 25.7061 93.6955 25.7061 93.6214L25.5579 93.7697ZM32.5993 64.9367C32.5993 65.0108 32.5993 65.0108 32.5252 65.0108L32.5993 64.9367ZM10.9561 97.6239H11.0302L10.9561 97.5498V97.6239ZM11.2526 97.031H11.3267L11.2526 96.9568V97.031ZM36.3795 58.1176H36.4536L36.3795 58.0435V58.1176ZM36.9725 55.4492L36.8983 55.5234H36.9725V55.4492ZM20.8141 53.0033H20.8883V52.9291L20.8141 53.0033ZM28.6709 47.3701H28.7451V47.296L28.6709 47.3701ZM14.8845 57.5246H14.9586L14.8845 57.4505V57.5246ZM36.083 83.8375H36.1571L36.083 83.7634V83.8375ZM35.1936 44.3311L35.2677 44.257H35.1936V44.3311ZM35.49 58.0435V58.1176H35.5642L35.49 58.0435ZM16.5893 56.9317H16.6634V56.8575L16.5893 56.9317ZM21.7036 97.5498V97.6239H21.7777L21.7036 97.5498ZM28.9674 46.4806H29.0415V46.4065L28.9674 46.4806ZM24.1496 47.9631C24.1496 48.0372 24.1496 48.0372 24.0755 48.0372C24.0755 48.0372 24.1496 48.0372 24.1496 47.9631Z" fill="white"/>
<path d="M214.734 32.7965C214.363 32.7965 214.031 32.7363 213.738 32.616C213.444 32.4957 213.209 32.3177 213.031 32.0819C212.857 31.8461 212.766 31.5622 212.756 31.2302H214.07C214.089 31.4179 214.154 31.5622 214.265 31.6633C214.376 31.7595 214.52 31.8076 214.698 31.8076C214.881 31.8076 215.025 31.7667 215.131 31.6849C215.237 31.5983 215.29 31.4804 215.29 31.3313C215.29 31.2062 215.246 31.1027 215.16 31.0209C215.078 30.9391 214.975 30.8717 214.849 30.8188C214.729 30.7659 214.556 30.7057 214.33 30.6384C214.003 30.5373 213.736 30.4363 213.529 30.3352C213.322 30.2342 213.144 30.085 212.995 29.8877C212.845 29.6904 212.771 29.433 212.771 29.1154C212.771 28.6439 212.942 28.2758 213.283 28.0111C213.625 27.7417 214.07 27.6069 214.619 27.6069C215.177 27.6069 215.627 27.7417 215.968 28.0111C216.31 28.2758 216.493 28.6463 216.517 29.1226H215.181C215.172 28.959 215.112 28.8315 215.001 28.7401C214.89 28.6439 214.748 28.5958 214.575 28.5958C214.426 28.5958 214.306 28.6367 214.214 28.7185C214.123 28.7954 214.077 28.9085 214.077 29.0577C214.077 29.2213 214.154 29.3488 214.308 29.4402C214.462 29.5317 214.703 29.6303 215.03 29.7362C215.357 29.8468 215.622 29.9527 215.824 30.0537C216.031 30.1548 216.209 30.3015 216.358 30.494C216.507 30.6865 216.582 30.9343 216.582 31.2374C216.582 31.5261 216.507 31.7884 216.358 32.0242C216.214 32.2599 216.002 32.4476 215.723 32.5871C215.444 32.7267 215.114 32.7965 214.734 32.7965Z" fill="white"/>
<path d="M218.868 30.1718C218.868 27.8312 216.971 25.9337 214.63 25.9337C212.29 25.9337 210.392 27.8312 210.392 30.1718C210.392 32.5125 212.29 34.4099 214.63 34.4099V35.2172C211.844 35.2172 209.585 32.9583 209.585 30.1718C209.585 27.3854 211.844 25.1265 214.63 25.1265C217.417 25.1265 219.676 27.3854 219.676 30.1718C219.676 32.9583 217.417 35.2172 214.63 35.2172V34.4099C216.971 34.4099 218.868 32.5125 218.868 30.1718Z" fill="white"/>
<path d="M54.8853 120.085H53.0283V119.967C53.3014 119.885 53.3924 119.676 53.3924 118.929V114.87C53.3924 114.123 53.3014 113.914 53.0283 113.832V113.714H55.1583C56.5601 113.714 57.1336 114.178 57.1336 114.915C57.1336 115.534 56.7331 116.099 55.6954 116.29C57.1791 116.363 57.8345 117.1 57.8436 117.992C57.8618 119.011 57.0972 120.085 54.8853 120.085ZM54.9672 119.949C56.4509 119.949 57.0153 119.23 57.0153 118.219C57.0153 117.173 56.4327 116.408 55.0673 116.408H54.1389V119.157C54.1389 119.812 54.2208 119.949 54.6122 119.949H54.9672ZM54.9854 116.271C55.8865 116.271 56.3053 115.744 56.3053 115.079C56.3053 114.324 55.7682 113.85 54.8306 113.85H54.1389V116.271H54.9854ZM60.8957 120.176C59.8944 120.176 58.7384 119.448 58.7384 117.946C58.7384 116.463 59.858 115.47 61.1324 115.47C62.2793 115.47 62.9438 116.217 62.9711 117.082H59.412C59.3938 117.218 59.3847 117.355 59.3847 117.5C59.3847 118.747 60.1584 119.603 61.3418 119.603C62.0426 119.603 62.5433 119.284 62.962 118.811L63.0439 118.893C62.5797 119.53 61.8697 120.176 60.8957 120.176ZM59.4393 116.963H62.2429C62.1519 116.353 61.6603 115.634 60.832 115.634C60.0583 115.625 59.585 116.199 59.4393 116.963ZM63.7742 120.085V119.967C64.0564 119.885 64.1383 119.676 64.1383 118.929V114.105C64.1383 113.468 64.02 113.377 63.7742 113.268V113.168L64.7664 112.731L64.8483 112.794V116.308C65.3762 115.88 66.0771 115.47 66.778 115.47C67.6701 115.47 68.2162 115.989 68.2162 117.054V118.929C68.2162 119.676 68.3073 119.885 68.5804 119.967V120.085H67.1421V119.967C67.4243 119.885 67.5062 119.676 67.5062 118.929V117.236C67.5062 116.29 67.1057 115.771 66.3047 115.771C65.8041 115.771 65.3125 116.071 64.8483 116.454V118.929C64.8483 119.676 64.9393 119.885 65.2124 119.967V120.085H63.7742ZM69.3641 120.085V119.967C69.6463 119.885 69.7282 119.676 69.7282 118.929V116.836C69.7282 116.199 69.619 116.108 69.3641 115.998V115.898L70.3654 115.461L70.4382 115.525V118.929C70.4382 119.676 70.5292 119.885 70.8023 119.967V120.085H69.3641ZM70.0286 114.906C69.7464 114.906 69.5279 114.679 69.5279 114.405C69.5279 114.114 69.7464 113.896 70.0286 113.896C70.3199 113.896 70.5292 114.114 70.5292 114.405C70.5292 114.679 70.3108 114.906 70.0286 114.906ZM71.6817 120.085V119.967C71.9639 119.885 72.0458 119.676 72.0458 118.929V116.836C72.0458 116.199 71.9366 116.108 71.6817 115.998V115.898L72.683 115.461L72.7558 115.525V116.308C73.2837 115.88 73.9846 115.47 74.6855 115.47C75.5776 115.47 76.1237 115.989 76.1237 117.054V118.929C76.1237 119.676 76.2148 119.885 76.4878 119.967V120.085H75.0496V119.967C75.3318 119.885 75.4137 119.676 75.4137 118.929V117.236C75.4137 116.29 75.0132 115.771 74.2122 115.771C73.7116 115.771 73.22 116.071 72.7558 116.454V118.929C72.7558 119.676 72.8468 119.885 73.1199 119.967V120.085H71.6817ZM79.3186 120.186C78.1899 120.176 77.3069 119.203 77.3069 117.919C77.3069 116.654 78.1717 115.489 79.7373 115.48C80.238 115.48 80.6567 115.634 80.9753 115.835V114.105C80.9753 113.468 80.8569 113.377 80.6112 113.268V113.168L81.6124 112.731L81.6853 112.794V118.929C81.6853 119.676 81.7672 119.885 82.0494 119.967V120.085H81.2483C81.0754 120.085 80.9753 119.985 80.9753 119.812V119.294C80.5292 119.758 79.9649 120.195 79.3186 120.186ZM77.9896 117.373C77.9896 118.438 78.4903 119.74 79.7282 119.74C80.2016 119.74 80.6203 119.494 80.9753 119.13V116.9C80.8933 116.308 80.2198 115.653 79.4551 115.653C78.4903 115.653 77.9896 116.408 77.9896 117.373Z" fill="white"/>
<path d="M171.901 120.085H170.044V119.967C170.317 119.885 170.408 119.676 170.408 118.929V114.87C170.408 114.123 170.317 113.914 170.044 113.832V113.714H172.174C173.576 113.714 174.149 114.178 174.149 114.915C174.149 115.534 173.748 116.099 172.711 116.29C174.195 116.363 174.85 117.1 174.859 117.992C174.877 119.011 174.113 120.085 171.901 120.085ZM171.983 119.949C173.466 119.949 174.031 119.23 174.031 118.219C174.031 117.173 173.448 116.408 172.083 116.408H171.154V119.157C171.154 119.812 171.236 119.949 171.628 119.949H171.983ZM172.001 116.271C172.902 116.271 173.321 115.744 173.321 115.079C173.321 114.324 172.784 113.85 171.846 113.85H171.154V116.271H172.001ZM177.911 120.176C176.91 120.176 175.754 119.448 175.754 117.946C175.754 116.463 176.873 115.47 178.148 115.47C179.295 115.47 179.959 116.217 179.987 117.082H176.427C176.409 117.218 176.4 117.355 176.4 117.5C176.4 118.747 177.174 119.603 178.357 119.603C179.058 119.603 179.559 119.284 179.977 118.811L180.059 118.893C179.595 119.53 178.885 120.176 177.911 120.176ZM176.455 116.963H179.258C179.167 116.353 178.676 115.634 177.847 115.634C177.074 115.625 176.6 116.199 176.455 116.963ZM184.313 120.085C184.131 120.085 184.04 119.985 184.04 119.812V118.174C183.758 119.294 182.993 120.176 182.092 120.176C181.419 120.176 180.818 119.767 180.818 118.984C180.818 118.037 181.774 117.682 182.857 117.382L184.04 117.063C183.995 116.18 183.54 115.771 182.766 115.771C182.22 115.771 181.692 116.026 181.237 116.581L181.155 116.508C181.674 115.862 182.338 115.47 183.13 115.47C184.231 115.47 184.741 116.08 184.741 117.109V118.929C184.741 119.676 184.823 119.885 185.105 119.967V120.085H184.313ZM181.501 118.729C181.501 119.321 181.91 119.639 182.429 119.639C183.403 119.639 184.031 118.411 184.04 117.455V117.2V117.182L182.893 117.491C182.22 117.682 181.492 117.983 181.501 118.729ZM187.584 120.176C186.628 120.176 186.191 119.567 186.191 118.52V116.836C186.191 116.199 186.073 116.108 185.827 115.998V115.898L186.819 115.461L186.901 115.525V118.356C186.901 119.394 187.192 119.858 187.92 119.858C188.458 119.858 188.949 119.521 189.359 119.084V116.836C189.359 116.199 189.24 116.108 188.995 115.998V115.898L189.987 115.461L190.069 115.525V118.929C190.069 119.676 190.151 119.885 190.433 119.967V120.085H189.659C189.459 120.085 189.359 119.985 189.359 119.721V119.257C188.894 119.74 188.266 120.176 187.584 120.176ZM192.749 120.176C192.175 120.176 191.829 119.821 191.829 118.875V115.662H191.247V115.534L192.412 114.415H192.539V115.534H193.923L193.877 115.662H192.539V118.875C192.539 119.494 192.794 119.73 193.185 119.73C193.44 119.73 193.759 119.612 194.059 119.257L194.141 119.339C193.75 119.785 193.286 120.176 192.749 120.176ZM194.703 121.842C194.348 121.851 194.084 121.733 194.084 121.587C194.084 121.414 194.312 121.087 194.649 121.087C194.885 121.087 195.377 121.223 195.796 121.296C196.114 121.023 196.396 120.577 196.624 120.104L195.131 116.599C194.849 115.916 194.621 115.734 194.43 115.653V115.534H195.805V115.653C195.532 115.734 195.604 115.916 195.896 116.599L197.015 119.203L198.135 116.599C198.39 116.008 198.372 115.716 198.053 115.653V115.534H199.063V115.653C198.809 115.734 198.572 115.916 198.271 116.599L196.861 119.858C196.087 121.642 195.286 121.833 194.703 121.842Z" fill="white"/>
<line x1="84.2222" y1="117.035" x2="167.662" y2="117.035" stroke="white" stroke-width="0.168566"/>
</svg>
