<svg width="127" height="58" viewBox="0 0 127 58" fill="none" xmlns="http://www.w3.org/2000/svg">
<g clip-path="url(#clip0_697_1215)">
<path d="M60.7356 2.77315L59.1172 4.89136C58.189 3.65375 57.0942 3.53475 56.523 3.53475C54.857 3.53475 54.3334 4.58196 54.3334 5.39117C54.3334 5.77197 54.4524 6.12897 54.8332 6.46217C55.214 6.81917 55.7376 7.00958 56.7372 7.36658C57.9748 7.79498 59.141 8.22338 59.9502 8.96119C60.6642 9.60379 61.3068 10.6748 61.3068 12.2932C61.3068 15.3872 59.0696 17.5054 55.7852 17.5054C52.8578 17.5054 51.1442 15.7204 50.3112 14.5066L52.3342 12.5788C53.0958 14.1258 54.5476 14.697 55.6662 14.697C57.0704 14.697 58.1176 13.8402 58.1176 12.5074C58.1176 11.9362 57.9272 11.484 57.4988 11.0794C56.9038 10.532 55.9518 10.2226 55.0474 9.91319C54.2144 9.62759 53.2148 9.24679 52.4056 8.53278C51.882 8.08058 51.1442 7.19998 51.1442 5.58157C51.1442 3.24915 52.715 0.916738 56.2374 0.916738C57.237 0.916738 59.1172 1.10714 60.7356 2.77315ZM73.3064 1.27374V3.93936H67.5943V7.48558H73.0684V10.1512H67.5943V14.4828H73.3064V17.1484H64.5003V1.27374H73.3064ZM79.8774 17.1484H76.7834V1.27374H78.9254L88.5883 11.8648V1.27374H91.6823V17.1484H89.5403L79.8774 6.53357V17.1484ZM105.208 2.77315L103.59 4.89136C102.662 3.65375 101.567 3.53475 100.996 3.53475C99.3298 3.53475 98.8062 4.58196 98.8062 5.39117C98.8062 5.77197 98.9252 6.12897 99.306 6.46217C99.6868 6.81917 100.21 7.00958 101.21 7.36658C102.448 7.79498 103.614 8.22338 104.423 8.96119C105.137 9.60379 105.78 10.6748 105.78 12.2932C105.78 15.3872 103.542 17.5054 100.258 17.5054C97.3306 17.5054 95.617 15.7204 94.784 14.5066L96.807 12.5788C97.5686 14.1258 99.0204 14.697 100.139 14.697C101.543 14.697 102.59 13.8402 102.59 12.5074C102.59 11.9362 102.4 11.484 101.972 11.0794C101.377 10.532 100.425 10.2226 99.5202 9.91319C98.6872 9.62759 97.6876 9.24679 96.8784 8.53278C96.3548 8.08058 95.617 7.19998 95.617 5.58157C95.617 3.24915 97.1878 0.916738 100.71 0.916738C101.71 0.916738 103.59 1.10714 105.208 2.77315ZM116.684 0.916738C121.682 0.916738 125.157 4.39156 125.157 9.22299C125.157 14.0544 121.682 17.5054 116.684 17.5054C111.686 17.5054 108.212 14.0544 108.212 9.22299C108.212 4.39156 111.686 0.916738 116.684 0.916738ZM116.684 14.697C119.778 14.697 121.968 12.436 121.968 9.22299C121.968 6.00997 119.778 3.72516 116.684 3.72516C113.59 3.72516 111.401 6.00997 111.401 9.22299C111.401 12.436 113.59 14.697 116.684 14.697ZM51.3108 25.2737H54.4048V38.4828H59.3076V41.1484H51.3108V25.2737ZM73.237 41.1484L71.8328 37.8164H65.4306L64.0264 41.1484H60.6705L67.5012 25.2737H69.9288L76.569 41.1484H73.237ZM66.4064 35.2936H70.9284L68.6674 29.5816L66.4064 35.2936ZM78.8985 25.2737H82.8255C83.7061 25.2737 85.4197 25.2737 86.7049 26.2733C87.6331 26.9874 88.1805 28.225 88.1805 29.5578C88.1805 31.6046 86.8239 32.4376 86.3955 32.6756C87.4427 32.8422 88.0615 33.2944 88.4661 33.6752C89.4181 34.5796 89.6085 35.8172 89.6085 36.6502C89.6085 37.5784 89.3467 38.8874 88.2519 39.8632C87.0619 40.9104 85.6101 41.1484 84.2297 41.1484H78.8985V25.2737ZM81.9925 27.7966V31.8664H82.8731C83.3491 31.8664 85.2769 31.8188 85.2769 29.7958C85.2769 28.344 84.1583 27.7966 82.8969 27.7966H81.9925ZM81.9925 34.2464V38.6256H83.3253C83.8965 38.6256 84.7533 38.6018 85.4435 38.1972C86.2051 37.745 86.4193 36.9834 86.4193 36.3646C86.4193 35.8648 86.2527 35.008 85.2531 34.5558C84.5867 34.2464 83.8013 34.2464 83.1349 34.2464H81.9925Z" fill="black"/>
<path d="M0.00390625 0.851562C11.0489 0.851562 20.0029 9.80557 20.0029 20.8506L0.00390625 20.8496H10.0029C10.0027 15.3273 5.52629 10.8506 0.00390625 10.8506V0.851562Z" fill="#FF0000"/>
<path d="M20 0.851562C31.045 0.851562 39.999 9.80557 39.999 20.8506L20 20.8496H29.999C29.9988 15.3273 25.5224 10.8506 20 10.8506V0.851562Z" fill="black"/>
<path d="M0 20.8525C11.045 20.8525 19.999 29.8065 19.999 40.8516H0V40.8496H10C9.99985 35.3272 5.52242 30.8506 0 30.8506V20.8525Z" fill="black"/>
<path d="M20 20.8525C31.045 20.8525 39.999 29.8065 39.999 40.8516H20V40.8496H29.999C29.9989 35.3273 25.5224 30.8507 20 30.8506V20.8525Z" fill="black"/>
</g>
<path d="M4.365 51.3414L2.988 55.1484H2.106L0.018 49.1454H1.26L2.601 53.2314L4.068 49.0914H4.716L6.102 53.2314L7.542 49.1454H8.784L6.561 55.1484H5.679L4.365 51.3414ZM9.00345 55.1484V48.5874H10.1014V51.7554C10.3084 51.4674 10.6774 51.1254 11.3074 51.1254C11.6494 51.1254 12.1534 51.2244 12.4594 51.6024C12.7294 51.9354 12.7654 52.3224 12.7654 52.7004V55.1484H11.6674V53.0244C11.6674 52.8084 11.6584 52.4664 11.4604 52.2594C11.2894 52.0794 11.0554 52.0614 10.9474 52.0614C10.6594 52.0614 10.4344 52.1604 10.2724 52.4034C10.1104 52.6554 10.1014 52.9344 10.1014 53.1594V55.1484H9.00345ZM16.5314 53.8974L17.5394 54.0594C17.4224 54.3474 16.9814 55.2744 15.6224 55.2744C14.9924 55.2744 14.5154 55.0944 14.1284 54.7254C13.6964 54.3204 13.5164 53.8164 13.5164 53.2044C13.5164 52.4304 13.8314 51.9534 14.1104 51.6744C14.5694 51.2244 15.1094 51.1254 15.5774 51.1254C16.3694 51.1254 16.8284 51.4404 17.0984 51.7644C17.5124 52.2594 17.5664 52.8714 17.5664 53.2944V53.3844H14.6504C14.6504 53.6184 14.7134 53.8704 14.8394 54.0414C14.9564 54.2034 15.1994 54.4104 15.6224 54.4104C16.0364 54.4104 16.3514 54.2124 16.5314 53.8974ZM14.6864 52.6824H16.5314C16.4414 52.1514 16.0094 51.8994 15.6044 51.8994C15.1994 51.8994 14.7764 52.1604 14.6864 52.6824ZM18.4165 55.1484V51.2514H19.5145V51.8364C19.6855 51.5034 19.9195 51.3414 20.0005 51.2964C20.1715 51.1884 20.3875 51.1254 20.6485 51.1254C20.8375 51.1254 20.9905 51.1704 21.1165 51.2154L20.9725 52.2414C20.8285 52.1424 20.6845 52.0974 20.4595 52.0974C20.2525 52.0974 19.9465 52.1424 19.7305 52.4124C19.5235 52.6734 19.5145 53.0064 19.5145 53.2764V55.1484H18.4165ZM24.2833 53.8974L25.2913 54.0594C25.1743 54.3474 24.7333 55.2744 23.3743 55.2744C22.7443 55.2744 22.2673 55.0944 21.8803 54.7254C21.4483 54.3204 21.2683 53.8164 21.2683 53.2044C21.2683 52.4304 21.5833 51.9534 21.8623 51.6744C22.3213 51.2244 22.8613 51.1254 23.3293 51.1254C24.1213 51.1254 24.5803 51.4404 24.8503 51.7644C25.2643 52.2594 25.3183 52.8714 25.3183 53.2944V53.3844H22.4023C22.4023 53.6184 22.4653 53.8704 22.5913 54.0414C22.7083 54.2034 22.9513 54.4104 23.3743 54.4104C23.7883 54.4104 24.1033 54.2124 24.2833 53.8974ZM22.4383 52.6824H24.2833C24.1933 52.1514 23.7613 51.8994 23.3563 51.8994C22.9513 51.8994 22.5283 52.1604 22.4383 52.6824ZM31.9951 49.7124L31.3831 50.5134C31.0321 50.0454 30.6181 50.0004 30.4021 50.0004C29.7721 50.0004 29.5741 50.3964 29.5741 50.7024C29.5741 50.8464 29.6191 50.9814 29.7631 51.1074C29.9071 51.2424 30.1051 51.3144 30.4831 51.4494C30.9511 51.6114 31.3921 51.7734 31.6981 52.0524C31.9681 52.2954 32.2111 52.7004 32.2111 53.3124C32.2111 54.4824 31.3651 55.2834 30.1231 55.2834C29.0161 55.2834 28.3681 54.6084 28.0531 54.1494L28.8181 53.4204C29.1061 54.0054 29.6551 54.2214 30.0781 54.2214C30.6091 54.2214 31.0051 53.8974 31.0051 53.3934C31.0051 53.1774 30.9331 53.0064 30.7711 52.8534C30.5461 52.6464 30.1861 52.5294 29.8441 52.4124C29.5291 52.3044 29.1511 52.1604 28.8451 51.8904C28.6471 51.7194 28.3681 51.3864 28.3681 50.7744C28.3681 49.8924 28.9621 49.0104 30.2941 49.0104C30.6721 49.0104 31.3831 49.0824 31.9951 49.7124ZM33.0767 51.2514H34.1747V55.1484H33.0767V51.2514ZM32.9687 49.6044C32.9687 49.2444 33.2657 48.9474 33.6257 48.9474C33.9857 48.9474 34.2827 49.2444 34.2827 49.6044C34.2827 49.9644 33.9857 50.2614 33.6257 50.2614C33.2657 50.2614 32.9687 49.9644 32.9687 49.6044ZM38.1912 51.7554V51.2514H39.2892V54.9684C39.2892 55.5624 39.2352 56.1834 38.7492 56.6694C38.4792 56.9394 38.0112 57.2184 37.2102 57.2184C36.4542 57.2184 36.0042 56.9934 35.7522 56.7684C35.4462 56.5074 35.2122 56.0484 35.1222 55.6074H36.3102C36.3552 55.7874 36.4542 55.9674 36.5802 56.0754C36.7962 56.2734 37.0932 56.2824 37.2462 56.2824C37.5612 56.2824 37.7682 56.1744 37.9122 56.0394C38.1642 55.7964 38.1912 55.4904 38.1912 55.1754V54.6264C37.8132 55.2024 37.2912 55.2744 36.9942 55.2744C36.4722 55.2744 36.0222 55.1124 35.6442 54.7434C35.3562 54.4554 35.0232 53.9514 35.0232 53.1954C35.0232 52.5834 35.2482 52.0164 35.6262 51.6474C35.9682 51.3144 36.4452 51.1254 36.9672 51.1254C37.6962 51.1254 38.0382 51.5214 38.1912 51.7554ZM37.2372 52.0974C36.8862 52.0974 36.6432 52.2414 36.5082 52.3674C36.3282 52.5294 36.1572 52.7904 36.1572 53.1954C36.1572 53.5374 36.2832 53.7894 36.4452 53.9604C36.6792 54.2124 36.9762 54.3024 37.2372 54.3024C37.5072 54.3024 37.7772 54.2034 37.9662 54.0324C38.1912 53.8254 38.3172 53.5104 38.3172 53.1954C38.3172 52.8264 38.1552 52.5744 38.0022 52.4124C37.7862 52.1874 37.5342 52.0974 37.2372 52.0974ZM40.3365 55.1484V48.5874H41.4345V51.7554C41.6415 51.4674 42.0105 51.1254 42.6405 51.1254C42.9825 51.1254 43.4865 51.2244 43.7925 51.6024C44.0625 51.9354 44.0985 52.3224 44.0985 52.7004V55.1484H43.0005V53.0244C43.0005 52.8084 42.9915 52.4664 42.7935 52.2594C42.6225 52.0794 42.3885 52.0614 42.2805 52.0614C41.9925 52.0614 41.7675 52.1604 41.6055 52.4034C41.4435 52.6554 41.4345 52.9344 41.4345 53.1594V55.1484H40.3365ZM46.9981 52.1874H46.2421V55.1484H45.1441V52.1874H44.7121V51.2514H45.1441V49.9194H46.2421V51.2514H46.9981V52.1874ZM49.5264 55.1484L50.6424 49.1454H51.4884L53.0814 52.9614L54.7464 49.1454H55.5924L56.6004 55.1484H55.4124L54.8724 51.4494L53.2614 55.1484H52.8654L51.3264 51.4494L50.7144 55.1484H49.5264ZM60.3185 53.8974L61.3265 54.0594C61.2095 54.3474 60.7685 55.2744 59.4095 55.2744C58.7795 55.2744 58.3025 55.0944 57.9155 54.7254C57.4835 54.3204 57.3035 53.8164 57.3035 53.2044C57.3035 52.4304 57.6185 51.9534 57.8975 51.6744C58.3565 51.2244 58.8965 51.1254 59.3645 51.1254C60.1565 51.1254 60.6155 51.4404 60.8855 51.7644C61.2995 52.2594 61.3535 52.8714 61.3535 53.2944V53.3844H58.4375C58.4375 53.6184 58.5005 53.8704 58.6265 54.0414C58.7435 54.2034 58.9865 54.4104 59.4095 54.4104C59.8235 54.4104 60.1385 54.2124 60.3185 53.8974ZM58.4735 52.6824H60.3185C60.2285 52.1514 59.7965 51.8994 59.3915 51.8994C58.9865 51.8994 58.5635 52.1604 58.4735 52.6824ZM65.0206 53.8974L66.0286 54.0594C65.9116 54.3474 65.4706 55.2744 64.1116 55.2744C63.4816 55.2744 63.0046 55.0944 62.6176 54.7254C62.1856 54.3204 62.0056 53.8164 62.0056 53.2044C62.0056 52.4304 62.3206 51.9534 62.5996 51.6744C63.0586 51.2244 63.5986 51.1254 64.0666 51.1254C64.8586 51.1254 65.3176 51.4404 65.5876 51.7644C66.0016 52.2594 66.0556 52.8714 66.0556 53.2944V53.3844H63.1396C63.1396 53.6184 63.2026 53.8704 63.3286 54.0414C63.4456 54.2034 63.6886 54.4104 64.1116 54.4104C64.5256 54.4104 64.8406 54.2124 65.0206 53.8974ZM63.1756 52.6824H65.0206C64.9306 52.1514 64.4986 51.8994 64.0936 51.8994C63.6886 51.8994 63.2656 52.1604 63.1756 52.6824ZM68.7598 52.1874H68.0038V55.1484H66.9058V52.1874H66.4738V51.2514H66.9058V49.9194H68.0038V51.2514H68.7598V52.1874ZM71.9956 51.5394L71.4556 52.1784C71.1946 51.9354 70.9336 51.9174 70.8166 51.9174C70.5556 51.9174 70.3936 52.0434 70.3936 52.2324C70.3936 52.3314 70.4386 52.4844 70.7446 52.5834L71.0056 52.6644C71.3116 52.7634 71.7706 52.9164 71.9956 53.2224C72.1126 53.3844 72.1936 53.6184 72.1936 53.8704C72.1936 54.2214 72.0766 54.5724 71.7616 54.8604C71.4466 55.1484 71.0686 55.2744 70.5916 55.2744C69.7816 55.2744 69.3226 54.8874 69.0796 54.6264L69.6556 53.9604C69.8716 54.2124 70.1956 54.4104 70.5196 54.4104C70.8256 54.4104 71.0596 54.2574 71.0596 53.9874C71.0596 53.7444 70.8616 53.6454 70.7176 53.5914L70.4656 53.5014C70.1866 53.4024 69.8626 53.2764 69.6286 53.0334C69.4486 52.8444 69.3316 52.6014 69.3316 52.2864C69.3316 51.9084 69.5116 51.5934 69.7366 51.4044C70.0426 51.1614 70.4386 51.1254 70.7536 51.1254C71.0416 51.1254 71.5006 51.1614 71.9956 51.5394ZM78.7968 49.7124L78.1848 50.5134C77.8338 50.0454 77.4198 50.0004 77.2038 50.0004C76.5738 50.0004 76.3758 50.3964 76.3758 50.7024C76.3758 50.8464 76.4208 50.9814 76.5648 51.1074C76.7088 51.2424 76.9068 51.3144 77.2848 51.4494C77.7528 51.6114 78.1938 51.7734 78.4998 52.0524C78.7698 52.2954 79.0128 52.7004 79.0128 53.3124C79.0128 54.4824 78.1668 55.2834 76.9248 55.2834C75.8178 55.2834 75.1698 54.6084 74.8548 54.1494L75.6198 53.4204C75.9078 54.0054 76.4568 54.2214 76.8798 54.2214C77.4108 54.2214 77.8068 53.8974 77.8068 53.3934C77.8068 53.1774 77.7348 53.0064 77.5728 52.8534C77.3478 52.6464 76.9878 52.5294 76.6458 52.4124C76.3308 52.3044 75.9528 52.1604 75.6468 51.8904C75.4488 51.7194 75.1698 51.3864 75.1698 50.7744C75.1698 49.8924 75.7638 49.0104 77.0958 49.0104C77.4738 49.0104 78.1848 49.0824 78.7968 49.7124ZM81.9124 51.1254C82.6504 51.1254 83.1544 51.3684 83.4874 51.6744C83.8744 52.0254 84.1444 52.5654 84.1444 53.2044C84.1444 53.8344 83.8744 54.3744 83.4874 54.7254C83.1544 55.0314 82.6504 55.2744 81.9124 55.2744C81.1744 55.2744 80.6704 55.0314 80.3374 54.7254C79.9504 54.3744 79.6804 53.8344 79.6804 53.2044C79.6804 52.5654 79.9504 52.0254 80.3374 51.6744C80.6704 51.3684 81.1744 51.1254 81.9124 51.1254ZM81.9124 54.3024C82.5514 54.3024 83.0104 53.7984 83.0104 53.2044C83.0104 52.5924 82.5424 52.0974 81.9124 52.0974C81.2824 52.0974 80.8144 52.5924 80.8144 53.2044C80.8144 53.7984 81.2734 54.3024 81.9124 54.3024ZM84.9937 51.2514H86.0917V53.4564C86.0917 53.6634 86.1097 53.9424 86.3257 54.1404C86.4607 54.2574 86.6767 54.3384 86.8837 54.3384C87.0907 54.3384 87.3067 54.2574 87.4417 54.1404C87.6577 53.9424 87.6757 53.6634 87.6757 53.4564V51.2514H88.7737V53.6364C88.7737 53.9874 88.7287 54.4554 88.2967 54.8334C87.9367 55.1484 87.3607 55.2744 86.8837 55.2744C86.4067 55.2744 85.8307 55.1484 85.4707 54.8334C85.0387 54.4554 84.9937 53.9874 84.9937 53.6364V51.2514ZM89.8189 48.5874H90.9169V55.1484H89.8189V48.5874ZM91.8734 54.5634C91.8734 54.1674 92.1794 53.8614 92.5754 53.8614C92.9714 53.8614 93.2774 54.1674 93.2774 54.5634C93.2774 54.9594 92.9714 55.2654 92.5754 55.2654C92.1794 55.2654 91.8734 54.9594 91.8734 54.5634Z" fill="black"/>
<defs>
<clipPath id="clip0_697_1215">
<rect width="126.502" height="40.2969" fill="white" transform="translate(0 0.851562)"/>
</clipPath>
</defs>
</svg>
