<svg width="204" height="80" viewBox="0 0 204 80" fill="none" xmlns="http://www.w3.org/2000/svg">
<rect width="10" height="4" fill="black"/>
<rect y="76" width="10" height="4" fill="black"/>
<rect width="4" height="80" fill="black"/>
<path d="M21.84 30.12C21.4 30.12 20.976 30.08 20.568 30C20.168 29.928 19.796 29.82 19.452 29.676C19.116 29.532 18.816 29.36 18.552 29.16L19.02 27.948C19.284 28.132 19.56 28.292 19.848 28.428C20.144 28.556 20.456 28.656 20.784 28.728C21.12 28.792 21.472 28.824 21.84 28.824C22.472 28.824 22.932 28.72 23.22 28.512C23.508 28.296 23.652 28.02 23.652 27.684C23.652 27.5 23.608 27.344 23.52 27.216C23.432 27.08 23.288 26.964 23.088 26.868C22.888 26.772 22.624 26.692 22.296 26.628L20.976 26.352C20.216 26.192 19.648 25.924 19.272 25.548C18.904 25.164 18.72 24.66 18.72 24.036C18.72 23.508 18.86 23.048 19.14 22.656C19.42 22.264 19.808 21.96 20.304 21.744C20.8 21.528 21.372 21.42 22.02 21.42C22.404 21.42 22.772 21.46 23.124 21.54C23.484 21.612 23.812 21.724 24.108 21.876C24.412 22.02 24.676 22.196 24.9 22.404L24.432 23.556C24.096 23.276 23.728 23.068 23.328 22.932C22.928 22.788 22.488 22.716 22.008 22.716C21.64 22.716 21.324 22.768 21.06 22.872C20.796 22.976 20.592 23.124 20.448 23.316C20.312 23.5 20.244 23.72 20.244 23.976C20.244 24.264 20.34 24.496 20.532 24.672C20.724 24.84 21.052 24.972 21.516 25.068L22.824 25.344C23.616 25.512 24.204 25.776 24.588 26.136C24.98 26.496 25.176 26.976 25.176 27.576C25.176 28.08 25.04 28.524 24.768 28.908C24.496 29.292 24.108 29.592 23.604 29.808C23.108 30.016 22.52 30.12 21.84 30.12ZM28.9423 30.12C28.3263 30.12 27.7903 29.996 27.3343 29.748C26.8783 29.492 26.5263 29.132 26.2783 28.668C26.0303 28.204 25.9063 27.66 25.9063 27.036C25.9063 26.412 26.0303 25.876 26.2783 25.428C26.5263 24.972 26.8783 24.624 27.3343 24.384C27.7903 24.136 28.3263 24.012 28.9423 24.012C29.3183 24.012 29.6903 24.072 30.0583 24.192C30.4263 24.312 30.7303 24.48 30.9703 24.696L30.5263 25.74C30.3183 25.556 30.0823 25.416 29.8183 25.32C29.5623 25.224 29.3143 25.176 29.0743 25.176C28.5543 25.176 28.1503 25.34 27.8623 25.668C27.5823 25.988 27.4423 26.448 27.4423 27.048C27.4423 27.64 27.5823 28.108 27.8623 28.452C28.1503 28.788 28.5543 28.956 29.0743 28.956C29.3063 28.956 29.5543 28.908 29.8183 28.812C30.0823 28.716 30.3183 28.572 30.5263 28.38L30.9703 29.436C30.7303 29.644 30.4223 29.812 30.0463 29.94C29.6783 30.06 29.3103 30.12 28.9423 30.12ZM33.6673 30.12C33.2433 30.12 32.8633 30.04 32.5273 29.88C32.1993 29.712 31.9393 29.488 31.7473 29.208C31.5633 28.928 31.4713 28.612 31.4713 28.26C31.4713 27.828 31.5833 27.488 31.8073 27.24C32.0313 26.984 32.3953 26.8 32.8993 26.688C33.4033 26.576 34.0793 26.52 34.9273 26.52H35.5273V27.384H34.9393C34.5633 27.384 34.2473 27.4 33.9913 27.432C33.7353 27.456 33.5273 27.5 33.3673 27.564C33.2153 27.62 33.1033 27.7 33.0313 27.804C32.9673 27.908 32.9353 28.036 32.9353 28.188C32.9353 28.452 33.0273 28.668 33.2113 28.836C33.3953 29.004 33.6513 29.088 33.9793 29.088C34.2433 29.088 34.4753 29.028 34.6753 28.908C34.8833 28.78 35.0473 28.608 35.1673 28.392C35.2873 28.176 35.3473 27.928 35.3473 27.648V26.268C35.3473 25.868 35.2593 25.58 35.0833 25.404C34.9073 25.228 34.6113 25.14 34.1953 25.14C33.8673 25.14 33.5313 25.192 33.1873 25.296C32.8433 25.392 32.4953 25.544 32.1433 25.752L31.7113 24.732C31.9193 24.588 32.1633 24.464 32.4433 24.36C32.7313 24.248 33.0313 24.164 33.3433 24.108C33.6633 24.044 33.9633 24.012 34.2433 24.012C34.8193 24.012 35.2913 24.1 35.6593 24.276C36.0353 24.452 36.3153 24.72 36.4993 25.08C36.6833 25.432 36.7753 25.888 36.7753 26.448V30H35.3713V28.752H35.4673C35.4113 29.032 35.2993 29.276 35.1313 29.484C34.9713 29.684 34.7673 29.84 34.5193 29.952C34.2713 30.064 33.9873 30.12 33.6673 30.12ZM38.1778 30V24.132H39.6418V25.308H39.5098C39.6858 24.884 39.9578 24.564 40.3258 24.348C40.7018 24.124 41.1258 24.012 41.5978 24.012C42.0698 24.012 42.4578 24.1 42.7618 24.276C43.0658 24.452 43.2938 24.72 43.4458 25.08C43.5978 25.432 43.6738 25.88 43.6738 26.424V30H42.1738V26.496C42.1738 26.192 42.1338 25.944 42.0538 25.752C41.9818 25.56 41.8658 25.42 41.7058 25.332C41.5538 25.236 41.3578 25.188 41.1178 25.188C40.8298 25.188 40.5778 25.252 40.3618 25.38C40.1458 25.5 39.9778 25.676 39.8578 25.908C39.7378 26.132 39.6778 26.396 39.6778 26.7V30H38.1778ZM54.4197 32.556L53.2557 30.672C53.1437 30.488 52.9917 30.348 52.7997 30.252C52.6157 30.164 52.3877 30.12 52.1157 30.12L53.3037 29.652C53.5517 29.652 53.7677 29.68 53.9517 29.736C54.1357 29.792 54.2997 29.884 54.4437 30.012C54.5877 30.14 54.7237 30.316 54.8517 30.54L55.7277 31.932L54.4197 32.556ZM52.1277 30.12C51.5117 30.12 50.9517 30.02 50.4477 29.82C49.9517 29.612 49.5237 29.316 49.1637 28.932C48.8117 28.548 48.5397 28.088 48.3477 27.552C48.1557 27.016 48.0597 26.42 48.0597 25.764C48.0597 25.1 48.1557 24.504 48.3477 23.976C48.5397 23.44 48.8117 22.984 49.1637 22.608C49.5237 22.224 49.9517 21.932 50.4477 21.732C50.9517 21.524 51.5117 21.42 52.1277 21.42C52.7437 21.42 53.2997 21.524 53.7957 21.732C54.2997 21.932 54.7277 22.22 55.0797 22.596C55.4397 22.972 55.7157 23.428 55.9077 23.964C56.0997 24.492 56.1957 25.088 56.1957 25.752C56.1957 26.416 56.0997 27.016 55.9077 27.552C55.7157 28.088 55.4397 28.548 55.0797 28.932C54.7277 29.316 54.2997 29.612 53.7957 29.82C53.2997 30.02 52.7437 30.12 52.1277 30.12ZM52.1277 28.8C52.6477 28.8 53.0877 28.68 53.4477 28.44C53.8157 28.2 54.0957 27.852 54.2877 27.396C54.4877 26.94 54.5877 26.396 54.5877 25.764C54.5877 25.124 54.4917 24.58 54.2997 24.132C54.1077 23.676 53.8277 23.332 53.4597 23.1C53.0917 22.86 52.6477 22.74 52.1277 22.74C51.6157 22.74 51.1757 22.86 50.8077 23.1C50.4397 23.332 50.1557 23.676 49.9557 24.132C49.7637 24.58 49.6677 25.124 49.6677 25.764C49.6677 26.396 49.7637 26.94 49.9557 27.396C50.1557 27.852 50.4397 28.2 50.8077 28.44C51.1757 28.68 51.6157 28.8 52.1277 28.8ZM57.6376 30V21.54H61.3096C62.2376 21.54 62.9536 21.764 63.4576 22.212C63.9616 22.652 64.2136 23.272 64.2136 24.072C64.2136 24.592 64.0976 25.04 63.8656 25.416C63.6416 25.792 63.3136 26.08 62.8816 26.28C62.4496 26.48 61.9256 26.58 61.3096 26.58L61.4176 26.4H61.8136C62.1416 26.4 62.4256 26.48 62.6656 26.64C62.9136 26.8 63.1296 27.052 63.3136 27.396L64.7296 30H63.0376L61.5736 27.3C61.4776 27.124 61.3696 26.988 61.2496 26.892C61.1296 26.788 60.9936 26.716 60.8416 26.676C60.6896 26.636 60.5136 26.616 60.3136 26.616H59.1736V30H57.6376ZM59.1736 25.476H61.0456C61.5976 25.476 62.0136 25.364 62.2936 25.14C62.5816 24.908 62.7256 24.564 62.7256 24.108C62.7256 23.66 62.5816 23.324 62.2936 23.1C62.0136 22.868 61.5976 22.752 61.0456 22.752H59.1736V25.476ZM72.7945 30.12C71.9145 30.12 71.1585 29.944 70.5265 29.592C69.9025 29.232 69.4225 28.728 69.0865 28.08C68.7505 27.424 68.5825 26.652 68.5825 25.764C68.5825 24.876 68.7505 24.108 69.0865 23.46C69.4225 22.812 69.9025 22.312 70.5265 21.96C71.1585 21.6 71.9145 21.42 72.7945 21.42C73.3625 21.42 73.8985 21.508 74.4025 21.684C74.9145 21.86 75.3345 22.112 75.6625 22.44L75.1585 23.664C74.7985 23.36 74.4305 23.14 74.0545 23.004C73.6785 22.86 73.2745 22.788 72.8425 22.788C71.9865 22.788 71.3345 23.048 70.8865 23.568C70.4385 24.08 70.2145 24.812 70.2145 25.764C70.2145 26.716 70.4385 27.452 70.8865 27.972C71.3345 28.492 71.9865 28.752 72.8425 28.752C73.2745 28.752 73.6785 28.684 74.0545 28.548C74.4305 28.404 74.7985 28.18 75.1585 27.876L75.6625 29.1C75.3345 29.42 74.9145 29.672 74.4025 29.856C73.8985 30.032 73.3625 30.12 72.7945 30.12ZM78.9932 30.12C78.3852 30.12 77.8572 29.996 77.4092 29.748C76.9612 29.5 76.6132 29.148 76.3652 28.692C76.1172 28.228 75.9932 27.684 75.9932 27.06C75.9932 26.436 76.1172 25.896 76.3652 25.44C76.6132 24.984 76.9612 24.632 77.4092 24.384C77.8572 24.136 78.3852 24.012 78.9932 24.012C79.6012 24.012 80.1292 24.136 80.5772 24.384C81.0252 24.632 81.3732 24.984 81.6212 25.44C81.8692 25.896 81.9932 26.436 81.9932 27.06C81.9932 27.684 81.8692 28.228 81.6212 28.692C81.3732 29.148 81.0252 29.5 80.5772 29.748C80.1292 29.996 79.6012 30.12 78.9932 30.12ZM78.9932 28.98C79.4412 28.98 79.8012 28.82 80.0732 28.5C80.3452 28.172 80.4812 27.692 80.4812 27.06C80.4812 26.42 80.3452 25.944 80.0732 25.632C79.8012 25.312 79.4412 25.152 78.9932 25.152C78.5452 25.152 78.1852 25.312 77.9132 25.632C77.6412 25.944 77.5052 26.42 77.5052 27.06C77.5052 27.692 77.6412 28.172 77.9132 28.5C78.1852 28.82 78.5452 28.98 78.9932 28.98ZM85.3673 30.12C84.8553 30.12 84.4033 29.996 84.0113 29.748C83.6273 29.5 83.3273 29.148 83.1113 28.692C82.8953 28.228 82.7873 27.684 82.7873 27.06C82.7873 26.428 82.8953 25.888 83.1113 25.44C83.3273 24.984 83.6273 24.632 84.0113 24.384C84.4033 24.136 84.8553 24.012 85.3673 24.012C85.8553 24.012 86.2793 24.132 86.6393 24.372C87.0073 24.612 87.2553 24.928 87.3833 25.32H87.2513V21.54H88.7513V30H87.2873V28.752H87.3953C87.2753 29.168 87.0313 29.5 86.6633 29.748C86.2953 29.996 85.8633 30.12 85.3673 30.12ZM85.7873 28.98C86.2353 28.98 86.5953 28.82 86.8673 28.5C87.1393 28.172 87.2753 27.692 87.2753 27.06C87.2753 26.42 87.1393 25.944 86.8673 25.632C86.5953 25.312 86.2353 25.152 85.7873 25.152C85.3393 25.152 84.9793 25.312 84.7073 25.632C84.4353 25.944 84.2993 26.42 84.2993 27.06C84.2993 27.692 84.4353 28.172 84.7073 28.5C84.9793 28.82 85.3393 28.98 85.7873 28.98ZM93.0786 30.12C92.4146 30.12 91.8426 29.996 91.3626 29.748C90.8826 29.5 90.5106 29.148 90.2466 28.692C89.9906 28.236 89.8626 27.696 89.8626 27.072C89.8626 26.464 89.9866 25.932 90.2346 25.476C90.4906 25.02 90.8386 24.664 91.2786 24.408C91.7266 24.144 92.2346 24.012 92.8026 24.012C93.3626 24.012 93.8426 24.132 94.2426 24.372C94.6426 24.612 94.9506 24.952 95.1666 25.392C95.3906 25.832 95.5026 26.356 95.5026 26.964V27.408H91.0746V26.544H94.4466L94.2546 26.724C94.2546 26.18 94.1346 25.764 93.8946 25.476C93.6546 25.18 93.3106 25.032 92.8626 25.032C92.5266 25.032 92.2386 25.112 91.9986 25.272C91.7666 25.424 91.5866 25.644 91.4586 25.932C91.3386 26.212 91.2786 26.548 91.2786 26.94V27.024C91.2786 27.464 91.3466 27.828 91.4826 28.116C91.6186 28.404 91.8226 28.62 92.0946 28.764C92.3666 28.908 92.7026 28.98 93.1026 28.98C93.4306 28.98 93.7586 28.932 94.0866 28.836C94.4146 28.732 94.7146 28.572 94.9866 28.356L95.4066 29.364C95.1266 29.596 94.7746 29.78 94.3506 29.916C93.9266 30.052 93.5026 30.12 93.0786 30.12Z" fill="black"/>
<path d="M20.652 46L21.864 38.392H18.792L18.924 37.54H26.064L25.932 38.392H22.848L21.648 46H20.652ZM27.2447 46.108C26.7247 46.108 26.2727 46.004 25.8887 45.796C25.5127 45.588 25.2207 45.292 25.0127 44.908C24.8127 44.524 24.7127 44.068 24.7127 43.54C24.7127 43.044 24.7847 42.588 24.9287 42.172C25.0807 41.748 25.2927 41.376 25.5647 41.056C25.8367 40.736 26.1567 40.492 26.5247 40.324C26.9007 40.148 27.3247 40.06 27.7967 40.06C28.3167 40.06 28.7647 40.164 29.1407 40.372C29.5247 40.58 29.8167 40.876 30.0167 41.26C30.2167 41.636 30.3167 42.092 30.3167 42.628C30.3167 43.124 30.2447 43.584 30.1007 44.008C29.9567 44.424 29.7487 44.792 29.4767 45.112C29.2047 45.424 28.8807 45.668 28.5047 45.844C28.1287 46.02 27.7087 46.108 27.2447 46.108ZM27.2807 45.328C27.7207 45.328 28.0927 45.204 28.3967 44.956C28.7087 44.708 28.9407 44.376 29.0927 43.96C29.2527 43.544 29.3327 43.088 29.3327 42.592C29.3327 42.016 29.1927 41.58 28.9127 41.284C28.6407 40.988 28.2567 40.84 27.7607 40.84C27.3207 40.84 26.9447 40.964 26.6327 41.212C26.3287 41.46 26.0967 41.788 25.9367 42.196C25.7767 42.604 25.6967 43.064 25.6967 43.576C25.6967 44.144 25.8367 44.58 26.1167 44.884C26.3967 45.18 26.7847 45.328 27.2807 45.328ZM36.0827 46.108C35.7467 46.108 35.4307 46.032 35.1347 45.88C34.8467 45.728 34.6147 45.52 34.4387 45.256C34.2627 44.992 34.1747 44.692 34.1747 44.356C34.1747 43.94 34.2867 43.608 34.5107 43.36C34.7427 43.104 35.1027 42.916 35.5907 42.796C36.0787 42.676 36.7067 42.616 37.4747 42.616H38.4347L38.3387 43.252H37.6067C36.9907 43.252 36.5027 43.284 36.1427 43.348C35.7907 43.412 35.5387 43.52 35.3867 43.672C35.2347 43.824 35.1587 44.032 35.1587 44.296C35.1587 44.648 35.2747 44.916 35.5067 45.1C35.7467 45.284 36.0187 45.376 36.3227 45.376C36.6187 45.376 36.8907 45.312 37.1387 45.184C37.3947 45.056 37.6107 44.868 37.7867 44.62C37.9627 44.364 38.0787 44.064 38.1347 43.72L38.3627 42.256C38.4427 41.792 38.3827 41.44 38.1827 41.2C37.9907 40.96 37.6387 40.84 37.1267 40.84C36.7667 40.84 36.4227 40.888 36.0947 40.984C35.7747 41.08 35.4587 41.236 35.1467 41.452L34.8707 40.744C35.0627 40.6 35.2867 40.48 35.5427 40.384C35.7987 40.28 36.0707 40.2 36.3587 40.144C36.6547 40.088 36.9467 40.06 37.2347 40.06C37.7787 40.06 38.2107 40.164 38.5307 40.372C38.8587 40.572 39.0827 40.856 39.2027 41.224C39.3227 41.592 39.3427 42.024 39.2627 42.52L38.7107 46H37.7867L37.9907 44.68H38.1107C38.0067 45 37.8467 45.268 37.6307 45.484C37.4227 45.692 37.1827 45.848 36.9107 45.952C36.6387 46.056 36.3627 46.108 36.0827 46.108ZM40.382 46L41.318 40.168H42.266L42.038 41.56H41.918C42.062 41.136 42.31 40.788 42.662 40.516C43.014 40.244 43.462 40.088 44.006 40.048L44.474 40.012L44.486 40.852L43.814 40.912C43.39 40.952 43.046 41.052 42.782 41.212C42.518 41.364 42.314 41.572 42.17 41.836C42.034 42.1 41.934 42.416 41.87 42.784L41.366 46H40.382ZM47.1444 46.108C46.5684 46.108 46.0924 46 45.7164 45.784C45.3404 45.568 45.0564 45.264 44.8644 44.872C44.6804 44.48 44.5884 44.028 44.5884 43.516C44.5884 43.084 44.6484 42.664 44.7684 42.256C44.8884 41.84 45.0764 41.468 45.3324 41.14C45.5884 40.812 45.9124 40.552 46.3044 40.36C46.6964 40.16 47.1644 40.06 47.7084 40.06C48.0924 40.06 48.4604 40.124 48.8124 40.252C49.1644 40.38 49.4444 40.552 49.6524 40.768L49.3044 41.464C49.1044 41.264 48.8724 41.112 48.6084 41.008C48.3444 40.904 48.0564 40.852 47.7444 40.852C47.3524 40.852 47.0204 40.928 46.7484 41.08C46.4764 41.232 46.2524 41.436 46.0764 41.692C45.9084 41.948 45.7844 42.236 45.7044 42.556C45.6244 42.868 45.5844 43.184 45.5844 43.504C45.5844 44.048 45.7124 44.488 45.9684 44.824C46.2324 45.152 46.6644 45.316 47.2644 45.316C47.5124 45.316 47.7684 45.268 48.0324 45.172C48.3044 45.068 48.5564 44.912 48.7884 44.704L49.0764 45.424C48.9244 45.568 48.7404 45.692 48.5244 45.796C48.3084 45.892 48.0804 45.968 47.8404 46.024C47.6084 46.08 47.3764 46.108 47.1444 46.108ZM49.9271 46L51.2711 37.54H52.2431L51.6191 41.488H51.4751C51.6751 41.032 51.9671 40.68 52.3511 40.432C52.7431 40.184 53.2071 40.06 53.7431 40.06C54.1751 40.06 54.5351 40.148 54.8231 40.324C55.1191 40.492 55.3271 40.756 55.4471 41.116C55.5751 41.468 55.5951 41.92 55.5071 42.472L54.9551 46H53.9831L54.5351 42.472C54.5991 42.112 54.5991 41.812 54.5351 41.572C54.4711 41.332 54.3511 41.152 54.1751 41.032C53.9991 40.912 53.7591 40.852 53.4551 40.852C53.0711 40.852 52.7351 40.936 52.4471 41.104C52.1591 41.264 51.9271 41.492 51.7511 41.788C51.5831 42.084 51.4671 42.432 51.4031 42.832L50.8991 46H49.9271ZM57.6834 38.716L57.8514 37.624H59.0514L58.8714 38.716H57.6834ZM56.6274 46L57.5514 40.168H58.5234L57.5994 46H56.6274ZM61.0125 46L59.4405 40.168H60.4485L61.7205 45.28H61.3965L64.3245 40.168H65.3685L61.9365 46H61.0125ZM68.0662 46.108C67.5142 46.108 67.0342 46.004 66.6262 45.796C66.2182 45.588 65.9022 45.292 65.6782 44.908C65.4622 44.516 65.3542 44.056 65.3542 43.528C65.3542 42.896 65.4822 42.32 65.7382 41.8C65.9942 41.272 66.3542 40.852 66.8182 40.54C67.2822 40.22 67.8342 40.06 68.4742 40.06C69.0822 40.06 69.5622 40.2 69.9142 40.48C70.2742 40.76 70.5182 41.128 70.6462 41.584C70.7742 42.032 70.8022 42.516 70.7302 43.036L70.6942 43.288H66.1102L66.2062 42.652H70.1422L69.9262 42.808C69.9822 42.432 69.9702 42.092 69.8902 41.788C69.8102 41.484 69.6542 41.24 69.4222 41.056C69.1902 40.872 68.8702 40.78 68.4622 40.78C68.0302 40.78 67.6702 40.88 67.3822 41.08C67.0942 41.272 66.8662 41.52 66.6982 41.824C66.5382 42.128 66.4302 42.444 66.3742 42.772L66.3262 43.06C66.2542 43.516 66.2782 43.916 66.3982 44.26C66.5182 44.596 66.7222 44.86 67.0102 45.052C67.3062 45.236 67.6742 45.328 68.1142 45.328C68.4822 45.328 68.8262 45.276 69.1462 45.172C69.4662 45.06 69.7542 44.888 70.0102 44.656L70.3342 45.316C70.0622 45.572 69.7222 45.768 69.3142 45.904C68.9062 46.04 68.4902 46.108 68.0662 46.108ZM74.835 48.16L76.299 45.7L76.239 46.12L74.631 40.168H75.627L76.911 45.292H76.575L79.527 40.168H80.583L75.855 48.16H74.835ZM83.077 46.108C82.557 46.108 82.105 46.004 81.721 45.796C81.345 45.588 81.053 45.292 80.845 44.908C80.645 44.524 80.545 44.068 80.545 43.54C80.545 43.044 80.617 42.588 80.761 42.172C80.913 41.748 81.125 41.376 81.397 41.056C81.669 40.736 81.989 40.492 82.357 40.324C82.733 40.148 83.157 40.06 83.629 40.06C84.149 40.06 84.597 40.164 84.973 40.372C85.357 40.58 85.649 40.876 85.849 41.26C86.049 41.636 86.149 42.092 86.149 42.628C86.149 43.124 86.077 43.584 85.933 44.008C85.789 44.424 85.581 44.792 85.309 45.112C85.037 45.424 84.713 45.668 84.337 45.844C83.961 46.02 83.541 46.108 83.077 46.108ZM83.113 45.328C83.553 45.328 83.925 45.204 84.229 44.956C84.541 44.708 84.773 44.376 84.925 43.96C85.085 43.544 85.165 43.088 85.165 42.592C85.165 42.016 85.025 41.58 84.745 41.284C84.473 40.988 84.089 40.84 83.593 40.84C83.153 40.84 82.777 40.964 82.465 41.212C82.161 41.46 81.929 41.788 81.769 42.196C81.609 42.604 81.529 43.064 81.529 43.576C81.529 44.144 81.669 44.58 81.949 44.884C82.229 45.18 82.617 45.328 83.113 45.328ZM89.085 46.108C88.669 46.108 88.313 46.02 88.017 45.844C87.729 45.668 87.525 45.404 87.405 45.052C87.285 44.692 87.269 44.236 87.357 43.684L87.909 40.168H88.881L88.329 43.684C88.273 44.044 88.273 44.344 88.329 44.584C88.385 44.824 88.501 45.004 88.677 45.124C88.853 45.244 89.085 45.304 89.373 45.304C89.749 45.304 90.073 45.224 90.345 45.064C90.617 44.896 90.841 44.664 91.017 44.368C91.193 44.072 91.313 43.724 91.377 43.324L91.869 40.168H92.841L91.917 46H90.969L91.173 44.68H91.293C91.109 45.128 90.821 45.48 90.429 45.736C90.045 45.984 89.597 46.108 89.085 46.108ZM93.6156 46L94.5516 40.168H95.4996L95.2716 41.56H95.1516C95.2956 41.136 95.5436 40.788 95.8956 40.516C96.2476 40.244 96.6956 40.088 97.2396 40.048L97.7076 40.012L97.7196 40.852L97.0476 40.912C96.6236 40.952 96.2796 41.052 96.0156 41.212C95.7516 41.364 95.5476 41.572 95.4036 41.836C95.2676 42.1 95.1676 42.416 95.1036 42.784L94.5996 46H93.6156ZM21.54 58.108C21.076 58.108 20.66 57.992 20.292 57.76C19.924 57.52 19.672 57.16 19.536 56.68H19.608L19.404 58H18.444L19.788 49.54H20.76L20.148 53.404H20.016C20.152 53.124 20.328 52.884 20.544 52.684C20.76 52.484 21.008 52.332 21.288 52.228C21.576 52.116 21.884 52.06 22.212 52.06C22.668 52.06 23.064 52.16 23.4 52.36C23.744 52.56 24.008 52.848 24.192 53.224C24.376 53.6 24.468 54.044 24.468 54.556C24.468 55.196 24.352 55.788 24.12 56.332C23.896 56.868 23.564 57.3 23.124 57.628C22.692 57.948 22.164 58.108 21.54 58.108ZM21.42 57.328C21.868 57.328 22.244 57.204 22.548 56.956C22.852 56.708 23.084 56.376 23.244 55.96C23.404 55.544 23.484 55.088 23.484 54.592C23.484 54.016 23.344 53.58 23.064 53.284C22.784 52.988 22.4 52.84 21.912 52.84C21.472 52.84 21.096 52.964 20.784 53.212C20.48 53.46 20.248 53.788 20.088 54.196C19.928 54.604 19.848 55.064 19.848 55.576C19.848 56.144 19.988 56.58 20.268 56.884C20.548 57.18 20.932 57.328 21.42 57.328ZM28.1161 58.108C27.5641 58.108 27.0841 58.004 26.6761 57.796C26.2681 57.588 25.9521 57.292 25.7281 56.908C25.5121 56.516 25.4041 56.056 25.4041 55.528C25.4041 54.896 25.5321 54.32 25.7881 53.8C26.0441 53.272 26.4041 52.852 26.8681 52.54C27.3321 52.22 27.8841 52.06 28.5241 52.06C29.1321 52.06 29.6121 52.2 29.9641 52.48C30.3241 52.76 30.5681 53.128 30.6961 53.584C30.8241 54.032 30.8521 54.516 30.7801 55.036L30.7441 55.288H26.1601L26.2561 54.652H30.1921L29.9761 54.808C30.0321 54.432 30.0201 54.092 29.9401 53.788C29.8601 53.484 29.7041 53.24 29.4721 53.056C29.2401 52.872 28.9201 52.78 28.5121 52.78C28.0801 52.78 27.7201 52.88 27.4321 53.08C27.1441 53.272 26.9161 53.52 26.7481 53.824C26.5881 54.128 26.4801 54.444 26.4241 54.772L26.3761 55.06C26.3041 55.516 26.3281 55.916 26.4481 56.26C26.5681 56.596 26.7721 56.86 27.0601 57.052C27.3561 57.236 27.7241 57.328 28.1641 57.328C28.5321 57.328 28.8761 57.276 29.1961 57.172C29.5161 57.06 29.8041 56.888 30.0601 56.656L30.3841 57.316C30.1121 57.572 29.7721 57.768 29.3641 57.904C28.9561 58.04 28.5401 58.108 28.1161 58.108ZM33.5308 58.108C33.1948 58.108 32.8788 58.032 32.5828 57.88C32.2948 57.728 32.0628 57.52 31.8868 57.256C31.7108 56.992 31.6228 56.692 31.6228 56.356C31.6228 55.94 31.7348 55.608 31.9588 55.36C32.1908 55.104 32.5508 54.916 33.0388 54.796C33.5268 54.676 34.1548 54.616 34.9228 54.616H35.8828L35.7868 55.252H35.0548C34.4388 55.252 33.9508 55.284 33.5908 55.348C33.2388 55.412 32.9868 55.52 32.8348 55.672C32.6828 55.824 32.6068 56.032 32.6068 56.296C32.6068 56.648 32.7228 56.916 32.9548 57.1C33.1948 57.284 33.4668 57.376 33.7708 57.376C34.0668 57.376 34.3388 57.312 34.5868 57.184C34.8428 57.056 35.0588 56.868 35.2348 56.62C35.4108 56.364 35.5268 56.064 35.5828 55.72L35.8108 54.256C35.8908 53.792 35.8308 53.44 35.6308 53.2C35.4388 52.96 35.0868 52.84 34.5748 52.84C34.2148 52.84 33.8708 52.888 33.5428 52.984C33.2228 53.08 32.9068 53.236 32.5948 53.452L32.3188 52.744C32.5108 52.6 32.7348 52.48 32.9908 52.384C33.2468 52.28 33.5188 52.2 33.8068 52.144C34.1028 52.088 34.3948 52.06 34.6828 52.06C35.2268 52.06 35.6588 52.164 35.9788 52.372C36.3068 52.572 36.5308 52.856 36.6508 53.224C36.7708 53.592 36.7908 54.024 36.7108 54.52L36.1588 58H35.2348L35.4388 56.68H35.5588C35.4548 57 35.2948 57.268 35.0788 57.484C34.8708 57.692 34.6308 57.848 34.3588 57.952C34.0868 58.056 33.8108 58.108 33.5308 58.108ZM39.9061 58.108C39.4901 58.108 39.1341 58.02 38.8381 57.844C38.5501 57.668 38.3461 57.404 38.2261 57.052C38.1061 56.692 38.0901 56.236 38.1781 55.684L38.7301 52.168H39.7021L39.1501 55.684C39.0941 56.044 39.0941 56.344 39.1501 56.584C39.2061 56.824 39.3221 57.004 39.4981 57.124C39.6741 57.244 39.9061 57.304 40.1941 57.304C40.5701 57.304 40.8941 57.224 41.1661 57.064C41.4381 56.896 41.6621 56.664 41.8381 56.368C42.0141 56.072 42.1341 55.724 42.1981 55.324L42.6901 52.168H43.6621L42.7381 58H41.7901L41.9941 56.68H42.1141C41.9301 57.128 41.6421 57.48 41.2501 57.736C40.8661 57.984 40.4181 58.108 39.9061 58.108ZM46.8487 58.108C46.3927 58.108 46.0167 58.02 45.7207 57.844C45.4327 57.668 45.2287 57.424 45.1087 57.112C44.9967 56.8 44.9727 56.428 45.0367 55.996L45.5287 52.924H44.3767L44.5087 52.168H45.6487L45.9247 50.38H46.8967L46.6207 52.168H48.4687L48.3367 52.924H46.4887L46.0207 55.9C45.9487 56.388 46.0007 56.74 46.1767 56.956C46.3527 57.172 46.6367 57.28 47.0287 57.28C47.1647 57.28 47.2927 57.268 47.4127 57.244C47.5327 57.212 47.6407 57.18 47.7367 57.148L47.8327 57.904C47.7287 57.96 47.5807 58.008 47.3887 58.048C47.2047 58.088 47.0247 58.108 46.8487 58.108ZM48.9183 60.16L50.3823 57.7L50.3223 58.12L48.7143 52.168H49.7103L50.9943 57.292H50.6583L53.6103 52.168H54.6663L49.9383 60.16H48.9183ZM61.4524 60.16L61.9924 56.764H62.1244C61.9804 57.036 61.8004 57.272 61.5844 57.472C61.3764 57.672 61.1284 57.828 60.8404 57.94C60.5604 58.052 60.2524 58.108 59.9164 58.108C59.4684 58.108 59.0764 58.008 58.7404 57.808C58.4044 57.6 58.1404 57.308 57.9484 56.932C57.7644 56.556 57.6724 56.116 57.6724 55.612C57.6724 54.964 57.7844 54.372 58.0084 53.836C58.2404 53.292 58.5724 52.86 59.0044 52.54C59.4444 52.22 59.9724 52.06 60.5884 52.06C61.0604 52.06 61.4804 52.176 61.8484 52.408C62.2164 52.64 62.4684 53 62.6044 53.488L62.5324 53.476L62.7364 52.168H63.6964L62.4244 60.16H61.4524ZM60.2284 57.328C60.6764 57.328 61.0524 57.204 61.3564 56.956C61.6604 56.708 61.8924 56.376 62.0524 55.96C62.2124 55.544 62.2924 55.088 62.2924 54.592C62.2924 54.016 62.1524 53.58 61.8724 53.284C61.5924 52.988 61.2084 52.84 60.7204 52.84C60.2804 52.84 59.9044 52.964 59.5924 53.212C59.2884 53.46 59.0564 53.788 58.8964 54.196C58.7364 54.604 58.6564 55.064 58.6564 55.576C58.6564 56.144 58.7964 56.58 59.0764 56.884C59.3564 57.18 59.7404 57.328 60.2284 57.328ZM66.5405 58.108C66.1245 58.108 65.7685 58.02 65.4725 57.844C65.1845 57.668 64.9805 57.404 64.8605 57.052C64.7405 56.692 64.7245 56.236 64.8125 55.684L65.3645 52.168H66.3365L65.7845 55.684C65.7285 56.044 65.7285 56.344 65.7845 56.584C65.8405 56.824 65.9565 57.004 66.1325 57.124C66.3085 57.244 66.5405 57.304 66.8285 57.304C67.2045 57.304 67.5285 57.224 67.8005 57.064C68.0725 56.896 68.2965 56.664 68.4725 56.368C68.6485 56.072 68.7685 55.724 68.8325 55.324L69.3245 52.168H70.2965L69.3725 58H68.4245L68.6285 56.68H68.7485C68.5645 57.128 68.2765 57.48 67.8845 57.736C67.5005 57.984 67.0525 58.108 66.5405 58.108ZM73.687 58.108C73.167 58.108 72.715 58.004 72.331 57.796C71.955 57.588 71.663 57.292 71.455 56.908C71.255 56.524 71.155 56.068 71.155 55.54C71.155 55.044 71.227 54.588 71.371 54.172C71.523 53.748 71.735 53.376 72.007 53.056C72.279 52.736 72.599 52.492 72.967 52.324C73.343 52.148 73.767 52.06 74.239 52.06C74.759 52.06 75.207 52.164 75.583 52.372C75.967 52.58 76.259 52.876 76.459 53.26C76.659 53.636 76.759 54.092 76.759 54.628C76.759 55.124 76.687 55.584 76.543 56.008C76.399 56.424 76.191 56.792 75.919 57.112C75.647 57.424 75.323 57.668 74.947 57.844C74.571 58.02 74.151 58.108 73.687 58.108ZM73.723 57.328C74.163 57.328 74.535 57.204 74.839 56.956C75.151 56.708 75.383 56.376 75.535 55.96C75.695 55.544 75.775 55.088 75.775 54.592C75.775 54.016 75.635 53.58 75.355 53.284C75.083 52.988 74.699 52.84 74.203 52.84C73.763 52.84 73.387 52.964 73.075 53.212C72.771 53.46 72.539 53.788 72.379 54.196C72.219 54.604 72.139 55.064 72.139 55.576C72.139 56.144 72.279 56.58 72.559 56.884C72.839 57.18 73.227 57.328 73.723 57.328ZM79.9724 58.108C79.5164 58.108 79.1404 58.02 78.8444 57.844C78.5564 57.668 78.3524 57.424 78.2324 57.112C78.1204 56.8 78.0964 56.428 78.1604 55.996L78.6524 52.924H77.5004L77.6324 52.168H78.7724L79.0484 50.38H80.0204L79.7444 52.168H81.5924L81.4604 52.924H79.6124L79.1444 55.9C79.0724 56.388 79.1244 56.74 79.3004 56.956C79.4764 57.172 79.7604 57.28 80.1524 57.28C80.2884 57.28 80.4164 57.268 80.5364 57.244C80.6564 57.212 80.7644 57.18 80.8604 57.148L80.9564 57.904C80.8524 57.96 80.7044 58.008 80.5124 58.048C80.3284 58.088 80.1484 58.108 79.9724 58.108ZM84.3731 58.108C83.8211 58.108 83.3411 58.004 82.9331 57.796C82.5251 57.588 82.2091 57.292 81.9851 56.908C81.7691 56.516 81.6611 56.056 81.6611 55.528C81.6611 54.896 81.7891 54.32 82.0451 53.8C82.3011 53.272 82.6611 52.852 83.1251 52.54C83.5891 52.22 84.1411 52.06 84.7811 52.06C85.3891 52.06 85.8691 52.2 86.2211 52.48C86.5811 52.76 86.8251 53.128 86.9531 53.584C87.0811 54.032 87.1091 54.516 87.0371 55.036L87.0011 55.288H82.4171L82.5131 54.652H86.4491L86.2331 54.808C86.2891 54.432 86.2771 54.092 86.1971 53.788C86.1171 53.484 85.9611 53.24 85.7291 53.056C85.4971 52.872 85.1771 52.78 84.7691 52.78C84.3371 52.78 83.9771 52.88 83.6891 53.08C83.4011 53.272 83.1731 53.52 83.0051 53.824C82.8451 54.128 82.7371 54.444 82.6811 54.772L82.6331 55.06C82.5611 55.516 82.5851 55.916 82.7051 56.26C82.8251 56.596 83.0291 56.86 83.3171 57.052C83.6131 57.236 83.9811 57.328 84.4211 57.328C84.7891 57.328 85.1331 57.276 85.4531 57.172C85.7731 57.06 86.0611 56.888 86.3171 56.656L86.6411 57.316C86.3691 57.572 86.0291 57.768 85.6211 57.904C85.2131 58.04 84.7971 58.108 84.3731 58.108ZM87.6998 58L87.8918 56.776H89.1158L88.9238 58H87.6998Z" fill="black"/>
<g clip-path="url(#clip0_697_1232)">
<mask id="mask0_697_1232" style="mask-type:luminance" maskUnits="userSpaceOnUse" x="106" y="0" width="80" height="80">
<path d="M186 0H106V80H186V0Z" fill="white"/>
</mask>
<g mask="url(#mask0_697_1232)">
<path d="M186 0H106V80H186V0Z" fill="white"/>
<path d="M163.928 73.1088H180.485H163.928ZM158.413 73.1088H161.176H158.413ZM144.619 73.1088H152.897H144.619ZM133.588 73.1088H141.867H133.588ZM111.516 73.1088H130.825H111.516ZM177.722 70.3454H180.485H177.722ZM161.176 70.3454H172.207H161.176ZM152.897 70.3454H158.413H152.897ZM136.352 70.3454H141.867H136.352ZM128.073 70.3454H130.837H128.073ZM111.516 70.3454H114.279H111.516ZM177.722 67.5819H180.485H177.722ZM169.455 67.5819H174.97H169.455ZM155.661 67.5819H161.176H155.661ZM147.382 67.5819H152.897H147.382ZM133.588 67.5819H139.103H133.588ZM128.073 67.5819H130.837H128.073ZM117.031 67.5819H125.31H117.031ZM111.516 67.5819H114.279H111.516ZM166.691 64.8301H180.485H166.691ZM155.661 64.8301H163.94H155.661ZM147.382 64.8301H150.146H147.382ZM139.103 64.8301H144.619H139.103ZM133.588 64.8301H136.352H133.588ZM128.073 64.8301H130.837H128.073ZM117.031 64.8301H125.31H117.031ZM111.516 64.8301H114.279H111.516ZM172.207 62.0667H174.97H172.207ZM147.382 62.0667H169.455H147.382ZM133.588 62.0667H136.352H133.588ZM128.073 62.0667H130.837H128.073ZM117.031 62.0667H125.31H117.031ZM111.516 62.0667H114.279H111.516ZM174.97 59.3149H180.485H174.97ZM166.691 59.3149H172.207H166.691ZM155.661 59.3149H158.424H155.661ZM139.103 59.3149H141.867H139.103ZM133.588 59.3149H136.352H133.588ZM128.073 59.3149H130.837H128.073ZM111.516 59.3149H114.279H111.516ZM172.207 56.5514H180.485H172.207ZM166.691 56.5514H169.455H166.691ZM161.176 56.5514H163.94H161.176ZM155.661 56.5514H158.424H155.661ZM144.619 56.5514H152.897H144.619ZM139.103 56.5514H141.867H139.103ZM111.516 56.5514H130.825H111.516ZM166.691 53.7997H172.207H166.691ZM152.897 53.7997H158.413H152.897ZM144.619 53.7997H150.134H144.619ZM133.588 53.7997H136.352H133.588ZM172.207 51.0362H174.97H172.207ZM155.661 51.0362H169.455H155.661ZM141.867 51.0362H150.146H141.867ZM136.352 51.0362H139.115H136.352ZM128.073 51.0362H133.588H128.073ZM122.558 51.0362H125.321H122.558ZM111.516 51.0362H114.279H111.516ZM177.722 48.2727H180.485H177.722ZM163.928 48.2727H169.443H163.928ZM150.134 48.2727H158.413H150.134ZM141.867 48.2727H144.63H141.867ZM130.825 48.2727H139.103H130.825ZM117.031 48.2727H119.794H117.031ZM111.516 48.2727H114.279H111.516ZM174.97 45.521H180.485H174.97ZM163.928 45.521H172.207H163.928ZM158.413 45.521H161.176H158.413ZM152.897 45.521H155.661H152.897ZM141.867 45.521H150.146H141.867ZM117.031 45.521H139.103H117.031ZM111.516 45.521H114.279H111.516ZM174.97 42.7575H177.733H174.97ZM169.455 42.7575H172.218H169.455ZM163.928 42.7575H166.691H163.928ZM155.661 42.7575H158.424H155.661ZM150.134 42.7575H152.897H150.134ZM136.352 42.7575H139.115H136.352ZM130.825 42.7575H133.588H130.825ZM117.031 42.7575H125.31H117.031ZM111.516 42.7575H114.279H111.516ZM172.207 40.0058H180.485H172.207ZM158.413 40.0058H169.443H158.413ZM136.352 40.0058H155.661H136.352ZM128.073 40.0058H130.837H128.073ZM111.516 40.0058H114.279H111.516ZM177.722 37.2423H180.485H177.722ZM158.413 37.2423H163.928H158.413ZM152.897 37.2423H155.661H152.897ZM144.619 37.2423H147.382H144.619ZM133.588 37.2423H139.103H133.588ZM119.794 37.2423H128.073H119.794ZM111.516 37.2423H114.279H111.516ZM174.97 34.4788H180.485H174.97ZM141.867 34.4788H172.218H141.867ZM133.588 34.4788H136.352H133.588ZM125.31 34.4788H130.825H125.31ZM119.794 34.4788H122.558H119.794ZM111.516 34.4788H114.279H111.516ZM174.97 31.7271H177.733H174.97ZM163.928 31.7271H166.691H163.928ZM155.661 31.7271H158.424H155.661ZM139.103 31.7271H150.134H139.103ZM122.558 31.7271H125.321H122.558ZM114.279 31.7271H117.043H114.279ZM161.176 28.9636H174.97H161.176ZM147.382 28.9636H155.661H147.382ZM136.352 28.9636H141.867H136.352ZM117.031 28.9636H130.825H117.031ZM111.516 28.9636H114.279H111.516ZM133.588 26.2119H139.103H133.588ZM161.176 23.4484H180.485H161.176ZM155.661 23.4484H158.424H155.661ZM150.134 23.4484H152.897H150.134ZM144.619 23.4484H147.382H144.619ZM139.103 23.4484H141.867H139.103ZM133.588 23.4484H136.352H133.588ZM111.516 23.4484H130.825H111.516ZM177.722 20.6849H180.485H177.722ZM161.176 20.6849H163.94H161.176ZM150.134 20.6849H155.649H150.134ZM144.619 20.6849H147.382H144.619ZM133.588 20.6849H136.352H133.588ZM128.073 20.6849H130.837H128.073ZM111.516 20.6849H114.279H111.516ZM177.722 17.9332H180.485H177.722ZM166.691 17.9332H174.97H166.691ZM161.176 17.9332H163.94H161.176ZM133.588 17.9332H141.867H133.588ZM128.073 17.9332H130.837H128.073ZM117.031 17.9332H125.31H117.031ZM111.516 17.9332H114.279H111.516ZM177.722 15.1697H180.485H177.722ZM166.691 15.1697H174.97H166.691ZM161.176 15.1697H163.94H161.176ZM147.382 15.1697H152.897H147.382ZM141.867 15.1697H144.63H141.867ZM133.588 15.1697H136.352H133.588ZM128.073 15.1697H130.837H128.073ZM117.031 15.1697H125.31H117.031ZM111.516 15.1697H114.279H111.516ZM177.722 12.418H180.485H177.722ZM166.691 12.418H174.97H166.691ZM161.176 12.418H163.94H161.176ZM155.661 12.418H158.424H155.661ZM133.588 12.418H139.103H133.588ZM128.073 12.418H130.837H128.073ZM117.031 12.418H125.31H117.031ZM111.516 12.418H114.279H111.516ZM177.722 9.65448H180.485H177.722ZM161.176 9.65448H163.94H161.176ZM150.134 9.65448H155.649H150.134ZM144.619 9.65448H147.382H144.619ZM128.073 9.65448H130.837H128.073ZM111.516 9.65448H114.279H111.516ZM161.176 6.89099H180.485H161.176ZM155.661 6.89099H158.424H155.661ZM141.867 6.89099H147.382H141.867ZM136.352 6.89099H139.115H136.352ZM111.516 6.89099H130.825H111.516Z" fill="white"/>
<path d="M180.485 74.4847H163.928V71.7213H161.164V74.4847H158.401V71.7213H161.164V68.9578H172.195V71.7213H177.71V68.9578H180.473V74.473L180.485 74.4847ZM152.897 74.4847H144.619V71.7213H152.897V68.9578H158.413V71.7213H152.897V74.4847ZM141.867 74.4847H133.588V71.7213H136.352V68.9578H141.867V74.473V74.4847ZM130.825 74.4847H111.516V68.9695H114.279V71.733H128.073V68.9695H130.837V74.4847H130.825ZM180.485 68.9695H177.722V66.206H180.485V68.9695ZM174.97 68.9695H169.455V66.206H174.97V68.9695ZM161.176 68.9695H155.661V66.206H161.176V68.9695ZM152.897 68.9695H147.382V66.206H152.897V68.9695ZM139.103 68.9695H133.588V66.206H139.103V68.9695ZM130.825 68.9695H128.061V66.206H130.825V68.9695ZM125.31 68.9695H117.031V66.206H125.31V68.9695ZM114.279 68.9695H111.516V66.206H114.279V68.9695ZM180.485 66.206H166.691V63.4426H163.928V66.206H155.649V63.4426H150.134V66.206H147.37V60.6908H169.443V63.4543H172.206V60.6908H174.97V63.4543H180.485V66.2178V66.206ZM144.619 66.206H139.103V63.4426H144.619V66.206ZM136.352 66.206H133.588V60.6908H136.352V66.206ZM130.825 66.206H128.061V60.6908H130.825V66.206ZM125.31 66.206H117.031V60.6908H125.31V66.206ZM114.279 66.206H111.516V60.6908H114.279V66.206ZM180.485 60.6908H174.97V57.9273H172.206V60.6908H166.691V55.1756H169.455V57.9391H172.218V55.1756H180.497V60.6908H180.485ZM158.413 60.6908H155.649V55.1756H158.413V60.6908ZM141.867 60.6908H139.103V55.1756H141.867V60.6908ZM136.352 60.6908H133.588V57.9273H136.352V60.6908ZM130.825 60.6908H128.061V57.9273H114.279V60.6908H111.516V55.1756H130.825V60.6908ZM163.928 57.9273H161.164V55.1639H163.928V57.9273ZM152.897 57.9273H144.619V55.1639H152.897V57.9273ZM172.206 55.1756H166.691V52.4121H158.413V55.1756H152.897V52.4121H155.661V49.6486H150.146V55.1639H144.63V52.4004H141.867V44.1217H150.146V41.3582H139.115V52.3886H136.352V55.1521H133.588V52.3886H136.352V49.6251H133.588V52.3886H128.073V49.6251H130.837V46.8616H119.806V49.6251H117.043V41.3464H125.321V44.1099H130.837V41.3464H133.6V44.1099H136.363V38.5947H133.6V33.0795H136.363V35.843H139.127V38.6065H144.642V35.843H141.879V33.0795H139.115V30.316H136.352V27.5525H133.588V24.789H139.103V27.5525H141.867V30.316H147.382V27.5525H155.661V30.316H150.146V33.0795H155.661V30.316H158.424V33.0795H163.94V30.316H161.176V27.5525H174.97V30.316H166.691V33.0795H172.206V35.843H163.928V38.6065H169.443V41.3699H166.68V44.1334H169.443V41.3699H172.206V38.6065H177.722V35.843H174.958V30.3278H177.722V33.0912H180.485V41.3699H177.722V44.1334H180.485V49.6486H177.722V46.8852H174.958V41.3699H172.195V46.8852H169.431V52.4004H172.195V49.6369H174.958V52.4004H172.195V55.1639L172.206 55.1756ZM158.413 49.6604H163.928V41.3817H158.413V44.1452H155.649V46.9087H158.413V44.1452H161.176V46.9087H158.413V49.6722V49.6604ZM144.619 49.6604H150.134V46.8969H152.897V44.1334H155.661V41.3699H158.424V35.8547H155.661V41.3699H152.897V44.1334H150.134V46.8969H144.619V49.6604ZM147.382 38.6182H152.897V35.8547H147.382V38.6182ZM125.31 52.4121H122.546V49.6486H125.31V52.4121ZM114.279 52.4121H111.516V33.103H114.279V30.3395H117.043V27.576H130.837V30.3395H125.321V33.103H122.558V35.8665H125.321V33.103H130.837V35.8665H128.073V38.63H119.794V33.1148H122.558V30.3513H117.043V33.1148H114.279V52.4239V52.4121ZM130.825 41.3817H128.061V38.6182H130.825V41.3817ZM114.279 30.3513H111.516V27.5878H114.279V30.3513ZM180.485 24.8243H161.176V5.51518H180.485V24.8243ZM163.928 22.0726H177.722V8.27866H163.928V22.0726ZM158.413 24.8243H155.649V22.0608H158.413V24.8243ZM152.897 24.8243H150.134V19.3091H155.649V22.0726H152.886V24.8361L152.897 24.8243ZM147.382 24.8243H144.619V19.3091H147.382V24.8243ZM141.867 24.8243H139.103V22.0608H141.867V24.8243ZM136.352 24.8243H133.588V11.0304H139.103V13.7939H136.34V16.5574H141.855V13.7939H144.619V16.5574H141.855V19.3209H136.34V24.8361L136.352 24.8243ZM130.825 24.8243H111.516V5.51518H130.825V24.8243ZM114.279 22.0726H128.073V8.27866H114.279V22.0726ZM174.97 19.3091H166.691V11.0304H174.97V19.3091ZM125.31 19.3091H117.031V11.0304H125.31V19.3091ZM152.897 16.5574H147.382V13.7939H152.897V16.5574ZM158.413 13.7939H155.649V11.0304H158.413V13.7939ZM155.661 11.0304H150.146V8.26691H155.661V5.50342H158.424V8.26691H155.661V11.0304ZM147.382 11.0304H144.619V8.26691H141.855V5.50342H147.37V11.0186L147.382 11.0304ZM139.103 8.27866H136.34V5.51518H139.103V8.27866Z" fill="#010101"/>
</g>
</g>
<rect x="194" width="10" height="4" fill="black"/>
<rect x="194" y="76" width="10" height="4" fill="black"/>
<rect x="200" width="4" height="80" fill="black"/>
<defs>
<clipPath id="clip0_697_1232">
<rect width="80" height="80" fill="white" transform="translate(106)"/>
</clipPath>
</defs>
</svg>
