<svg width="16" height="16" viewBox="0 0 16 16" fill="none" xmlns="http://www.w3.org/2000/svg">
<path fill-rule="evenodd" clip-rule="evenodd" d="M8.00146 4.13281C9.02738 4.13285 10.0113 4.54029 10.7368 5.26562C11.4624 5.9912 11.8706 6.97583 11.8706 8.00195C11.8706 8.76712 11.6434 9.51515 11.2183 10.1514C10.7931 10.7876 10.1889 11.2833 9.48193 11.5762C8.77501 11.869 7.99705 11.9461 7.24658 11.7969C6.49607 11.6476 5.80623 11.2784 5.26514 10.7373C4.72428 10.1963 4.35582 9.50711 4.20654 8.75684C4.05726 8.00636 4.13444 7.22843 4.42725 6.52148C4.72008 5.81452 5.2158 5.21029 5.85205 4.78516C6.4883 4.36003 7.23626 4.13281 8.00146 4.13281ZM8.9624 5.68164C8.50358 5.49159 7.99832 5.44217 7.51123 5.53906C7.02423 5.63598 6.57719 5.87544 6.22607 6.22656C5.87496 6.57768 5.63549 7.02472 5.53857 7.51172C5.44169 7.99881 5.4911 8.50407 5.68115 8.96289C5.87119 9.42166 6.1931 9.81394 6.60596 10.0898C7.01889 10.3658 7.50484 10.5127 8.00146 10.5127C8.66737 10.5127 9.30598 10.2482 9.77686 9.77734C10.2477 9.30647 10.5122 8.66786 10.5122 8.00195C10.5122 7.50532 10.3653 7.01938 10.0894 6.60645C9.81345 6.19358 9.42117 5.87167 8.9624 5.68164Z" fill="black"/>
<path d="M12.0269 3.08008C12.1448 3.08013 12.2616 3.10334 12.3706 3.14844C12.4798 3.19365 12.579 3.26022 12.6626 3.34375C12.7462 3.42732 12.8127 3.52655 12.8579 3.63574C12.9031 3.74492 12.9263 3.8623 12.9263 3.98047C12.9262 4.15834 12.8737 4.33257 12.7749 4.48047C12.676 4.62837 12.535 4.74344 12.3706 4.81152C12.2062 4.87955 12.0255 4.89699 11.8511 4.8623C11.6765 4.82758 11.516 4.74208 11.3901 4.61621C11.2643 4.49036 11.1788 4.32981 11.144 4.15527C11.1094 3.98083 11.1268 3.80006 11.1948 3.63574C11.2629 3.47129 11.3789 3.33034 11.5269 3.23145C11.6748 3.13274 11.849 3.08008 12.0269 3.08008Z" fill="black"/>
<path fill-rule="evenodd" clip-rule="evenodd" d="M8.00146 0.467773C10.047 0.467774 10.3032 0.476594 11.1069 0.517578C11.732 0.530017 12.3506 0.648965 12.936 0.868164C13.4373 1.05614 13.892 1.35041 14.2681 1.73145C14.6509 2.10797 14.9474 2.56373 15.1362 3.06641C15.3554 3.65182 15.4734 4.27053 15.4858 4.89551C15.5218 5.70151 15.5317 5.95595 15.5317 8.00195C15.5317 10.0475 15.5228 10.3077 15.4858 11.1074C15.4734 11.7324 15.3554 12.3511 15.1362 12.9365C14.9427 13.436 14.6469 13.8897 14.2681 14.2686C13.8893 14.6474 13.4356 14.9432 12.936 15.1367C12.3506 15.3559 11.7319 15.4739 11.1069 15.4863C10.3012 15.5223 10.047 15.5322 8.00146 15.5322C5.95546 15.5322 5.69502 15.5233 4.89502 15.4863C4.27004 15.4739 3.65134 15.3559 3.06592 15.1367C2.56349 14.9475 2.10805 14.6507 1.73193 14.2676C1.34921 13.8923 1.05237 13.4379 0.862793 12.9365C0.643666 12.3511 0.52562 11.7324 0.513184 11.1074C0.477198 10.3017 0.468262 10.0475 0.468262 8.00195C0.468262 5.95595 0.476184 5.69848 0.513184 4.89648C0.525654 4.27151 0.64361 3.65279 0.862793 3.06738C1.053 2.56579 1.35036 2.11141 1.73389 1.73633C2.10996 1.35326 2.56552 1.0574 3.06787 0.868164C3.65237 0.647491 4.27042 0.526986 4.89502 0.512695C5.69802 0.476695 5.95546 0.467773 8.00146 0.467773ZM8.00146 1.8252C5.99067 1.8252 5.75133 1.83315 4.95752 1.86914C4.47945 1.87454 4.00549 1.96194 3.55713 2.12793C3.23003 2.24889 2.93379 2.44113 2.69092 2.69141C2.44064 2.93427 2.2484 3.23053 2.12744 3.55762C1.96147 4.00598 1.87407 4.47994 1.86865 4.95801C1.83266 5.75183 1.82471 5.99114 1.82471 8.00195C1.82471 10.0128 1.83265 10.2519 1.86865 11.0459C1.87408 11.5238 1.96157 11.9971 2.12744 12.4453C2.24835 12.7724 2.44074 13.0687 2.69092 13.3115C2.93382 13.5618 3.22998 13.755 3.55713 13.876C4.00549 14.042 4.47945 14.1294 4.95752 14.1348C5.75131 14.1708 5.99068 14.1787 8.00146 14.1787C10.0123 14.1787 10.2514 14.1708 11.0454 14.1348C11.5233 14.1294 11.9966 14.0418 12.4448 13.876C12.7698 13.7506 13.0657 13.5588 13.312 13.3125C13.5583 13.0662 13.7501 12.7703 13.8755 12.4453C14.0413 11.9971 14.1288 11.5238 14.1343 11.0459C14.1703 10.2519 14.1782 10.0128 14.1782 8.00195C14.1782 5.99115 14.1703 5.75182 14.1343 4.95801C14.1289 4.47994 14.0415 4.00598 13.8755 3.55762C13.7545 3.23047 13.5613 2.93431 13.311 2.69141C13.0682 2.44123 12.7719 2.24884 12.4448 2.12793C11.9966 1.96204 11.5233 1.87456 11.0454 1.86914C10.2514 1.83314 10.0133 1.8252 8.00146 1.8252Z" fill="black"/>
</svg>
